<?xml version="1.0" encoding="iso-8859-1"?>
<!-- Generator: Adobe Illustrator 17.1.0, SVG Export Plug-In . SVG Version: 6.00 Build 0)  -->
<!DOCTYPE svg PUBLIC "-//W3C//DTD SVG 1.1//EN" "http://www.w3.org/Graphics/SVG/1.1/DTD/svg11.dtd">
<svg version="1.1" id="Capa_1" xmlns="http://www.w3.org/2000/svg" xmlns:xlink="http://www.w3.org/1999/xlink" x="0px" y="0px"
	 viewBox="0 0 445 445" style="enable-background:new 0 0 445 445;" xml:space="preserve">
<g>
	<path d="M161.5,331h-44c-5.522,0-10,4.478-10,10v44c0,5.522,4.478,10,10,10h44c5.522,0,10-4.478,10-10v-44
		C171.5,335.478,167.022,331,161.5,331z M151.5,375h-24v-24h24V375z"/>
	<path d="M244.5,331h-44c-5.522,0-10,4.478-10,10v44c0,5.522,4.478,10,10,10h44c5.522,0,10-4.478,10-10v-44
		C254.5,335.478,250.022,331,244.5,331z M234.5,375h-24v-24h24V375z"/>
	<path d="M327.5,248h-44c-5.522,0-10,4.478-10,10v127c0,5.522,4.478,10,10,10h44c5.522,0,10-4.478,10-10V258
		C337.5,252.478,333.022,248,327.5,248z M317.5,375h-24V268h24V375z"/>
	<path d="M161.5,248h-44c-5.522,0-10,4.478-10,10v44c0,5.522,4.478,10,10,10h44c5.522,0,10-4.478,10-10v-44
		C171.5,252.478,167.022,248,161.5,248z M151.5,292h-24v-24h24V292z"/>
	<path d="M244.5,248h-44c-5.522,0-10,4.478-10,10v44c0,5.522,4.478,10,10,10h44c5.522,0,10-4.478,10-10v-44
		C254.5,252.478,250.022,248,244.5,248z M234.5,292h-24v-24h24V292z"/>
	<path d="M337.5,0h-230c-27.57,0-50,22.43-50,50v345c0,27.57,22.43,50,50,50h230c27.57,0,50-22.43,50-50V50
		C387.5,22.43,365.07,0,337.5,0z M367.5,395c0,16.542-13.458,30-30,30h-230c-16.542,0-30-13.458-30-30V50c0-16.542,13.458-30,30-30
		h230c16.542,0,30,13.458,30,30V395z"/>
	<path d="M327.5,50h-210c-5.522,0-10,4.478-10,10v75c0,5.522,4.478,10,10,10h210c5.522,0,10-4.478,10-10V60
		C337.5,54.478,333.022,50,327.5,50z M127.5,70h73.002l-27.929,27.929c-3.905,3.905-3.905,10.237,0,14.143
		c1.953,1.952,4.512,2.929,7.071,2.929s5.118-0.977,7.071-2.929L228.787,70h42.426l-55,55H127.5V70z M317.5,125h-73.002l55-55H317.5
		V125z"/>
	<path d="M161.5,165h-44c-5.522,0-10,4.478-10,10v44c0,5.522,4.478,10,10,10h44c5.522,0,10-4.478,10-10v-44
		C171.5,169.478,167.022,165,161.5,165z M151.5,209h-24v-24h24V209z"/>
	<path d="M244.5,165h-44c-5.522,0-10,4.478-10,10v44c0,5.522,4.478,10,10,10h44c5.522,0,10-4.478,10-10v-44
		C254.5,169.478,250.022,165,244.5,165z M234.5,209h-24v-24h24V209z"/>
	<path d="M327.5,165h-44c-5.522,0-10,4.478-10,10v44c0,5.522,4.478,10,10,10h44c5.522,0,10-4.478,10-10v-44
		C337.5,169.478,333.022,165,327.5,165z M317.5,209h-24v-24h24V209z"/>
</g>
<g>
</g>
<g>
</g>
<g>
</g>
<g>
</g>
<g>
</g>
<g>
</g>
<g>
</g>
<g>
</g>
<g>
</g>
<g>
</g>
<g>
</g>
<g>
</g>
<g>
</g>
<g>
</g>
<g>
</g>
</svg>
