<svg xmlns="http://www.w3.org/2000/svg" width="32" height="32" viewBox="0 0 32 32"><path d="M32 16a16 16 0 1 1-32 0 16 16 0 0 1 32 0z" fill="#eab300"/><g fill="#fff"><path d="M10.08 9.12l.49.25c.27.14.8.3 1.16.35 1.34.24 2.04.4 2.59.65l.56.25.6-.2a3.93 3.93 0 0 1 3.38.46c.24.18.47.32.5.32.03 0 .06-.12.06-.28 0-.65.71-.97 1.04-.46.22.32.16 1.64-.07 1.87-.15.14-.15.21 0 .65.08.34.12.76.08 1.31 0 .45 0 .83.05.83s.15-.18.24-.4c.08-.2.26-.48.39-.58.15-.11.26-.35.32-.63.05-.26.17-.55.26-.66.13-.14.19-.37.2-.73 0-.3.09-.63.17-.76.13-.21.17-.38.3-1.64.07-.5.06-.56-.3-1.06-.38-.54-.66-.78-.77-.68-.04.03-.01.15.04.27.09.15.09.18 0 .14-.08-.02-.2-.18-.3-.35-.07-.18-.3-.4-.48-.5-.36-.17-.5-.08-.25.18.26.27.18.36-.14.12-.16-.12-.29-.27-.29-.33 0-.24-.59-.62-.96-.62h-.35l.22.2c.12.12.21.23.18.24-.08.08-.56-.21-.63-.37-.09-.27-.52-.57-.86-.57-.42 0-.48.09-.22.3l.22.17-.3-.04a1.32 1.32 0 0 1-.54-.3c-.36-.32-1.27-.41-1.27-.13 0 .05.1.1.23.15.2.06.18.08-.11.12-.2.02-.4-.01-.49-.1-.23-.2-.68-.27-1.02-.15-.3.11-.37.27-.13.27.08 0 .15.05.15.1 0 .14-.55.22-.78.1a1.1 1.1 0 0 0-.94.03c-.3.13-.32.37-.02.37.2 0 .19.02-.09.18-.2.13-.47.18-.8.18-.36-.02-.53.03-.7.17-.23.2-.3.65-.07.45.07-.06.16-.07.2-.04.03.05-.11.27-.34.48z"/><path d="M11.22 11.68c1.15.3 1.78.53 1.88.68.03.06-.14.15-.36.2-.64.18-.67.19-.67.35 0 .1.09.15.27.15.3 0 1.05.3 1.15.49.04.07-.05.05-.23-.04-.47-.25-1.08-.2-1.44.09l-.3.24.35.3c.32.27.33.29.17.46-.17.2-.23.52-.08.52.06 0 .13-.05.16-.1.05-.08.13-.06.24.05.14.11.17.25.13.5-.04.26-.02.33.1.33.09 0 .17.08.22.18.05.2.44.4.72.4.1 0 .38-.12.62-.3.52-.33.85-.33.67 0-.06.12-.15.21-.2.21-.06 0-.1.04-.1.1 0 .2.5.09.79-.18l.3-.27-.14-.53c-.07-.27-.2-.56-.3-.61-.1-.06-.16-.05-.16.02 0 .18-.26.1-.52-.17-.25-.27-.36-.62-.18-.62.13 0 .31.24.31.43 0 .09.04.15.1.12.04-.03.26-.03.48 0 .37.07.4.08.5.57.07.27.32.9.56 1.37.23.47.44 1 .44 1.16 0 .32-.26.66-.51.66s-.64-.33-.99-.83c-.44-.65-.68-.52-.33.18.56 1.08 1.52 1.57 2.08 1.05.46-.43.41-1.22-.17-2.56-.4-.94-.49-1.48-.3-1.76.1-.12.1-.11.06.03-.09.24.3.23.45 0 .09-.15.16-.19.24-.1.07.05.14.03.23-.06.09-.11.16-.12.3-.03.18.1.23.1.37-.1.15-.22.19-.22.3-.1.2.25.4.21.4-.06 0-.13.06-.24.13-.22.52.01.62-.16.17-.32-.19-.06-.32-.2-.36-.35-.03-.15-.12-.25-.23-.25-.22 0-.36-.36-.21-.52.06-.06.42-.11.8-.11.86 0 1-.13 1.05-.9.02-.32 0-.63-.06-.72-.16-.23-.3 0-.3.47 0 .65-.12.73-1.07.71h-.79l-.27.33c-.37.48-.77.7-.98.54a1.29 1.29 0 0 0-.55-.15h-.42l-.02-.58c-.04-.67-.14-.83-.51-.83-.15 0-.46-.12-.71-.25a5.8 5.8 0 0 0-2.25-.68c-1.47-.23-2.46-.68-2.93-1.35-.35-.48-.63-.24-.35.3.35.7 1.34 1.18 2.67 1.33 1.38.15 2.63.54 2.42.76-.09.07-.28.03-.74-.15a6.24 6.24 0 0 0-1.71-.35c-1.62-.16-2.45-.46-3.11-1.17-.57-.6-.74-.29-.25.43.53.77 1.2 1.14 2.97 1.6zm6.2 1.65c.06-.09.54 0 .67.13.05.05.02.1-.08.15-.2.08-.67-.15-.59-.28zm-3-.35c.47-.14.57-.14.65 0 .08.13-.22.37-.45.37a.67.67 0 0 1-.35-.13c-.18-.14-.17-.15.15-.24z"/><path d="M26.8 12.84c-.1.17-.1.2.02.16.16-.07.74.48.74.7 0 .16-.16.2-.25.04-.05-.08-.11-.06-.2 0-.07.07-.18.1-.24.06-.06-.05-.21-.05-.35-.01l-.24.06.29.27c.4.39.54 1.1.2 1.1-.06 0-.08-.06-.05-.1.04-.06-.03-.1-.13-.1-.11 0-.28-.11-.37-.26a1.33 1.33 0 0 0-.44-.38c-.24-.13-.27-.12-.42.1-.09.12-.12.3-.1.38.04.1.01.16-.07.16-.44 0-.76-.8-.43-1.08.13-.1.13-.14.03-.2a.57.57 0 0 0-.27-.1c-.12 0-.14.16-.12.9a7.6 7.6 0 0 1-6.67 7.78c-.3.05-.39.12-.56.47a2.28 2.28 0 0 1-.51.64l-.33.21-.05-.26c-.02-.15-.08-.27-.12-.26a.43.43 0 0 1-.18.04c-.04 0-.09.08-.09.2 0 .2-.33.58-.49.58-.05 0-.1-.1-.1-.2 0-.22-.06-.24-.36-.07l-.22.13.3.16c.14.1.32.26.38.36.14.27.06 1.27-.13 1.45-.13.14-.15.13-.21-.2-.05-.23-.13-.36-.22-.36-.1 0-.26-.09-.38-.2l-.21-.2-.38.2c-.48.23-.56.33-.8.94-.13.35-.23.5-.4.51-.11.03-.2.1-.2.19s-.07.13-.12.11c-.07-.03-.18-.29-.23-.6l-.08-.58.43-.42.42-.44h-.66c-.54 0-.67.04-.75.2-.07.13-.2.2-.39.2-.26 0-.3.04-.3.26 0 .18-.03.24-.1.16-.14-.14-.29-.8-.22-.98.09-.23.71-.54 1.24-.62l.5-.07-.56-.25c-.3-.15-.57-.32-.57-.38 0-.07-.1-.08-.29-.05-.27.05-.3.05-.2-.13.13-.23.47-.43.6-.35.05.03.1.01.14-.04.15-.24.58-.1 1 .33.23.25.43.45.45.45.02 0 .02-.14 0-.3-.03-.2-.13-.34-.28-.41-.15-.07-.23-.2-.23-.33 0-.23-.2-.36-.47-.27-.12.04-.1-.02.07-.17.16-.13.3-.17.44-.14.1.04.33.09.47.12a.71.71 0 0 1 .43.28l.09.16.21.34.15.27.19-.54c.1-.3.14-.54.09-.56a17.8 17.8 0 0 1-1.97-1c-.16-.1-.35-.2-.46-.2-.17.01-.17.01 0 .14.09.07.17.16.17.2 0 .09-.38.06-.61-.05-.2-.11-.56-.8-.57-1.12 0-.11-.14-.36-.3-.54L9.9 19l.06.3c.05.27.03.34-.08.34-.2 0-.43-.45-.56-1.1v-.05a27.5 27.5 0 0 0-.16-.68c-.02-.15-.08-.2-.17-.18-.34.13-.5-.93-.27-1.91.05-.25.06-.48.03-.53-.12-.11.05-.67.37-1.33.14-.3.26-.62.23-.7-.05-.24.89-1.17 1.17-1.17.25 0 1.25.25 1.34.33.02.04-.03.14-.12.24a.59.59 0 0 0-.16.36c0 .09-.14.33-.32.55l-.3.38.27.28c.22.24.25.34.2.63-.08.41.08.76.35.76.13 0 .2.06.2.2 0 .3.82 1.24 1.15 1.3.14.03.42 0 .62-.07l.35-.13.11.47a3.9 3.9 0 0 0 1.3 1.9c.31.23.53.3.88.3.6 0 .89-.22 1.39-1.03.39-.65 1.06-1.37 1.31-1.37.1 0 .13.08.1.33-.08.34.08.59.19.31.03-.08.13-.16.2-.16.15 0 .33-.38.33-.7 0-.26.37-1.06.5-1.06.05 0 .09.12.09.25 0 .23.02.24.22.18h.04c.1-.03.15-.05.18-.09.07-.06.08-.2.1-.6v-.06c.03-.63.17-1.05.35-1.05.05 0 .09.09.09.2 0 .17.03.18.17.1.14-.08.17-.22.17-.76 0-.76.1-1.04.3-.77.1.13.14.14.24 0 .1-.12.1-.24 0-.6-.1-.44-.05-1.1.11-1.1a.09.09 0 0 1 .09.08c0 .06.04.1.09.1s.07-.25.03-.61c-.06-.66.01-1.15.16-1.15.05 0 .12.15.15.34.04.18.15.4.25.49a2 2 0 0 1 .33.53c.1.22.29.42.46.48.16.09.5.34.78.58l.49.44v-.39c0-.33.05-.42.33-.6.17-.1.32-.16.33-.13l.07.34c.06.24.1.27.5.27.41 0 .66.15.47.29a.85.85 0 0 0-.2.27zm-17.08-1.1c0-.03-.22-.17-.5-.3l-.47-.25-.25.42c-.13.22-.36.75-.5 1.17a5 5 0 0 1-.5 1.03l-.22.27-.02-.3c0-.16-.06-.4-.15-.52-.2-.26-.62-.3-.7-.02-.05.24-.13.25-.3.08-.1-.08-.12-.06-.12.13 0 .35.18.48.65.48.5 0 .66.18.21.25-.39.08-.8-.07-.97-.35-.17-.27-.25-.24-.43.1-.21.42-.18.65.14 1 .27.3.33.32.87.32.66 0 .7.1.13.26-.32.09-.45.09-.76-.07-.5-.26-.75-.62-.75-1.12 0-.44-.1-.47-.4-.09-.26.37-.32.98-.11 1.4.21.47.53.68 1.12.75.4.06.43.07.19.14a.77.77 0 0 1-.58-.08c-.38-.18-.45-.15-.3.18.15.36.72.59 1.23.5.84-.13 1.15-.5 1.65-1.97a10.57 10.57 0 0 1 1.84-3.42z"/><path d="M16.77 15.34c0-.2.02-.2.25-.1.32.14.59-.06.43-.32-.08-.16-.05-.2.1-.2.11 0 .24.06.26.14.08.2.36.07.3-.15-.07-.3.15-.21.54.18.38.36.53.86.23.75-.1-.03-.14 0-.14.16 0 .18-.05.2-.24.16-.2-.05-.23-.01-.3.24-.06.34-.3.39-.4.08-.05-.12-.12-.18-.22-.16l-.21.06-.09.02c-.18.06-.5-.53-.5-.86z"/></g></svg>