<svg height="512pt" viewBox="-58 0 512 512.001" width="512pt" xmlns="http://www.w3.org/2000/svg"><path d="m197.914062 265.476562c-32.898437 0-59.667968 26.765626-59.667968 59.667969 0 32.898438 26.769531 59.667969 59.667968 59.667969 32.902344 0 59.667969-26.765625 59.667969-59.667969 0-32.902343-26.765625-59.667969-59.667969-59.667969zm15 74.667969h-30v-30h30zm0 0"/><path d="m395.777344 347.957031c-.757813-29.929687-9.859375-58.96875-26.332032-83.96875l-79.691406-120.988281h36.160156v-30h-46.640624c19.390624-29.121094 29.640624-63.007812 29.640624-98v-15h-96v53.332031h-30v-53.332031h-96v15c0 35.027344 10.269532 68.945312 29.699219 98.089844l4.609375 6.914062-94.839844 143.984375c-16.472656 25.003907-25.574218 54.039063-26.3320308 83.96875-.7578122 29.933594 6.8710938 59.390625 22.0585938 85.195313 28.621094 48.632812 81.457031 78.847656 137.890625 78.847656h75.828125c56.433594 0 109.269531-30.210938 137.894531-78.847656 15.183594-25.804688 22.8125-55.265625 22.054688-85.195313zm-108.195313-22.8125c0 10.96875-1.984375 21.488281-5.605469 31.210938l20.269532 11.703125-15 25.980468-20.308594-11.726562c-13.425781 16.183594-32.425781 27.582031-54.023438 31.234375v23.40625h-30v-23.40625c-21.597656-3.652344-40.597656-15.050781-54.023437-31.234375l-20.304687 11.726562-15-25.980468 20.269531-11.703125c-3.625-9.726563-5.609375-20.242188-5.609375-31.210938 0-10.972656 1.988281-21.488281 5.609375-31.210937l-20.269531-11.703125 15-25.980469 20.304687 11.722656c13.425781-16.183594 32.425781-27.582031 54.023437-31.234375v-23.402343h30v23.402343c21.597657 3.652344 40.597657 15.050781 54.023438 31.234375l20.308594-11.722656 15 25.980469-20.269532 11.703125c3.621094 9.722656 5.605469 20.238281 5.605469 31.210937zm0 0"/></svg>