<?xml version="1.0" encoding="iso-8859-1"?>
<!-- Generator: Adobe Illustrator 19.1.0, SVG Export Plug-In . SVG Version: 6.00 Build 0)  -->
<svg version="1.1" id="Capa_1" xmlns="http://www.w3.org/2000/svg" xmlns:xlink="http://www.w3.org/1999/xlink" x="0px" y="0px"
	 viewBox="0 0 488.625 488.625" style="enable-background:new 0 0 488.625 488.625;" xml:space="preserve">
<g>
	<g>
		<path d="M85.275,122.013c0.5,1.9,2.9,2.6,4.4,1.2l8.9-8.9l28,28c1.3-1.5,2.6-3,4-4.5c4.6-4.9,9.5-9.4,14.6-13.6l-28.2-28.2
			l8.9-8.9c1.4-1.4,0.8-3.9-1.2-4.4l-49.4-13.2c-1.9-0.5-3.7,1.3-3.2,3.2L85.275,122.013z"/>
		<path d="M220.575,49.413h12.5v39.6c3.7-0.3,7.4-0.5,11.2-0.5c5,0,9.9,0.3,14.8,0.7v-39.8h12.5c2,0,3.3-2.2,2.3-3.9l-25.5-44.2
			c-1-1.7-3.5-1.7-4.5,0l-25.5,44.2C217.375,47.213,218.575,49.413,220.575,49.413z"/>
		<path d="M88.475,244.312c0-5,0.2-9.9,0.7-14.8h-39.8v-12.5c0-2-2.2-3.3-3.9-2.3l-44.2,25.5c-1.7,1-1.7,3.5,0,4.5l44.2,25.5
			c1.7,1,3.9-0.3,3.9-2.3v-12.5h39.6C88.675,251.812,88.475,248.112,88.475,244.312z"/>
		<path d="M364.375,145.113l28.2-28.2l8.9,8.9c1.4,1.4,3.9,0.8,4.4-1.2l13.2-49.3c0.5-1.9-1.3-3.7-3.2-3.2l-49.3,13.2
			c-1.9,0.5-2.6,2.9-1.2,4.4l8.9,8.9l-28,28C352.775,132.312,358.875,138.512,364.375,145.113z"/>
		<path d="M403.275,366.612c-0.5-1.9-2.9-2.6-4.4-1.2l-8.9,8.9l-28-28c-5.7,6.5-11.9,12.6-18.5,18.2l28.2,28.2l-8.9,8.9
			c-1.4,1.4-0.8,3.9,1.2,4.4l49.3,13.2c1.9,0.5,3.7-1.3,3.2-3.2L403.275,366.612z"/>
		<path d="M124.175,343.513l-28.2,28.2l-8.9-8.9c-1.4-1.4-3.9-0.8-4.4,1.2l-13.2,49.3c-0.5,1.9,1.3,3.7,3.2,3.2l49.3-13.2
			c1.9-0.5,2.6-2.9,1.2-4.4l-8.9-8.9l28-28C135.775,356.312,129.675,350.112,124.175,343.513z"/>
		<path d="M487.275,243.913l-44.2-25.5c-1.7-1-3.9,0.3-3.9,2.3v12.5h-39.6c0.3,3.7,0.4,7.4,0.4,11.1c0,5-0.3,9.9-0.7,14.8h39.9v12.5
			c0,2,2.2,3.3,3.9,2.3l44.2-25.5C489.075,247.413,489.075,244.913,487.275,243.913z"/>
		<path d="M267.975,439.212h-12.5v-39.6c-3.7,0.3-7.4,0.4-11.1,0.4c-5,0-9.9-0.3-14.8-0.7v39.9h-12.5c-2,0-3.3,2.2-2.3,3.9
			l25.5,44.2c1,1.7,3.5,1.7,4.5,0l25.5-44.2C271.175,441.413,269.975,439.212,267.975,439.212z"/>
		<path d="M244.275,113.413c-37.7,0-71.7,15.9-95.5,41.4c-21.9,23.4-35.3,54.8-35.3,89.4c0,72.3,58.6,130.9,130.9,130.9
			s130.9-58.6,130.9-130.9C375.175,172.012,316.575,113.413,244.275,113.413z M281.875,295.913c-5.7,6.9-13.1,11.6-21.8,14
			c-3.8,1-5.5,3-5.3,7c0.2,3.9,0,7.7,0,11.6c0,3.5-1.8,5.3-5.2,5.4c-4.2,0.1-8.3,0.1-12.5,0c-3.6-0.1-5.4-2.1-5.4-5.7
			c0-2.8,0-5.6-0.1-8.5c-0.1-6.2-0.3-6.5-6.3-7.4c-7.7-1.2-15.2-3-22.2-6.4c-5.5-2.7-6.1-4-4.5-9.8c1.2-4.3,2.4-8.6,3.7-12.9
			c1.5-4.9,2.9-5.6,7.4-3.2c7.8,4,16,6.3,24.6,7.4c5.6,0.7,11,0.1,16.2-2.1c9.6-4.2,11.1-15.4,3-22c-2.8-2.3-5.9-4-9.2-5.4
			c-8.4-3.7-17.2-6.5-25.2-11.3c-12.9-7.7-21.1-18.4-20.2-34.1c1.1-17.8,11.1-28.9,27.4-34.8c6.7-2.4,6.8-2.3,6.8-9.4
			c0-2.4,0-4.8,0-7.1c0.1-5.3,1-6.2,6.3-6.4c1.6,0,3.3,0,4.9,0c11.2,0,11.2,0,11.3,11.2c0,7.9,0,8,8,9.2c6.1,0.9,11.9,2.7,17.5,5.2
			c3.1,1.4,4.3,3.5,3.3,6.8c-1.4,4.9-2.7,9.7-4.3,14.5c-1.5,4.5-2.9,5.2-7.3,3.1c-8.8-4.2-18-6-27.7-5.5c-2.5,0.1-5,0.5-7.4,1.5
			c-8.4,3.7-9.7,12.9-2.6,18.6c3.6,2.9,7.7,5,12,6.8c7.4,3.1,14.9,6,21.9,9.9C291.575,248.513,297.675,276.712,281.875,295.913z"/>
	</g>
</g>
<g>
</g>
<g>
</g>
<g>
</g>
<g>
</g>
<g>
</g>
<g>
</g>
<g>
</g>
<g>
</g>
<g>
</g>
<g>
</g>
<g>
</g>
<g>
</g>
<g>
</g>
<g>
</g>
<g>
</g>
</svg>
