<?xml version="1.0" encoding="iso-8859-1"?>
<!-- Generator: Adobe Illustrator 19.0.0, SVG Export Plug-In . SVG Version: 6.00 Build 0)  -->
<svg version="1.1" id="Capa_1" xmlns="http://www.w3.org/2000/svg" xmlns:xlink="http://www.w3.org/1999/xlink" x="0px" y="0px"
	 viewBox="0 0 512 512" style="enable-background:new 0 0 512 512;" xml:space="preserve">
<g>
	<g>
		<path d="M403.619,0H108.381c-16.569,0-30,13.431-30,30v452c0,16.569,13.431,30,30,30h295.238c16.569,0,30-13.431,30-30V30
			C433.619,13.431,420.188,0,403.619,0z M129.398,69.964c0-2.761,2.239-5,5-5h243.204c2.761,0,5,2.239,5,5v53.959
			c0,2.762-2.239,5.001-5,5.001H134.398c-2.761,0-5-2.239-5-5V69.964z M184.18,452.828c0,2.761-2.239,5-5,5h-44.782
			c-2.761,0-5-2.239-5-5v-44.782c0-2.761,2.239-5,5-5h44.782c2.761,0,5,2.239,5,5V452.828z M184.18,355.395c0,2.761-2.239,5-5,5
			h-44.782c-2.761,0-5-2.239-5-5v-44.782c0-2.761,2.239-5,5-5h44.782c2.761,0,5,2.239,5,5V355.395z M184.18,257.962
			c0,2.762-2.239,5-5,5h-44.782c-2.761,0-5-2.239-5-5V213.18c0-2.761,2.239-5,5-5h44.782c2.761,0,5,2.239,5,5V257.962z
			 M283.391,452.828c0,2.761-2.239,5-5,5h-44.782c-2.761,0-5-2.239-5-5v-44.782c0-2.761,2.239-5,5-5h44.782c2.761,0,5,2.239,5,5
			V452.828z M283.391,355.395c0,2.761-2.239,5-5,5h-44.782c-2.761,0-5-2.239-5-5v-44.782c0-2.761,2.239-5,5-5h44.782
			c2.761,0,5,2.239,5,5V355.395z M283.391,257.962c0,2.762-2.239,5-5,5h-44.782c-2.761,0-5-2.239-5-5V213.18c0-2.761,2.239-5,5-5
			h44.782c2.761,0,5,2.239,5,5V257.962z M382.602,452.828c0,2.761-2.239,5-5,5H332.82c-2.761,0-5-2.239-5-5v-44.782
			c0-2.761,2.239-5,5-5h44.782c2.761,0,5,2.239,5,5V452.828z M382.602,355.395c0,2.761-2.239,5-5,5H332.82c-2.761,0-5-2.239-5-5
			v-44.782c0-2.761,2.239-5,5-5h44.782c2.761,0,5,2.239,5,5V355.395z M382.602,257.962c0,2.762-2.239,5-5,5H332.82
			c-2.761,0-5-2.239-5-5V213.18c0-2.761,2.239-5,5-5h44.782c2.761,0,5,2.239,5,5V257.962z"/>
	</g>
</g>
<g>
</g>
<g>
</g>
<g>
</g>
<g>
</g>
<g>
</g>
<g>
</g>
<g>
</g>
<g>
</g>
<g>
</g>
<g>
</g>
<g>
</g>
<g>
</g>
<g>
</g>
<g>
</g>
<g>
</g>
</svg>
