<svg height="512pt" viewBox="0 -10 512.00046 512" width="512pt" xmlns="http://www.w3.org/2000/svg"><path d="m385.03125 87.808594c18.617188 5.902344 33.257812 20.542968 39.164062 39.164062 2.472657 7.792969 9.628907 13.027344 17.804688 13.027344s15.332031-5.234375 17.808594-13.03125c5.902344-18.617188 20.542968-33.257812 39.160156-39.160156 7.792969-2.472656 13.03125-9.628906 13.03125-17.808594s-5.238281-15.335938-13.03125-17.808594c-18.617188-5.902344-33.257812-20.542968-39.164062-39.164062-2.472657-7.792969-9.628907-13.027344-17.804688-13.027344s-15.332031 5.234375-17.808594 13.03125c-5.902344 18.617188-20.542968 33.257812-39.160156 39.160156-7.792969 2.472656-13.03125 9.628906-13.03125 17.808594s5.238281 15.335938 13.03125 17.808594zm0 0"/><path d="m212.421875 336.273438c-2.738281-14.097657-15.085937-24.273438-29.449219-24.273438h-124.945312c-14.363282 0-26.707032 10.175781-29.449219 24.273438l-28.429687 146.199218c-.960938 4.9375 2.824218 9.527344 7.855468 9.527344h224.992188c5.03125 0 8.816406-4.589844 7.855468-9.527344zm0 0"/><path d="m483.421875 336.273438c-2.738281-14.097657-15.085937-24.273438-29.449219-24.273438h-124.945312c-14.363282 0-26.707032 10.175781-29.449219 24.273438l-28.429687 146.199218c-.957032 4.9375 2.824218 9.527344 7.855468 9.527344h224.992188c5.03125 0 8.816406-4.589844 7.855468-9.527344zm0 0"/><path d="m143.503906 282h224.992188c5.03125 0 8.816406-4.589844 7.855468-9.527344l-28.429687-146.199218c-2.738281-14.097657-15.085937-24.273438-29.449219-24.273438h-124.945312c-14.363282 0-26.707032 10.175781-29.449219 24.273438l-28.429687 146.199218c-.960938 4.9375 2.824218 9.527344 7.855468 9.527344zm0 0"/></svg>