<svg xmlns="http://www.w3.org/2000/svg" viewBox="0 0 120.69 36.68"><defs><style>.cls-1{fill:#ea8640;}.cls-1,.cls-2,.cls-3{fill-rule:evenodd;}.cls-2{fill:#ec1c24;}.cls-3{fill:#929497;}</style></defs><title>albaraka</title><g id="Layer_2" data-name="Layer 2"><g id="Layer_1-2" data-name="Layer 1"><path class="cls-1" d="M91.87,8.72a8.72,8.72,0,1,1,16.4,4.14c-.13.23-7.68,12.79-7.68,12.79l-1.9-3.15,4.75-12.56a3.1,3.1,0,1,0-6-1.22V20.5C95.39,17,93,13,92.91,12.86a8.73,8.73,0,0,1-1-4.14"/><path class="cls-2" d="M120.69,27.81a8.72,8.72,0,1,1-16.4-4.14c.13-.23,7.68-12.8,7.68-12.8L113.86,14l-4.74,12.55a3.14,3.14,0,0,0-.25,1.23,3.1,3.1,0,0,0,6.2,0V16c2.1,3.49,4.5,7.51,4.57,7.64a8.63,8.63,0,0,1,1,4.14"/><path class="cls-3" d="M2.73,22.77a19.22,19.22,0,0,1,4.49-.18c2.29.23,4.36,1.21,4.36,5.28v7.06a4,4,0,0,0,.27,1.39H8.94l-.55-1.11C5.38,37.93,0,36.83,0,32.4s5.13-4.59,6.62-4.59H8.1v-.44c0-1.33-.91-2.21-2.87-2.24a8.35,8.35,0,0,0-2.5.3ZM8.1,33.05c-1.66,1.61-4.53.92-4.65-.72s1.18-2.15,2.48-2.15H8.1Zm5.11-15.49V31.74c0,3.12,2.14,4.87,6.06,4.65V33.8a2.25,2.25,0,0,1-2.57-2.44V17.56Zm25.6,5.21a19.33,19.33,0,0,1,4.5-.18c2.29.23,4.36,1.21,4.36,5.28v7.06a4,4,0,0,0,.27,1.39H45l-.55-1.11c-3,2.72-8.39,1.62-8.39-2.81s5.13-4.59,6.61-4.59h1.48v-.44c0-1.33-.9-2.21-2.86-2.24a8.46,8.46,0,0,0-2.51.3Zm5.37,10.28c-1.65,1.61-4.52.92-4.64-.72s1.18-2.15,2.47-2.15h2.17Zm5.29,3.27V27.13c0-3.11,2.44-5.28,7.07-4.34v2.64C54,24.59,53,25.94,53,27.52v8.8Zm8.94-13.55a19.22,19.22,0,0,1,4.49-.18c2.29.23,4.36,1.21,4.36,5.28v7.06a4,4,0,0,0,.27,1.39H64.62l-.55-1.11c-3,2.72-8.39,1.62-8.39-2.81s5.14-4.59,6.62-4.59h1.48v-.44c0-1.33-.91-2.21-2.86-2.24a8.39,8.39,0,0,0-2.51.3Zm5.37,10.28c-1.65,1.61-4.53.92-4.65-.72s1.18-2.15,2.48-2.15h2.17ZM25.89,28.31H28.7a2.72,2.72,0,0,1,2.91,2.63,2.86,2.86,0,0,1-3.1,2.58H25.89Zm0-7.81H28A2.41,2.41,0,0,1,30.43,23,2.47,2.47,0,0,1,28,25.45H25.89ZM22.4,17.59V36.44h6.28c7.29,0,8.6-8.65,2.83-10.23a4.09,4.09,0,0,0,2.32-4c0-3.16-2.79-4.59-5.47-4.59Zm62.43,5.18a19.33,19.33,0,0,1,4.5-.18c2.29.23,4.36,1.21,4.36,5.28v7.06A4,4,0,0,0,94,36.32H91.05l-.55-1.11c-3,2.72-8.39,1.62-8.39-2.81s5.13-4.59,6.61-4.59H90.2v-.44c0-1.33-.9-2.21-2.86-2.24a8.46,8.46,0,0,0-2.51.3ZM90.2,33.05c-1.65,1.61-4.52.92-4.64-.72s1.18-2.15,2.47-2.15H90.2ZM77.76,22.49h4L77,27.6l5.3,8.72H78.44L74.7,30l-2.19,2.32v4H69.32V17.47h3.19V28.18Z"/></g></g></svg>