<svg xmlns="http://www.w3.org/2000/svg" viewBox="0 0 108.68 27.2"><defs><style>.cls-1{fill:#7c0741;}.cls-2{fill:#fff;}.cls-3{fill:#7b043f;}</style></defs><title>alternatifbank</title><g id="Layer_2" data-name="Layer 2"><g id="Layer_1-2" data-name="Layer 1"><polygon class="cls-1" points="7.98 10.04 3.8 10.04 6.23 3.73 9.94 12.77 12.63 12.64 7.68 0.06 5.01 0.04 0 12.72 7.01 12.7 7.98 10.04"/><rect class="cls-1" x="13.53" y="0.01" width="2.47" height="12.67"/><path class="cls-1" d="M18.14,2l2.43-.38.08,2.6,2.1,0V6.29l-2.14.08.09,3.2s-.17,1.79,2.05.9l.08,2s-3.54,1.84-4.61-2l-.08-4.1L17,6.33V4.2h1.11Z"/><path class="cls-1" d="M59,2l2.44-.38.08,2.6,2.09,0V6.29l-2.13.08.08,3.2s-.17,1.79,2,.9l.09,2s-3.54,1.84-4.61-2L59,6.37l-1.11,0V4.2H59Z"/><path class="cls-1" d="M26.29,9.1h5.54l.09-1.53a3.71,3.71,0,0,0-4-3.5c-3.8,0-4.27,3.5-4.22,4.61s1,5.71,7.81,3.45L31.49,10S27.65,12.26,26.29,9.1Z"/><path class="cls-2" d="M26.37,7.52h3.25S29.42,6,28.08,6A1.54,1.54,0,0,0,26.37,7.52Z"/><path class="cls-1" d="M32.86,4.84l0,7.93h2.56V7.57s.55-1.71,3.15-1.07l.09-2.35s-1.62-.81-3.37,1V4.24Z"/><path class="cls-1" d="M39.47,4.75v7.84H42V7.65a1.42,1.42,0,0,1,1.41-1.32c1.28,0,1.32.81,1.37,1.32s0,5,0,5l2.55,0V7a2.79,2.79,0,0,0-2.86-3A3.1,3.1,0,0,0,42,5.05l0-.85Z"/><path class="cls-1" d="M55.73,19.17V27H58.3V22.08s.13-1.37,1.41-1.33,1.32.81,1.36,1.33,0,4.93,0,4.93h2.53l.06-5.62a2.8,2.8,0,0,0-2.86-3,3.1,3.1,0,0,0-2.56,1.11l0-.85Z"/><path class="cls-1" d="M54.92,4.6l1.79-.4,0,8.47-2.49,0,0-.45a3.6,3.6,0,0,1-2.26.66c-1.41,0-3.69-1.2-3.69-4.46A4.21,4.21,0,0,1,52.49,4,4.26,4.26,0,0,1,54.92,4.6Z"/><path class="cls-2" d="M54.19,6.59l0,3.77a2.24,2.24,0,0,1-1.65.36c-1.15-.08-1.77-1.36-1.68-2.53a2,2,0,0,1,2-2C54.15,6.09,54.19,6.59,54.19,6.59Z"/><path class="cls-1" d="M53,18.85l1.79-.4,0,8.47-2.5,0,0-.45a3.64,3.64,0,0,1-2.27.66c-1.4,0-3.69-1.19-3.69-4.46a4.23,4.23,0,0,1,4.18-4.37A4.36,4.36,0,0,1,53,18.85Z"/><path class="cls-2" d="M52.23,20.84l0,3.77a2.26,2.26,0,0,1-1.64.37c-1.15-.09-1.77-1.37-1.69-2.54a2,2,0,0,1,2-2C52.19,20.35,52.23,20.84,52.23,20.84Z"/><rect class="cls-1" x="64.48" y="4.24" width="2.6" height="8.45"/><circle class="cls-1" cx="65.8" cy="1.59" r="1.45"/><path class="cls-1" d="M69.07,6.37l0,6.26,2.5,0V6.4l2-.06,0-2.11H71.62l0-1.25s.36-1.18,2-.54l0-2.19A6.77,6.77,0,0,0,72.19,0c-.67,0-3,.34-3,2.59V4.31H67.9V6.39Z"/><path class="cls-1" d="M36.22,14.43l0,12.57,5.06,0s4.13.08,4.15-3.48a2.81,2.81,0,0,0-2-3.07S45,20.05,45,17.66s-2-3.2-4-3.22Z"/><path class="cls-2" d="M39,16.7l0,2.64h1.89A1.25,1.25,0,0,0,42.13,18,1.19,1.19,0,0,0,41,16.66Z"/><path class="cls-2" d="M39,21.64v3.15l2.25,0s1.22,0,1.25-1.57a1.36,1.36,0,0,0-1.32-1.55Z"/><polygon class="cls-1" points="64.43 14.98 67 14.37 67.02 21.54 70.21 18.15 72.97 18.12 69.78 21.51 73.2 26.97 70.32 27.01 68.11 23.27 67.01 24.3 66.98 27.01 64.41 27.01 64.43 14.98"/><path class="cls-3" d="M103.35.66C99,2,96.86,4.41,97.09,7.75c.25,3.52,2.5,5.87,6.22,6.51-1.91,1.11-5.76.82-8.14-1.74a7.48,7.48,0,0,1-.71-9.16A7.37,7.37,0,0,1,103.35.66Z"/><path class="cls-3" d="M98.56,20.45c4.43-1.32,6.53-3.8,6.23-7.29a6.77,6.77,0,0,0-6.2-6.27c1.67-1.08,5.37-.92,7.77,1.32a7.49,7.49,0,0,1,1.21,9.35A7.36,7.36,0,0,1,98.56,20.45Z"/><path class="cls-3" d="M91.89,20.38A7.33,7.33,0,0,1,83.1,18a7.45,7.45,0,0,1,.46-9.35c2.3-2.59,6.17-2.95,8.24-1.79a6.77,6.77,0,0,0-4.35,2.06,6.53,6.53,0,0,0-1.89,4.41,6.56,6.56,0,0,0,1.72,4.78A6.88,6.88,0,0,0,91.89,20.38Z"/><path class="cls-3" d="M87,26.53c3.55-.54,6-2.91,6.26-6a6.66,6.66,0,0,0-1.53-5.07A6.84,6.84,0,0,0,87,13a7.26,7.26,0,0,1,8.5,2,7.4,7.4,0,0,1,.11,9.3A7.29,7.29,0,0,1,87,26.53Z"/><rect class="cls-3" x="77.49" width="0.51" height="27.2"/></g></g></svg>