<svg xmlns="http://www.w3.org/2000/svg" viewBox="0 0 119.3 37.05"><defs><style>.cls-1{fill:#0f7ad1;}.cls-1,.cls-2{fill-rule:evenodd;}.cls-2{fill:#231f20;}.cls-3{fill:none;stroke:#231f20;stroke-miterlimit:3.86;stroke-width:0.06px;}</style></defs><title>anadolubank</title><g id="Layer_2" data-name="Layer 2"><g id="Layer_1-2" data-name="Layer 1"><path class="cls-1" d="M92.15,0h4.14a5.59,5.59,0,0,1,5.59,5.59v9.73H92.15a5.59,5.59,0,0,1-5.59-5.59V5.59A5.59,5.59,0,0,1,92.15,0Z"/><path class="cls-2" d="M113.41,20.51h-4.14a5.59,5.59,0,0,1-5.59-5.59V5.19h9.73A5.59,5.59,0,0,1,119,10.78v4.14A5.59,5.59,0,0,1,113.41,20.51Z"/><path class="cls-2" d="M7.16,33.14H2.73L5,26.87Zm2.67,3.78L5.48,25.05H4.41L0,36.92H1.39l1-2.68H7.53l1,2.68Z"/><path class="cls-3" d="M7.16,33.14H2.73L5,26.87Zm2.67,3.78L5.48,25.05H4.41L0,36.92H1.39l1-2.68H7.53l1,2.68Z"/><polygon class="cls-2" points="20.49 36.92 20.49 25.05 19.22 25.05 19.22 34.54 12.91 25.05 11.71 25.05 11.71 36.92 12.98 36.92 12.98 27.4 19.29 36.92 20.49 36.92"/><polygon class="cls-3" points="20.49 36.92 20.49 25.05 19.22 25.05 19.22 34.54 12.91 25.05 11.71 25.05 11.71 36.92 12.98 36.92 12.98 27.4 19.29 36.92 20.49 36.92"/><path class="cls-2" d="M29.49,33.14H25.06l2.23-6.27Zm2.67,3.78L27.81,25.05H26.74L22.37,36.92h1.35l1-2.68h5.19l.95,2.68Z"/><path class="cls-3" d="M29.49,33.14H25.06l2.23-6.27Zm2.67,3.78L27.81,25.05H26.74L22.37,36.92h1.35l1-2.68h5.19l.95,2.68Z"/><path class="cls-2" d="M41,30.85c0,1.45,0,3.22-.79,4.07a3.1,3.1,0,0,1-2.33.87H35.31V26.18H37.9a3.1,3.1,0,0,1,2.33.87C41.05,27.9,41,29.4,41,30.85Zm1.26,0c0-1.65.07-3.47-1.16-4.7a4.15,4.15,0,0,0-3-1.1H34.05V36.92h4.06a4.15,4.15,0,0,0,3-1.1C42.35,34.59,42.28,32.5,42.28,30.85Z"/><path class="cls-3" d="M41,30.85c0,1.45,0,3.22-.79,4.07a3.1,3.1,0,0,1-2.33.87H35.31V26.18H37.9a3.1,3.1,0,0,1,2.33.87C41.05,27.9,41,29.4,41,30.85Zm1.26,0c0-1.65.07-3.47-1.16-4.7a4.15,4.15,0,0,0-3-1.1H34.05V36.92h4.06a4.15,4.15,0,0,0,3-1.1C42.35,34.59,42.28,32.5,42.28,30.85Z"/><path class="cls-2" d="M51.82,31c0,2.49-.08,3.29-.83,4.06a2.9,2.9,0,0,1-2.05.85,2.86,2.86,0,0,1-2-.85c-.75-.77-.84-1.57-.84-4.06s.09-3.28.84-4.05a2.86,2.86,0,0,1,2-.85,2.9,2.9,0,0,1,2.05.85C51.74,27.7,51.82,28.5,51.82,31Zm1.27,0c0-2.51,0-3.68-1.12-4.8a4.36,4.36,0,0,0-6.07,0c-1.11,1.12-1.11,2.29-1.11,4.8s0,3.69,1.11,4.81a4.36,4.36,0,0,0,6.07,0C53.09,34.67,53.09,33.5,53.09,31Z"/><path class="cls-3" d="M51.82,31c0,2.49-.08,3.29-.83,4.06a2.9,2.9,0,0,1-2.05.85,2.86,2.86,0,0,1-2-.85c-.75-.77-.84-1.57-.84-4.06s.09-3.28.84-4.05a2.86,2.86,0,0,1,2-.85,2.9,2.9,0,0,1,2.05.85C51.74,27.7,51.82,28.5,51.82,31Zm1.27,0c0-2.51,0-3.68-1.12-4.8a4.36,4.36,0,0,0-6.07,0c-1.11,1.12-1.11,2.29-1.11,4.8s0,3.69,1.11,4.81a4.36,4.36,0,0,0,6.07,0C53.09,34.67,53.09,33.5,53.09,31Z"/><polygon class="cls-2" points="63.38 36.92 63.38 35.79 57.31 35.79 57.31 25.05 56.04 25.05 56.04 36.92 63.38 36.92"/><polygon class="cls-3" points="63.38 36.92 63.38 35.79 57.31 35.79 57.31 25.05 56.04 25.05 56.04 36.92 63.38 36.92"/><path class="cls-2" d="M73.69,33V25.05H72.42V32.9a2.88,2.88,0,1,1-5.75,0V25.05H65.4v8a4.15,4.15,0,0,0,8.29,0Z"/><path class="cls-3" d="M73.69,33V25.05H72.42V32.9a2.88,2.88,0,1,1-5.75,0V25.05H65.4v8a4.15,4.15,0,0,0,8.29,0Z"/><path class="cls-2" d="M83.81,33.6a2.13,2.13,0,0,1-2.38,2.19H78.19V31.44h3.24A2.12,2.12,0,0,1,83.81,33.6Zm-.18-5.37c0,1.42-1,2.07-2.34,2.07h-3.1V26.18h3.1C82.61,26.18,83.63,26.82,83.63,28.23Zm1.45,5.41a2.86,2.86,0,0,0-1.94-2.82,2.72,2.72,0,0,0,1.75-2.6c0-2-1.43-3.17-3.5-3.17H76.92V36.92h4.62C83.64,36.92,85.08,35.79,85.08,33.64Z"/><path class="cls-3" d="M83.81,33.6a2.13,2.13,0,0,1-2.38,2.19H78.19V31.44h3.24A2.12,2.12,0,0,1,83.81,33.6Zm-.18-5.37c0,1.42-1,2.07-2.34,2.07h-3.1V26.18h3.1C82.61,26.18,83.63,26.82,83.63,28.23Zm1.45,5.41a2.86,2.86,0,0,0-1.94-2.82,2.72,2.72,0,0,0,1.75-2.6c0-2-1.43-3.17-3.5-3.17H76.92V36.92h4.62C83.64,36.92,85.08,35.79,85.08,33.64Z"/><path class="cls-2" d="M93.63,33.14H89.2l2.23-6.27Zm2.67,3.78L92,25.05H90.88L86.51,36.92h1.35l1-2.68H94l1,2.68Z"/><path class="cls-3" d="M93.63,33.14H89.2l2.23-6.27Zm2.67,3.78L92,25.05H90.88L86.51,36.92h1.35l1-2.68H94l1,2.68Z"/><polygon class="cls-2" points="106.96 36.92 106.96 25.05 105.69 25.05 105.69 34.54 99.39 25.05 98.19 25.05 98.19 36.92 99.45 36.92 99.45 27.4 105.76 36.92 106.96 36.92"/><polygon class="cls-3" points="106.96 36.92 106.96 25.05 105.69 25.05 105.69 34.54 99.39 25.05 98.19 25.05 98.19 36.92 99.45 36.92 99.45 27.4 105.76 36.92 106.96 36.92"/><polygon class="cls-2" points="119.25 36.92 114.98 29.63 118.72 25.05 117.17 25.05 111.63 31.87 111.63 25.05 110.36 25.05 110.36 36.92 111.63 36.92 111.63 33.6 114.13 30.6 117.75 36.92 119.25 36.92"/><polygon class="cls-3" points="119.25 36.92 114.98 29.63 118.72 25.05 117.17 25.05 111.63 31.87 111.63 25.05 110.36 25.05 110.36 36.92 111.63 36.92 111.63 33.6 114.13 30.6 117.75 36.92 119.25 36.92"/></g></g></svg>