<svg xmlns="http://www.w3.org/2000/svg" viewBox="0 0 95.96 32.39"><defs><style>.cls-1,.cls-4{fill:#0070af;}.cls-1{fill-rule:evenodd;}.cls-2{fill:#0099d8;}.cls-3{fill:#f79239;}</style></defs><title>burganbank</title><g id="Layer_2" data-name="Layer 2"><g id="Layer_1-2" data-name="Layer 1"><g id="Brandmark_C" data-name="Brandmark C"><g id="Logotype_C" data-name="Logotype C"><path class="cls-1" d="M46.9,8.62h2v5.1s-.19,1.36,1.93,1.36c.69,0,2.36.24,2.36-1.84V8.61h2v5.06s.25,2.76-4.39,2.76c-.79,0-4-.18-4-2.59Z"/><path class="cls-1" d="M75.67,8.61V10h-4.2a2.1,2.1,0,0,0-2.3,2.11c0,.37-.29,2.76,2,2.76h2.41V13.12H71V11.7h4.76v4.69h-4.2s-4.68.32-4.68-4A3.6,3.6,0,0,1,70.6,8.62Z"/><path class="cls-1" d="M63.58,13.13a2.16,2.16,0,0,0,1.9-2.21c0-2.38-3.07-2.3-3.07-2.3H57.14v7.77h2V13.34h2.35l2.18,3.05H66ZM62,11.91H59.16V10H62c1,0,1.39.45,1.39.92C63.41,12,62,11.91,62,11.91Z"/><path class="cls-1" d="M82.73,8.62H80.56l-4,7.77h2.21l.86-1.84h4.12l.88,1.84h2.26ZM80.3,13.11l1.34-2.85L83,13.11Z"/><path class="cls-1" d="M87.58,8.62h2.59L94,14.05V8.62H96v7.77H93.78l-4.17-5.67v5.67h-2Z"/><path class="cls-1" d="M43.5,12.44a1.88,1.88,0,0,0,1.39-1.8c0-1.45-1.47-2-2.73-2H36.35v7.77h5.4s3.12.16,3.12-2.07A1.85,1.85,0,0,0,43.5,12.44Zm-2-.72h-3.1V10h3.12c.71,0,1.15.38,1.15.79C42.64,11.79,41.47,11.72,41.47,11.72Zm0,3.16h-3.1v-1.7h3.12c.71,0,1.15.38,1.15.79C42.64,15,41.47,14.88,41.47,14.88Z"/><path class="cls-1" d="M66.36,19.17V27H68.4V23.16L72.13,27h2.63l-4-4.12,3.78-3.72H72.09L68.4,22.78V19.17Z"/><path class="cls-1" d="M51,19.17H48.85L44.79,27H47l.87-1.85h4.16L52.94,27h2.27ZM48.58,23.7l1.36-2.87L51.3,23.7Z"/><path class="cls-1" d="M55.92,19.17h2.62l3.87,5.48V19.17h2V27h-2.2L58,21.29V27h-2Z"/><path class="cls-1" d="M43.36,23a1.91,1.91,0,0,0,1.41-1.82c0-1.46-1.48-2-2.75-2H36.15V27H41.6s3.15.16,3.15-2.09A1.86,1.86,0,0,0,43.36,23Zm-2-.73H38.2V20.58h3.14c.72,0,1.16.39,1.16.8C42.5,22.37,41.32,22.3,41.32,22.3Zm0,3.18H38.2V23.77h3.14c.72,0,1.16.39,1.16.8C42.5,25.56,41.32,25.48,41.32,25.48Z"/></g><g id="Symbol_C" data-name="Symbol C"><path class="cls-2" d="M24.15.67l5.77,6.5.35.4c2.48,3.08-.41,10.26-6.55,16.67S10.28,34.23,7,31.39L0,25.82c1.34.84,3.67.42,6.45-1l.18-.09.1-.06a39.05,39.05,0,0,0,9.48-7.47,39.24,39.24,0,0,0,7.08-9.82.61.61,0,0,0,.05-.12s.05-.11.08-.17C24.7,4.3,25,2,24.15.67"/><path class="cls-3" d="M25,26.58c-1.6,1.68-2.05,3.85-1,4.85s3.2.45,4.81-1.23,2.06-3.85,1-4.85S26.56,24.89,25,26.58Z"/><path class="cls-4" d="M22.4.68C20-1.62,12.85,2.08,6.29,8.92c-.48.5-.94,1.07-1.39,1.62L10.81,16c.47-.57.85-1,1.38-1.54,3.17-3.3,6.47-5.88,9.49-6.91,1.49-3.14,2-5.67.72-6.87"/></g></g></g></g></svg>