<svg xmlns="http://www.w3.org/2000/svg" xmlns:xlink="http://www.w3.org/1999/xlink" viewBox="0 0 84.16 29.61"><defs><style>.cls-1{fill:url(#linear-gradient);}.cls-2{fill:#fff;}.cls-3{fill:#010101;}</style><linearGradient id="linear-gradient" y1="14.8" x2="29.61" y2="14.8" gradientUnits="userSpaceOnUse"><stop offset="0" stop-color="#419a45"/><stop offset="0.16" stop-color="#419a45"/><stop offset="0.26" stop-color="#4ca245"/><stop offset="0.53" stop-color="#63b344"/><stop offset="0.78" stop-color="#70bd44"/><stop offset="1" stop-color="#75c044"/></linearGradient></defs><title>cepteteb</title><g id="Layer_2" data-name="Layer 2"><g id="Layer_1-2" data-name="Layer 1"><path class="cls-1" d="M14.8,29.61a1.93,1.93,0,0,1-1-.28L3.92,23.41A2,2,0,0,1,3,22L0,2.27A2,2,0,0,1,.48.69,2,2,0,0,1,2,0H27.64a2,2,0,0,1,1.49.69,2,2,0,0,1,.46,1.58L26.63,22a2,2,0,0,1-.94,1.4l-9.87,5.92A1.94,1.94,0,0,1,14.8,29.61Z"/><path class="cls-2" d="M14.8,21.33A7.94,7.94,0,1,1,20.42,7.77L18.31,9.88a5,5,0,1,0,0,7L20.42,19A7.88,7.88,0,0,1,14.8,21.33Z"/><path class="cls-3" d="M38.27,9.84a3.13,3.13,0,0,1,2.26.87.18.18,0,0,1,0,.26l-.73.75a.15.15,0,0,1-.23,0,2,2,0,0,0-1.26-.47,1.91,1.91,0,0,0,0,3.82,2,2,0,0,0,1.25-.45.17.17,0,0,1,.24,0l.73.77a.18.18,0,0,1,0,.25,3.21,3.21,0,0,1-2.27.91,3.36,3.36,0,1,1,0-6.72Z"/><path class="cls-3" d="M42.59,10.11a.19.19,0,0,1,.18-.18h3.87a.18.18,0,0,1,.17.18v1a.17.17,0,0,1-.17.17H44.05v1.16h2.13a.19.19,0,0,1,.18.18v1a.18.18,0,0,1-.18.17H44.05V15.1h2.59a.17.17,0,0,1,.17.17v1a.18.18,0,0,1-.17.18H42.77a.19.19,0,0,1-.18-.18Z"/><path class="cls-3" d="M49,10.11a.18.18,0,0,1,.18-.18h2.25a2.08,2.08,0,1,1,0,4.16h-1v2.2a.18.18,0,0,1-.17.18h-1.1a.18.18,0,0,1-.18-.18Zm2.34,2.62a.74.74,0,0,0,.74-.74.72.72,0,0,0-.74-.69h-.89v1.43Z"/><path class="cls-3" d="M56.27,11.3H54.94a.17.17,0,0,1-.18-.17v-1a.18.18,0,0,1,.18-.18h4.14a.19.19,0,0,1,.18.18v1a.18.18,0,0,1-.18.17H57.75v5a.19.19,0,0,1-.18.18H56.45a.19.19,0,0,1-.18-.18Z"/><path class="cls-3" d="M61.13,10.11a.18.18,0,0,1,.17-.18h3.87a.19.19,0,0,1,.18.18v1a.18.18,0,0,1-.18.17H62.58v1.16h2.13a.19.19,0,0,1,.18.18v1a.17.17,0,0,1-.18.17H62.58V15.1h2.59a.18.18,0,0,1,.18.17v1a.19.19,0,0,1-.18.18H61.3a.18.18,0,0,1-.17-.18Z"/><path class="cls-3" d="M68.37,11.3H67a.17.17,0,0,1-.18-.17v-1A.18.18,0,0,1,67,9.93h4.14a.18.18,0,0,1,.18.18v1a.17.17,0,0,1-.18.17H69.85v5a.19.19,0,0,1-.18.18H68.55a.19.19,0,0,1-.18-.18Z"/><path class="cls-3" d="M73.23,10.11a.18.18,0,0,1,.17-.18h3.87a.19.19,0,0,1,.18.18v1a.18.18,0,0,1-.18.17H74.68v1.16h2.13a.19.19,0,0,1,.18.18v1a.18.18,0,0,1-.18.17H74.68V15.1h2.59a.18.18,0,0,1,.18.17v1a.19.19,0,0,1-.18.18H73.4a.18.18,0,0,1-.17-.18Z"/><path class="cls-3" d="M79.63,10.11a.19.19,0,0,1,.18-.18H82a1.88,1.88,0,0,1,2,1.74,1.84,1.84,0,0,1-1.08,1.47,1.79,1.79,0,0,1,1.25,1.52,1.91,1.91,0,0,1-2,1.81H79.81a.19.19,0,0,1-.18-.18Zm2.19,2.47a.67.67,0,0,0,.65-.67.63.63,0,0,0-.65-.63h-.73v1.3Zm.12,2.55a.68.68,0,0,0,.67-.68.75.75,0,0,0-.77-.65h-.75v1.33Z"/></g></g></svg>