<svg xmlns="http://www.w3.org/2000/svg" xmlns:xlink="http://www.w3.org/1999/xlink" viewBox="0 0 70.54 29.03"><defs><style>.cls-1{fill:url(#linear-gradient);}.cls-2{fill:url(#linear-gradient-2);}.cls-3{fill:url(#linear-gradient-3);}.cls-4{fill:url(#linear-gradient-4);}.cls-5{fill:url(#linear-gradient-5);}.cls-6{fill:url(#linear-gradient-6);}.cls-7{fill:#fff;}.cls-8{fill:#231f20;}</style><linearGradient id="linear-gradient" x1="14.52" y1="-0.71" x2="14.52" y2="29.93" gradientUnits="userSpaceOnUse"><stop offset="0" stop-color="#008053"/><stop offset="0.6" stop-color="#7fcaad"/><stop offset="1" stop-color="#00a66d"/></linearGradient><linearGradient id="linear-gradient-2" x1="14.47" y1="-7.21" x2="14.47" y2="27.23" gradientUnits="userSpaceOnUse"><stop offset="0" stop-color="#00a66d"/><stop offset="0.3" stop-color="#7fcaad"/><stop offset="0.55" stop-color="#00a66d"/><stop offset="0.84" stop-color="#008053"/><stop offset="0.89" stop-color="#00895c"/><stop offset="0.97" stop-color="#00a173"/><stop offset="1" stop-color="#00ac7d"/></linearGradient><linearGradient id="linear-gradient-3" x1="19.99" y1="25.33" x2="19.99" y2="3.04" gradientUnits="userSpaceOnUse"><stop offset="0" stop-color="#00b286"/><stop offset="1" stop-color="#00a66d"/></linearGradient><linearGradient id="linear-gradient-4" x1="6.16" y1="25.33" x2="6.16" y2="3.03" xlink:href="#linear-gradient-3"/><linearGradient id="linear-gradient-5" x1="10.47" y1="25.32" x2="10.47" y2="3.04" xlink:href="#linear-gradient-3"/><linearGradient id="linear-gradient-6" x1="14.19" y1="25.33" x2="14.19" y2="3.04" xlink:href="#linear-gradient-3"/></defs><title>TEB</title><g id="Layer_2" data-name="Layer 2"><g id="Layer_1-2" data-name="Layer 1"><rect class="cls-1" width="29.03" height="29.03"/><path class="cls-2" d="M28.14,14.69c0,6,.28,12.26.28,12.26a1.05,1.05,0,0,1-1,1.14H2.27c-.56,0-.95-.5-1-1.14A109.94,109.94,0,0,1,.53,13.56,72.17,72.17,0,0,1,1.25,1.65C1.34,1,1.71.51,2.27.51H27.4a1.09,1.09,0,0,1,1,1.14S28.14,8.63,28.14,14.69Z"/><path class="cls-3" d="M22.55,7.84c-1.8,1.05-2.35,1.14-4.3,2.31l.1-.22a20.7,20.7,0,0,0,2.14-2.57,44.44,44.44,0,0,0-6.28.72h0l.1-.2A26.74,26.74,0,0,1,20.75,6a22.45,22.45,0,0,0-4.37-2.61h0l.09-.2a20.64,20.64,0,0,1,7,2.26,10.49,10.49,0,0,1,2.28-.3s-.16.66-1.35,1.48h0c.3.79-.41,5.17-1,6.33h0C23.39,11.16,23.22,8.84,22.55,7.84Z"/><path class="cls-4" d="M9.43,23.54l.09-.21a7.62,7.62,0,0,1-2.68-1.39h0a8,8,0,0,1,1-1.87h0l.1-.2c-.82.12-1.56.42-2.27.56h0a13.4,13.4,0,0,1-1.06-3.61L4.49,17h0a12.19,12.19,0,0,0,0,3.67h0a13.8,13.8,0,0,0-1.59.38l-.09.2h0A19.74,19.74,0,0,0,5,22.51H5a7.54,7.54,0,0,0,1.7,2.4h0l.09-.2a4.68,4.68,0,0,1-.25-1.63h0A10.9,10.9,0,0,0,9.43,23.54Z"/><path class="cls-5" d="M12.08,9a10.08,10.08,0,0,0-.7,1.59h-.07a15.68,15.68,0,0,1,4.88,1.52l-.1.2h0a15.52,15.52,0,0,0-4.4-.29h0a3.56,3.56,0,0,0-1,.19h0a16.94,16.94,0,0,0-.91,3.52l-.09.21h0c-.43-1-1-3.06-1-3.06h0A31.49,31.49,0,0,0,4.75,16h0a15.43,15.43,0,0,1,3-4.32h0a5.13,5.13,0,0,0-2.86-.83h0l.09-.2a15.64,15.64,0,0,1,2.76-.3h0a14.19,14.19,0,0,1,1.63,0h0A8.1,8.1,0,0,1,12.08,9Z"/><path class="cls-6" d="M14.92,21.7c-.47.63-.87,1.13-1.39,1.71h0a9.69,9.69,0,0,1-2.38.14l-.1.21h0a6.27,6.27,0,0,0,1.61.55h0a12.94,12.94,0,0,1-1.47,1l-.1.2h0a11.48,11.48,0,0,0,3-1.12h0a5,5,0,0,0,1.22-.08h0l.09-.2c-.06-.2-.24-.33-.29-.62h0a19.91,19.91,0,0,0,2.13-1.93h0l.1-.21A17.9,17.9,0,0,1,15,22.87h0C15,22.48,14.94,22.14,14.92,21.7Z"/><path class="cls-7" d="M22.64,7.64c-1.79,1-2.34,1.14-4.29,2.3a20,20,0,0,0,2.23-2.78,42.74,42.74,0,0,0-6.27.72h0a25.19,25.19,0,0,1,6.54-2.06,22.52,22.52,0,0,0-4.38-2.6h0a18.93,18.93,0,0,1,7.11,2A12.09,12.09,0,0,1,25.87,5h0a3,3,0,0,1-1.36,1.47h0c.29.8-.42,5.17-1,6.33h0C23.48,11,23.32,8.64,22.64,7.64Z"/><path class="cls-7" d="M9.52,23.33a7,7,0,0,1-2.59-1.59h0a8,8,0,0,1,1-1.87h0c-.84.12-1.45.22-2.18.35h0a11.32,11.32,0,0,1-1.15-3.4h0a12.18,12.18,0,0,0,0,3.67h0a12.64,12.64,0,0,0-1.68.59h0a21.65,21.65,0,0,0,2.23,1.23h0a7.7,7.7,0,0,0,1.7,2.4h0a4.51,4.51,0,0,1-.15-1.83h0A10.83,10.83,0,0,0,9.52,23.33Z"/><path class="cls-7" d="M12.2,8.78h0a6,6,0,0,0-.79,1.55h0a13.16,13.16,0,0,1,4.78,1.73h0a16,16,0,0,0-4.41-.29h0a3.56,3.56,0,0,0-1,.19h0a18.7,18.7,0,0,0-1,3.72h0c-.42-1-1-3-1-3h0a30.87,30.87,0,0,0-3.87,3.16h0a15.56,15.56,0,0,1,3-4.32h0A5.16,5.16,0,0,0,5,10.64H5a11.41,11.41,0,0,1,2.85-.5h0a14.19,14.19,0,0,1,1.63,0h0A8.17,8.17,0,0,1,12.2,8.78Z"/><path class="cls-7" d="M15,21.5a20.74,20.74,0,0,1-1.39,1.71h0a8.5,8.5,0,0,1-2.47.34h0a5.71,5.71,0,0,0,1.61.56h0a10.7,10.7,0,0,1-1.57,1.21h0a11.61,11.61,0,0,0,3-1.12h0a6.17,6.17,0,0,0,1.21-.08h0a8.25,8.25,0,0,1-.2-.82h0a20.1,20.1,0,0,0,2.14-1.94h0a14.46,14.46,0,0,1-2.24,1.31h0C15.06,22.27,15,21.94,15,21.5Z"/><path class="cls-8" d="M46.64,9.27v1.65a34.49,34.49,0,0,0-3.71-.23c0,1.38-.07,3.18-.07,4,0,1,0,4.37.18,5.94H39.87c.16-1.57.19-5,.19-5.94,0-.79,0-2.59-.08-4a34.44,34.44,0,0,0-3.69.23V9.27Z"/><path class="cls-8" d="M57.53,9.27v1.65a41.28,41.28,0,0,0-4.72-.15c-.42,0-.76,0-1.36,0,0,1.06-.05,2.34-.05,3.23L55.54,14v1.71l-4.16-.09c0,1,0,2.41.08,3.57,2.14,0,4.26,0,6.38-.17V20.6H48.42c.15-1.57.16-4.94.16-5.92s-.06-4.1-.14-5.41Z"/><path class="cls-8" d="M65.79,9.27c2,0,4.16.74,4.16,2.62a2.83,2.83,0,0,1-2.39,2.51c2,.6,3,1.65,3,3.09,0,2.3-2.72,3.11-5.31,3.11H60c.15-1.49.18-3.63.18-5.94,0-1.55,0-3.9-.16-5.39ZM64,10.53a6.48,6.48,0,0,0-1,.07c-.06,1.5-.1,2.31-.1,4.06,0,2.06,0,2.91.08,4.58.38,0,1,0,1.32,0,2.18,0,3.27-.63,3.27-1.9,0-1.49-1.8-2-3.16-2h-.63l.63-1.6h.39c.92,0,2.23-.42,2.23-1.56S66.26,10.53,64,10.53Z"/></g></g></svg>