<svg xmlns="http://www.w3.org/2000/svg" viewBox="0 0 117.97 26.03"><defs><style>.cls-1{fill:#fff;}.cls-1,.cls-3{fill-rule:evenodd;}.cls-2{fill:#e43043;}.cls-3{fill:#006bb1;}</style></defs><title>denizbank</title><g id="Layer_2" data-name="Layer 2"><g id="Layer_1-2" data-name="Layer 1"><path class="cls-1" d="M95.3,11.31a9.93,9.93,0,0,1,1.61-3.94l-1.06-1a1.77,1.77,0,1,1,2.51-2.5l1,1a9.94,9.94,0,0,1,4-1.67V1.79a1.77,1.77,0,1,1,3.54,0V3.17a10,10,0,0,1,4,1.68l.94-.94a1.77,1.77,0,1,1,2.5,2.51l-1,1a10.07,10.07,0,0,1,1.6,3.94h1.11a1.77,1.77,0,1,1,0,3.54h-1.12a10,10,0,0,1-1.67,4l.84.85a1.77,1.77,0,1,1-2.5,2.5l-.87-.86a9.89,9.89,0,0,1-3.93,1.61v1.3a1.77,1.77,0,1,1-3.54,0V22.93a10,10,0,0,1-3.88-1.6l-1,1a1.77,1.77,0,1,1-2.5-2.5l.94-.95a9.85,9.85,0,0,1-1.68-4H93.73a1.77,1.77,0,1,1,0-3.54H95.3Z"/><path class="cls-2" d="M96.13,14.07H94a1.1,1.1,0,0,1-1.19-1,1.1,1.1,0,0,1,1.19-1h2.12A9,9,0,0,1,98,7.4L96.6,6a1.11,1.11,0,0,1-.15-1.54A1.11,1.11,0,0,1,98,4.56L99.43,6a9.07,9.07,0,0,1,4.74-2V2.06a1,1,0,1,1,2,0V4A9.1,9.1,0,0,1,111,6l1.33-1.33a1.11,1.11,0,0,1,1.54-.15,1.11,1.11,0,0,1-.14,1.55L112.34,7.4a9.06,9.06,0,0,1,1.91,4.69H116a1.11,1.11,0,0,1,1.19,1,1.11,1.11,0,0,1-1.19,1h-1.77a9,9,0,0,1-2,4.74l1.3,1.31a1,1,0,1,1-1.4,1.4l-1.32-1.32a9.16,9.16,0,0,1-4.69,1.92v1.94a1,1,0,1,1-2,0V22.11a9,9,0,0,1-4.63-1.9l-1.42,1.41a1,1,0,1,1-1.4-1.41l1.4-1.4a9.05,9.05,0,0,1-2-4.74Zm6.11-1.56a2.88,2.88,0,0,1,.44-1.09l-2.12-2.11a5.93,5.93,0,0,0-1.3,3.2Zm1.25-1.93a3,3,0,0,1,1-.43v-3a5.88,5.88,0,0,0-3.08,1.33l2.11,2.1Zm2.14-.49a3,3,0,0,1,1.3.53L109,8.52a5.86,5.86,0,0,0-3.42-1.4v3Zm2.1,1.38a3,3,0,0,1,.4,1h3a5.86,5.86,0,0,0-1.26-3.16l-2.12,2.11Zm.38,2.22a3,3,0,0,1-.45,1.05l2.11,2.1a5.88,5.88,0,0,0,1.33-3.15Zm-1.28,1.87a3,3,0,0,1-1.19.45v3a6,6,0,0,0,3.3-1.32l-2.11-2.11Zm-2.36.4a3,3,0,0,1-.87-.37l-2.12,2.12a5.89,5.89,0,0,0,3,1.25V16Zm-1.72-1.17a2.78,2.78,0,0,1-.49-1.11h-3a5.9,5.9,0,0,0,1.37,3.21l2.11-2.1Z"/><path class="cls-3" d="M20.88,18c.2-4.1-2-6.62-4.88-6.62-2.54,0-4.59,2.27-4.59,5.9s2.3,5.54,4.81,5.54A4.6,4.6,0,0,0,20.72,19H16.94c-.07.52-.37.91-.78.91-.81,0-.92-1-.92-1.87Zm12-7.36H36.3V7.28H32.84v3.37Zm-.21,11.93h3.88V11.64H32.63V22.58ZM0,22.58H5.22c3.32,0,5.7-2.93,5.7-7.54,0-5.71-2.92-8-6.72-8H0V22.58ZM4.12,10.83h.26c1.5,0,2.42,2,2.42,4.19s-1.06,3.72-2.42,3.72H4.12V10.83ZM64.28,22.58h4.16V11.64H64.28l.12,1.3h-.09A2.56,2.56,0,0,0,62,11.39c-2.53,0-3.47,3-3.47,5.77s1.2,5.67,3.37,5.67c1.09,0,1.73-.66,2.43-1.69h.09l-.12,1.44Zm-1.92-5.52c0-.8.39-2.13,1-2.13s1,1.24,1,2.09-.19,2.32-.93,2.32-1.11-1.42-1.11-2.28ZM51.36,13V10.8h.29c.6,0,1.37-.09,1.37,1S52.34,13,51.74,13Zm-4.17,9.58h6.47a3.91,3.91,0,0,0,4.15-4.29,3.73,3.73,0,0,0-2.26-3.68c1.66-.95,1.89-1.75,1.89-3.11,0-3.22-3.07-4.45-4.6-4.45H47.19V22.58Zm4.17-6.3h.41c.66,0,1.71,0,1.71,1.27s-1,1.32-1.65,1.32h-.47V16.28Zm28.77,6.3h4V17.09L86,22.58h4.69L87.71,16.5l2.87-4.86H86l-1.77,4.62L84,15.7V7.15H80.13V22.58ZM73.71,11.64H69.62V22.58H73.8V17.24c0-.63,0-1.54.65-1.54s.66.91.66,1.54v5.34H79V15.84c0-2.41-.78-4.45-2.77-4.45-1.24,0-1.81.81-2.57,2h-.09l.15-1.75ZM46,12.26v-.62H37.74v3.45h1.88L40.5,15V15l-3.15,6.81v.74h8.42V19.1H43.56l-.8.12V19.1l.83-2L46,12.26Zm-20-.62H22.18V22.58h3.87V17.24c0-.63,0-1.54.65-1.54s.66.91.66,1.54v5.34h3.88V15.84c0-2.41-.78-4.45-2.76-4.45-1.25,0-1.82.81-2.58,2h-.09L26,11.64Zm-10.72,4.1c0-.76.29-1.42.88-1.42s.94.68.94,1.42Z"/></g></g></svg>