<svg xmlns="http://www.w3.org/2000/svg" xmlns:xlink="http://www.w3.org/1999/xlink" viewBox="0 0 98.91 32.94"><defs><style>.cls-1{fill:none;}.cls-2{clip-path:url(#clip-path);}.cls-3{fill:#f89c1c;}.cls-4{fill:#00adee;}.cls-5{fill:#c6e9fa;}.cls-6{fill:#a955a0;}.cls-7{fill:#ffcd7b;}.cls-8{fill:#98c93c;}.cls-9{fill:#c4dd88;}.cls-10{fill:#d2b5d6;}.cls-11{fill:#fff;}</style><clipPath id="clip-path" transform="translate(0 0)"><rect class="cls-1" width="98.91" height="32.94"/></clipPath></defs><title>enpara</title><g id="Layer_2" data-name="Layer 2"><g id="Layer_1-2" data-name="Layer 1"><g class="cls-2"><path class="cls-3" d="M.27,16.47A16.45,16.45,0,0,1,6.38,6.39,16.43,16.43,0,0,1,16.45.27,16.65,16.65,0,0,0,13.51,0,16.34,16.34,0,0,0,3.45,3.45,16.4,16.4,0,0,0,0,13.53a16.74,16.74,0,0,0,.27,2.94" transform="translate(0 0)"/><path class="cls-4" d="M16.46,32.67A16.42,16.42,0,0,1,6.39,26.55,16.42,16.42,0,0,1,.27,16.47,16.83,16.83,0,0,0,0,19.41,16.4,16.4,0,0,0,3.45,29.49a16.35,16.35,0,0,0,10.07,3.45,16.83,16.83,0,0,0,2.94-.27" transform="translate(0 0)"/><path class="cls-5" d="M6.38,6.39A16.45,16.45,0,0,0,.27,16.47,16.42,16.42,0,0,0,6.39,26.55a16.47,16.47,0,0,1,0-20.16" transform="translate(0 0)"/><path class="cls-6" d="M16.45.27A16.4,16.4,0,0,1,26.52,6.39a16.42,16.42,0,0,1,6.12,10.08,15.92,15.92,0,0,0,.27-2.94A16.38,16.38,0,0,0,29.46,3.45,16.35,16.35,0,0,0,19.39,0a16.83,16.83,0,0,0-2.94.27" transform="translate(0 0)"/><path class="cls-7" d="M6.38,6.39a16.42,16.42,0,0,1,20.14,0A16.4,16.4,0,0,0,16.45.27,16.43,16.43,0,0,0,6.38,6.39" transform="translate(0 0)"/><path class="cls-8" d="M32.64,16.47a16.45,16.45,0,0,1-6.11,10.08,16.52,16.52,0,0,1-10.07,6.12,16.63,16.63,0,0,0,2.93.27,16.35,16.35,0,0,0,10.07-3.45,16.4,16.4,0,0,0,3.45-10.08,15.84,15.84,0,0,0-.27-2.94" transform="translate(0 0)"/><path class="cls-9" d="M6.39,26.55a16.42,16.42,0,0,0,10.07,6.12,16.49,16.49,0,0,0,10.07-6.12,16.46,16.46,0,0,1-20.14,0" transform="translate(0 0)"/><path class="cls-10" d="M26.53,26.55a16.45,16.45,0,0,0,6.11-10.08A16.42,16.42,0,0,0,26.52,6.39a16.47,16.47,0,0,1,0,20.16" transform="translate(0 0)"/><path class="cls-11" d="M6.38,6.39a16.47,16.47,0,0,0,0,20.16,16.46,16.46,0,0,0,20.14,0,16.47,16.47,0,0,0,0-20.16,16.42,16.42,0,0,0-20.14,0" transform="translate(0 0)"/><path class="cls-6" d="M17.5,11.05h1.69c.39,0,.51.16.52.53l.05.53a5.32,5.32,0,0,1,3.51-1.23,2.88,2.88,0,0,1,3.19,2.94v7.6c0,.39-.16.57-.55.57H24.13a.5.5,0,0,1-.57-.57V14.55c0-.79-.24-1.17-1.19-1.17a4.5,4.5,0,0,0-2.54,1v7.05c0,.39-.13.57-.51.57H17.5c-.4,0-.55-.18-.55-.57V11.58c0-.37.15-.53.55-.53M15,14.11v2.54c0,.36-.13.51-.48.51H8.86v1.63c0,.76.41,1.2,1.71,1.2s1.71-.44,1.71-1.2v-.11c0-.38.16-.56.55-.56h1.54a.48.48,0,0,1,.55.55v.25c0,2-1.14,3.25-4.37,3.25s-4.5-1.28-4.5-3.25V14.11c0-2,1.29-3.23,4.52-3.23S15,12.15,15,14.11m-6.1.15v1h3.42v-1c0-.77-.48-1.21-1.71-1.21s-1.71.44-1.71,1.21" transform="translate(0 0)"/><path class="cls-6" d="M36.76,10.39c.27,0,.35.12.37.39l0,.6a5,5,0,0,1,3.21-1.14,2.41,2.41,0,0,1,2.73,2.63v4.65a2.42,2.42,0,0,1-2.73,2.63,5.16,5.16,0,0,1-3.17-1.08v4.51c0,.25-.1.37-.35.37H35.74c-.27,0-.37-.12-.37-.37V10.78c0-.27.1-.39.37-.39Zm4.51,2.77c0-.68-.32-1.26-1.43-1.26a4.33,4.33,0,0,0-2.63,1V17.5a4.46,4.46,0,0,0,2.63,1c1.11,0,1.43-.58,1.43-1.26Z" transform="translate(0 0)"/><path class="cls-6" d="M44.41,12.85c0-1.55,1-2.61,3.66-2.61s3.66,1.06,3.66,2.61v6.76c0,.27-.1.39-.35.39h-1c-.28,0-.35-.12-.37-.39l0-.56a4.89,4.89,0,0,1-3.06,1.1c-1.8,0-2.73-1.08-2.73-2.34v-.93c0-1.26.89-2.34,2.69-2.34h3.06V13c0-.79-.41-1.31-1.88-1.31s-1.92.46-1.92,1.26v.15c0,.27-.09.39-.36.39h-1c-.25,0-.35-.12-.35-.39Zm5.52,4.78V16H47.26c-1,0-1.28.42-1.28,1.18v.39c0,.75.43,1.08,1.4,1.08a4.24,4.24,0,0,0,2.55-1" transform="translate(0 0)"/><path class="cls-6" d="M58.43,10.6v.89c0,.28-.14.37-.39.39a5.34,5.34,0,0,0-3,1.24v6.49c0,.27-.1.39-.35.39H53.57c-.27,0-.37-.12-.37-.39V10.76c0-.25.1-.37.37-.37h1c.27,0,.35.12.37.37l.06.83a4.44,4.44,0,0,1,3-1.35c.25,0,.39.11.39.36" transform="translate(0 0)"/><path class="cls-6" d="M58.85,12.85c0-1.55,1-2.61,3.66-2.61s3.66,1.06,3.66,2.61v6.76c0,.27-.09.38-.34.39h-1c-.27,0-.35-.12-.37-.39l0-.56a4.89,4.89,0,0,1-3.06,1.1c-1.8,0-2.73-1.08-2.73-2.34v-.93a2.38,2.38,0,0,1,2.69-2.35h3.06V13c0-.79-.4-1.31-1.88-1.31s-1.91.46-1.91,1.25v.16c0,.27-.1.39-.37.39h-1c-.25,0-.35-.12-.34-.39Zm5.52,4.78V16H61.7c-1,0-1.28.42-1.28,1.18v.39c0,.75.43,1.08,1.4,1.08a4.21,4.21,0,0,0,2.55-1" transform="translate(0 0)"/><path class="cls-10" d="M68.84,19.76c0,.18-.07.23-.23.23h-.56c-.17,0-.23,0-.23-.23V18.27c0-.15.06-.23.23-.23h.56c.16,0,.23.07.23.23Z" transform="translate(0 0)"/><path class="cls-10" d="M77,12.69v.37c0,.18-.06.23-.24.23h-.5c-.17,0-.23,0-.23-.23v-.31c0-.95-.51-1.61-2.42-1.61s-2.4.66-2.4,1.61v4.94c0,1,.5,1.61,2.4,1.61S76,18.66,76,17.69v-.47c0-.17.06-.23.23-.23h.5c.18,0,.24.06.24.23v.55c0,1.39-.8,2.38-3.41,2.38s-3.39-1-3.39-2.38V12.69c0-1.41.79-2.4,3.41-2.4s3.39,1,3.39,2.4" transform="translate(0 0)"/><path class="cls-10" d="M77.71,12.69c0-1.41.91-2.4,3.51-2.4s3.5,1,3.5,2.4v5.08c0,1.39-.91,2.38-3.5,2.38s-3.51-1-3.51-2.38Zm6,.06c0-.95-.6-1.61-2.49-1.61s-2.5.66-2.5,1.61v4.94c0,1,.6,1.61,2.5,1.61s2.49-.64,2.49-1.61Z" transform="translate(0 0)"/><path class="cls-10" d="M86.85,10.45a.21.21,0,0,1,.23.23l0,.79a5,5,0,0,1,3.25-1.18,2.42,2.42,0,0,1,2.48,1.34,4.89,4.89,0,0,1,3.41-1.34c1.82,0,2.67,1,2.67,2.32v7.15a.2.2,0,0,1-.23.23h-.54c-.18,0-.25-.08-.25-.23v-7c0-1-.55-1.61-1.9-1.61a4.49,4.49,0,0,0-3,1.18,1.57,1.57,0,0,1,0,.43v7c0,.16-.06.23-.22.23h-.56c-.15,0-.21-.07-.21-.23v-7c0-1-.56-1.61-1.9-1.61a4.44,4.44,0,0,0-3,1.16v7.4a.2.2,0,0,1-.23.23h-.54c-.18,0-.24-.07-.24-.23V10.68c0-.15.06-.23.24-.23Z" transform="translate(0 0)"/></g></g></g></svg>