<?xml version="1.0" encoding="UTF-8"?>
<svg width="187px" height="76px" viewBox="0 0 187 76" version="1.1" xmlns="http://www.w3.org/2000/svg" xmlns:xlink="http://www.w3.org/1999/xlink">
    <!-- Generator: Sketch 54.1 (76490) - https://sketchapp.com -->
    <title>Group</title>
    <desc>Created with Sketch.</desc>
    <g id="fastPay-iOS-Application-UI-Design-(121018)" stroke="none" stroke-width="1" fill="none" fill-rule="evenodd">
        <g id="Splash-01" transform="translate(-94.000000, -300.000000)" fill="#243F95">
            <g id="Group" transform="translate(94.000000, 291.000000)">
                <path d="M50.7031279,11.0532412 L52.883277,9 L55.7403121,12.0810017 L52.3314244,13.689693 L40.616723,19.219125 L50.0423147,10.340626 L50.7031279,11.0532412 Z M65.9868503,20.2069124 C66.4657563,21.1829518 66.1221577,22.3207258 65.2184686,22.7471898 L61.1928701,24.6477712 C60.2908211,25.0734306 59.1698203,24.6260456 58.6909143,23.6500062 C58.2120083,22.6731621 58.5547869,21.5369975 59.4584759,21.1089241 L63.4832544,19.209952 C64.3877635,18.7818787 65.5087644,19.228459 65.9868503,20.2069124 Z M61.3212071,25.8087995 L65.4058488,23.88086 L67.7544563,28.670132 C68.4006514,29.9881473 67.8299004,31.5869852 66.4874875,32.2210488 L48.223456,40.8420601 C46.8802231,41.4769283 45.2507946,40.9152831 44.6045995,39.5972678 L37.3808274,24.8641413 C36.7346323,23.5453213 37.3053833,21.9472881 38.6502563,21.3132245 L56.9110076,12.6930179 C58.2558806,12.0589543 59.883669,12.6181855 60.5298641,13.9362008 L62.6988818,18.3569434 L58.6126,20.2864922 C57.2029435,20.9511324 56.6649943,22.7286024 57.4128749,24.2534126 C58.1607555,25.7790275 59.9099104,26.475049 61.3212071,25.8087995 Z M5.38687245,47.887166 L1.36045386,47.887166 L2.32482621,43.6024091 L6.3512448,43.6024091 L7.42796325,38.650598 C7.69283763,37.4637405 8.12664119,36.4619523 8.73265409,35.646038 C9.33620685,34.8309284 9.97010126,34.1719207 10.6318772,33.6706243 C11.2928331,33.1701325 11.9078665,32.808845 12.4753373,32.5859572 C13.041988,32.3630694 13.4003475,32.2520278 13.5528758,32.2520278 C15.141302,31.9559169 16.7477692,31.9744238 18.3722774,32.3083532 L17.5218912,36.2028552 C16.0474512,36.0169813 14.846086,36.1006648 13.9202557,36.4522965 C12.9936054,36.8063421 12.3613511,37.7598514 12.0218527,39.3184569 L11.1140634,43.6024091 L15.8768819,43.6024091 L14.9133296,47.887166 L10.149691,47.887166 L4.76363861,72.8143928 L-1.6093793e-12,72.8143928 L5.38687245,47.887166 Z M35.4201829,58.5149723 C34.3606854,58.8883295 33.2552654,59.1755893 32.1031028,59.3815795 C30.9493002,59.586765 29.8151786,59.7718343 28.7007381,59.940006 C27.5838375,60.107373 26.5259801,60.2755447 25.5255257,60.4437164 C24.5217913,60.6118881 23.6443436,60.8452363 22.8882626,61.1421519 C22.6611102,61.2531935 22.3576938,61.412514 21.9796532,61.6176995 C21.6016127,61.8220804 21.2342328,62.0932472 20.8750533,62.4279813 C20.5142337,62.7643246 20.1755553,63.1561888 19.8549179,63.6019644 C19.5326404,64.050154 19.3153286,64.5538644 19.2029825,65.1114863 C18.9758302,66.0078654 18.936468,66.7722822 19.0889963,67.4047364 C19.2398845,68.0379953 19.5227999,68.5586033 19.9393825,68.9705837 C20.3551451,69.3793455 20.8553722,69.678675 21.4425241,69.864549 C22.0280359,70.0504229 22.6414292,70.1437622 23.2843441,70.1437622 C24.9104924,70.1807761 26.3759119,69.9482325 27.6806027,69.4453267 C28.9844735,68.942421 30.1079345,68.3550271 31.0542659,67.6839497 C31.9981371,67.0136769 32.7361772,66.3514506 33.265926,65.6996848 C33.7940346,65.0471143 34.07777,64.6093852 34.1163121,64.3848881 L35.4201829,58.5149723 Z M38.1993138,68.4741152 C38.1222296,68.7348215 38.1607717,68.9939185 38.3116599,69.2538202 C38.4625481,69.5137219 38.6806799,69.7277586 38.9644153,69.8935163 C39.2481507,70.0600787 39.5778086,70.1638785 39.9566692,70.2000877 C40.3338897,70.2362969 40.7316113,70.2000877 41.1481939,70.0882414 L40.4101538,73.5932932 L36.3271522,74.093785 C35.1167664,73.7968695 34.2475193,73.2593638 33.7194106,72.4804634 C33.1888418,71.7023677 32.9813705,70.8309326 33.0953567,69.8661583 C32.4155398,70.3111293 31.7152218,70.765756 30.9968628,71.229234 C30.2785038,71.6935165 29.4937212,72.1288317 28.6441551,72.5367889 C27.7921288,72.944746 26.8761391,73.2963777 25.8937257,73.5932932 C24.9104924,73.8894041 23.8526349,74.0567712 22.7185134,74.093785 C21.054643,74.1678128 19.599064,74.0109062 18.3517763,73.621456 C17.1044886,73.2320058 16.1114147,72.6293235 15.3750147,71.8126046 C14.6361546,70.997495 14.1744695,70.0150184 13.9850392,68.86437 C13.7956089,67.715331 13.9095951,66.4150179 14.3253577,64.9690634 C14.6656762,63.745192 15.1191608,62.7063899 15.6866316,61.8526571 C16.2532824,61.0013383 16.8863567,60.2763493 17.5866748,59.6833229 C18.2853527,59.0902965 19.0324132,58.6067023 19.8253963,58.2365637 C20.6200194,57.8656204 21.4138225,57.5687049 22.2084457,57.345817 C23.6443436,56.9394692 24.9006518,56.6602559 25.9781903,56.5122005 C27.0573689,56.364145 28.0397822,56.242643 28.9278905,56.1501084 C29.8151786,56.0583784 30.6286628,55.983546 31.3658828,55.9272205 C32.1031028,55.8725044 32.8493434,55.7695093 33.6046044,55.6214539 C33.7571326,55.5836353 33.9744444,55.5192634 34.2581798,55.4267288 C34.5410952,55.3341941 34.8338511,55.2046456 35.1364475,55.0372785 C35.4390439,54.8707162 35.7121188,54.6470237 35.9589522,54.3694197 C36.2049655,54.0910111 36.3640542,53.7675421 36.4411383,53.3965989 L37.1791784,49.9462632 C37.1791784,49.4272645 36.9520261,48.9629819 36.4977214,48.5550248 C36.0434168,48.1470676 35.4497045,47.8131382 34.7116645,47.5540412 C33.9744444,47.2949442 33.1609603,47.1082655 32.2728521,46.997224 C31.3839238,46.8853777 30.522877,46.8676754 29.693812,46.9408985 C28.4071622,47.0165355 27.3394642,47.2748279 26.4890781,47.7197989 C25.6378718,48.1655746 24.9670754,48.6749175 24.4758688,49.249437 C23.9838421,49.8255658 23.6254826,50.4000853 23.3983303,50.9754095 C23.1711779,51.5507337 23.0006087,52.0045558 22.8882626,52.3384852 L18.4083594,52.3384852 L19.1463994,49.7788962 C19.5227999,48.9267727 20.2132774,47.9426867 21.2153718,46.8298569 C22.2166461,45.7178318 23.5869405,44.7900713 25.3254349,44.0481847 C26.1955021,43.6780461 27.1024714,43.3899817 28.0488027,43.1856008 C28.992674,42.9820246 29.9570463,42.8428203 30.9402797,42.7687925 C31.9235131,42.7317787 32.9149469,42.7502856 33.9178614,42.8235087 C34.9191357,42.8991457 35.8531664,43.0463965 36.7248737,43.2684797 C38.5010902,43.6780461 39.9566692,44.3531468 41.0907908,45.2994142 C42.2257324,46.244877 42.6587159,47.442195 42.3963016,48.8889542 L38.1993138,68.4741152 Z M49.9679367,64.1899216 C50.0056587,64.782948 50.0245198,65.349421 50.0245198,65.886122 C50.0245198,66.425237 50.1286654,66.9353846 50.3361367,67.4173694 C50.545248,67.9001589 50.912628,68.3451299 51.4431968,68.7522824 C51.9721255,69.1618488 52.7847896,69.5327921 53.8811891,69.8667215 C54.4101179,70.0509862 55.0431922,70.1435208 55.7812323,70.1435208 C56.5184523,70.1435208 57.2835539,70.1073116 58.0773569,70.0324792 C58.834258,69.9214377 59.570658,69.7733822 60.289017,69.5875082 C61.006556,69.4024389 61.5937078,69.1618488 62.0463724,68.8649333 C62.6515653,68.49399 63.199355,67.9926936 63.6905617,67.361044 C64.1825884,66.7310037 64.5220868,66.0454426 64.7115171,65.3027514 C64.8624053,64.5616695 64.7689202,63.8559921 64.4286017,63.188938 C64.0891033,62.5210792 63.3691042,61.9835735 62.2743448,61.5756164 C61.3657355,61.3527286 60.4300647,61.1290361 59.4673324,60.9077576 C58.5029601,60.6848697 57.5467881,60.4531308 56.6029169,60.211736 C55.6574056,59.9711459 54.7684773,59.7200954 53.9377722,59.4601937 C53.105427,59.2010967 52.4067491,58.922688 51.8392783,58.6257725 C51.3103496,58.4036893 50.8183229,58.1156249 50.3656583,57.7631886 C49.9121737,57.4115569 49.5423336,56.948079 49.2594182,56.3727548 C48.9748628,55.7974306 48.8059336,55.1118695 48.7501706,54.3136575 C48.6919474,53.5154456 48.7788721,52.5796386 49.0043844,51.503018 C49.3061608,50.0940773 49.8736316,48.8516989 50.7051567,47.7766876 C51.5366819,46.7008717 52.5395963,45.7916181 53.7114399,45.0497316 C54.8824635,44.307845 56.1691134,43.741372 57.5672893,43.3527264 C58.9662852,42.9624716 60.4030032,42.7685511 61.8766232,42.7685511 C64.3342966,42.7685511 66.2146587,43.0839736 67.5185295,43.7148186 C68.8232203,44.3448589 69.7597112,45.1245639 70.3255419,46.0515198 C70.8930127,46.9784756 71.1849485,47.9625616 71.2046296,48.9997544 C71.2234906,50.0385565 71.137386,50.966317 70.9495958,51.7814266 L66.2999433,51.7814266 C66.3753874,51.5593434 66.4508315,51.2077117 66.5270957,50.7249222 C66.6008997,50.2429374 66.4975741,49.7335944 66.2146587,49.1944795 C65.9309233,48.6569738 65.3634525,48.1838401 64.5130663,47.7766876 C63.6618601,47.3679258 62.3301078,47.145038 60.5153493,47.1080242 C58.9277431,47.2190657 57.5853302,47.5723067 56.4897508,48.1653332 C55.3925312,48.7583596 54.5806871,49.4447254 54.0509384,50.2252351 C53.5605517,50.966317 53.3424199,51.7178593 53.399823,52.4774481 C53.455586,53.2378416 53.860688,53.8220169 54.6175891,54.229974 C55.3744902,54.674945 56.2904799,55.0563487 57.3688385,55.3709666 C58.4455569,55.6871937 59.7026852,56.0291696 61.1402232,56.4009175 C62.2743448,56.5859868 63.3879653,56.8458885 64.4851848,57.1790133 C65.5807643,57.5129427 66.5836787,57.9965368 67.490648,58.6257725 C68.6255896,59.3692683 69.313607,60.4064611 69.5604404,61.7421788 C69.8056337,63.0770917 69.683447,64.4506279 69.1922404,65.8595686 C68.6624916,67.2685093 67.8121054,68.6130781 66.6410819,69.8932749 C65.4667781,71.1734718 64.0317002,72.1664089 62.3301078,72.8704769 C61.4600406,73.2036017 60.5440509,73.4731591 59.5804986,73.6767354 C58.6153062,73.8803116 57.6238723,74.0195159 56.6029169,74.0943483 C55.6205036,74.1675714 54.6372702,74.1675714 53.6548569,74.0943483 C52.6708034,74.0195159 51.7835153,73.8899674 50.9888921,73.7048981 C49.7416044,73.4071779 48.7296695,73.0000254 47.9555474,72.4810267 C47.1806054,71.9612233 46.5745925,71.3778527 46.1407889,70.7268915 C45.7053453,70.0791489 45.4224299,69.4024389 45.2904028,68.6967616 C45.1567355,67.9926936 45.1001524,67.3344905 45.1198335,66.7213479 C45.1386945,66.1098145 45.1952776,65.58116 45.2904028,65.136189 C45.3838878,64.6904133 45.4494914,64.3757955 45.4880335,64.1899216 L49.9679367,64.1899216 Z M84.7060886,43.6022481 L89.411504,43.6022481 L88.4479517,47.887005 L83.7408962,47.887005 L79.3741591,68.1400248 C79.1855489,69.06859 79.5160268,69.6060956 80.367233,69.7541511 C81.2184392,69.9030112 82.3427203,69.866802 83.7408962,69.6431095 L82.833927,73.7604993 C81.8137916,73.9463733 80.9158428,74.066266 80.1409008,74.1217868 C79.3651386,74.1773076 78.524593,74.1676518 77.6159837,74.0944288 C76.8238207,74.0195964 76.1809058,73.8160201 75.6896991,73.4828954 C75.1968523,73.148966 74.8384929,72.7683669 74.6113406,72.3419028 C74.3841882,71.9154388 74.251341,71.4793189 74.214439,71.0343479 C74.1758969,70.5893769 74.1758969,70.2369406 74.214439,69.9770389 L78.9780776,47.887005 L74.8384929,47.887005 L75.8028652,43.6022481 L79.9416299,43.6022481 L82.5813532,31.9485141 L87.3449919,31.9485141 L84.7060886,43.6022481 Z M101.553083,51.4483823 L111.07954,51.4483823 C111.760177,51.4483823 112.384231,51.3268803 112.950882,51.0830716 C113.518353,50.8392629 114.029241,50.5503938 114.482725,50.2124411 C114.93539,49.8760978 115.323271,49.5115917 115.644728,49.1181183 C115.965366,48.7254495 116.23926,48.3601387 116.467233,48.0229907 C116.655843,47.7236612 116.854294,47.3398436 117.061765,46.8723424 C117.269236,46.4048412 117.458667,45.9091773 117.629236,45.3845461 C117.799805,44.8607195 117.921992,44.3272371 117.998256,43.7857082 C118.0737,43.24257 118.0737,42.7469061 117.998256,42.2971072 C117.921992,41.6220065 117.732562,41.079673 117.430785,40.6684972 C117.127369,40.2565169 116.759169,39.9378758 116.325365,39.712574 C115.889922,39.4888815 115.407735,39.3384122 114.878807,39.2627751 C114.349058,39.1887474 113.820129,39.1525382 113.2912,39.1525382 L104.162465,39.1525382 L101.553083,51.4483823 Z M97.1871662,32.2526715 L115.559444,32.2526715 C116.315525,32.2526715 117.222494,32.2896854 118.281171,32.3629084 C119.339029,32.4369362 120.408367,32.6791356 121.485905,33.0870927 C122.562624,33.4950498 123.545037,34.1435971 124.433145,35.0343437 C125.322074,35.9242857 125.936287,37.1859756 126.276605,38.8186088 C126.503758,39.7455646 126.580022,40.7739063 126.503758,41.9060477 C126.427494,43.0381891 126.247904,44.1582607 125.964988,45.2718952 C125.682073,46.3839204 125.331094,47.4516898 124.915331,48.4711803 C124.499569,49.4914755 124.046904,50.3725663 123.555698,51.1144529 C121.626953,53.8591112 119.509598,55.7975111 117.203633,56.9288478 C114.897668,58.0609892 112.55398,58.5341229 110.172571,58.3474443 L100.02206,58.3474443 L96.9042508,72.8150366 L88.3987491,72.8150366 L97.1871662,32.2526715 Z M143.564374,58.6257725 C142.278544,59.294436 140.946792,59.6830815 139.565837,59.7941231 C138.185702,59.9059693 136.948255,60.0540248 135.852675,60.2398987 C134.566025,60.4619819 133.478646,61.0276503 132.591358,61.9369039 C131.70243,62.8461574 131.277647,63.9115129 131.315369,65.136189 C131.353091,65.58116 131.457237,65.9899218 131.626986,66.3600604 C131.797555,66.7310037 132.061609,67.0367703 132.422429,67.2789698 C132.780789,67.5203645 133.262155,67.6772711 133.867347,67.7512988 C134.47172,67.8261312 135.20894,67.7883127 136.079008,67.6402572 C137.288573,67.4543833 138.309529,67.1309143 139.141054,66.6666317 C139.972579,66.2031538 140.663056,65.6366808 141.210846,64.968822 C141.758636,64.3009631 142.183419,63.569537 142.487655,62.7705204 C142.789432,61.9739177 143.034625,61.1676592 143.224876,60.3509403 L143.564374,58.6257725 Z M141.410117,72.8149561 C141.220687,72.4440128 141.09768,71.9805349 141.041097,71.422913 C140.984514,70.8669004 141.031256,70.3293948 141.182145,69.8095914 C140.842646,70.0702978 140.321098,70.4694037 139.62242,71.0061047 C138.923742,71.5452197 138.064335,72.0722649 137.04338,72.5912636 C136.022424,73.111067 134.861241,73.5375311 133.555731,73.8722651 C132.25104,74.2053899 130.824982,74.2802223 129.273458,74.0943483 C126.892869,73.8344466 125.125673,72.9541604 123.97269,71.4502711 C122.818888,69.9487957 122.620437,67.7327919 123.377338,64.8022596 C123.640572,63.7264436 124.019433,62.6884462 124.51146,61.686658 C125.001026,60.6848697 125.674283,59.7579139 126.524669,58.9049858 C127.374235,58.051253 128.432912,57.3085618 129.699881,56.6785215 C130.96685,56.0484812 132.506894,55.5841986 134.320832,55.287283 C135.795272,55.21406 137.298414,55.0370372 138.830257,54.7586285 C140.36128,54.4818292 141.616768,54.1929602 142.600002,53.8960446 C143.356083,53.6377522 143.980137,53.1927812 144.471343,52.5611316 C144.96255,51.9310913 145.246285,51.2447256 145.322549,50.5020344 C145.51034,49.7609525 145.246285,49.1027495 144.528746,48.5266207 C143.808747,47.9521011 142.543419,47.7026599 140.72948,47.7766876 C139.594538,47.8128968 138.649847,47.9899197 137.892946,48.3053421 C137.136865,48.6191553 136.533312,49.0094102 136.079008,49.4736927 C135.625523,49.9371707 135.275364,50.4465136 135.030171,51.0033308 C134.783337,51.5593434 134.585706,52.1161606 134.434818,52.6729779 L126.948632,52.6729779 C127.516103,50.2606396 128.413231,48.3608629 129.643298,46.9696245 C130.870905,45.5783861 132.223978,44.521077 133.698418,43.7976974 C135.172038,43.0751225 136.645658,42.6204957 138.120098,42.4338171 C139.594538,42.2487478 140.860687,42.1554085 141.919365,42.1554085 C143.469249,42.1554085 144.849384,42.2680593 146.059769,42.4893379 C147.268515,42.7122257 148.232067,42.9721274 148.951246,43.2682383 C149.631883,43.5659585 150.255117,43.9562133 150.823408,44.4373935 C151.390059,44.920183 151.851744,45.4947025 152.212563,46.1625614 C152.570103,46.8296155 152.798075,47.6286322 152.89238,48.5547834 C152.985865,49.4825439 152.901401,50.5390482 152.636526,51.7267104 L149.064413,68.1970745 C148.875802,68.8649333 148.884823,69.5134805 149.093114,70.1435208 C149.299765,70.7743658 149.611382,71.3126761 150.028785,71.7576471 L149.801633,72.8149561 L141.410117,72.8149561 Z M165.792829,42.6569463 L167.66417,64.5796132 L178.834817,42.6569463 L187,42.6569463 L166.076564,79.0464007 C165.886314,79.4905671 165.508273,80.0852028 164.941622,80.8270894 C164.374972,81.5673666 163.713196,82.2553417 162.957115,82.885382 C162.427366,83.3319623 161.680305,83.6924451 160.717573,83.9716584 C159.754021,84.2492623 158.733065,84.4616897 157.655527,84.6105498 C156.578808,84.7578006 155.537352,84.8607957 154.536078,84.9163165 C153.534803,84.9726419 152.712299,85 152.070204,85 L153.487241,78.6569505 C154.431932,78.7317829 155.338901,78.7205178 156.208968,78.6287878 C157.079036,78.5362532 157.872839,78.2852026 158.591198,77.8780501 C159.460445,77.3960653 160.159123,76.7088949 160.688872,75.8197575 C161.21862,74.9282062 161.406411,73.9272227 161.256342,72.8143928 L157.003592,42.6569463 L165.792829,42.6569463 Z" id="FastPayLogotype-Splash"></path>
            </g>
        </g>
    </g>
</svg>