<svg xmlns="http://www.w3.org/2000/svg" xmlns:xlink="http://www.w3.org/1999/xlink" viewBox="0 0 122.11 35.64"><defs><style>.cls-1{fill:none;clip-rule:evenodd;}.cls-2{clip-path:url(#clip-path);}.cls-3{fill:url(#linear-gradient);}.cls-4{clip-path:url(#clip-path-2);}.cls-5{fill:url(#linear-gradient-2);}.cls-6{clip-path:url(#clip-path-3);}.cls-7{fill:url(#linear-gradient-3);}.cls-8{clip-path:url(#clip-path-4);}.cls-9{fill:url(#linear-gradient-4);}.cls-10{fill:#008dc9;}</style><clipPath id="clip-path"><polygon class="cls-1" points="15.42 6.01 26.89 17.49 13.5 19.48 15.42 6.01"/></clipPath><linearGradient id="linear-gradient" x1="261.14" y1="860.66" x2="261.25" y2="860.66" gradientTransform="matrix(0, 97.98, -108.76, 0, 93629.73, -25576.5)" gradientUnits="userSpaceOnUse"><stop offset="0" stop-color="#aecc4c"/><stop offset="1" stop-color="#fff"/></linearGradient><clipPath id="clip-path-2"><polygon class="cls-1" points="13.5 19.48 15.42 28.96 3.94 17.49 13.5 19.48"/></clipPath><linearGradient id="linear-gradient-2" x1="262.52" y1="868.85" x2="262.61" y2="868.85" gradientTransform="matrix(-71.8, 0, 0, -71.44, 18859.03, 62091.59)" gradientUnits="userSpaceOnUse"><stop offset="0" stop-color="#008dc9"/><stop offset="1" stop-color="#a5cd39"/></linearGradient><clipPath id="clip-path-3"><polygon class="cls-1" points="26.89 17.49 15.42 28.96 13.5 19.48 26.89 17.49"/></clipPath><linearGradient id="linear-gradient-3" x1="271.06" y1="862.55" x2="271.12" y2="862.55" gradientTransform="matrix(0, -123.65, 124.42, 0, -107300.73, 33537.95)" gradientUnits="userSpaceOnUse"><stop offset="0" stop-color="#aecc4c"/><stop offset="0.81" stop-color="#6faa98"/><stop offset="1" stop-color="#008cc9"/></linearGradient><clipPath id="clip-path-4"><polygon class="cls-1" points="3.94 17.49 15.42 6.01 13.5 19.48 3.94 17.49"/></clipPath><linearGradient id="linear-gradient-4" x1="261.73" y1="855.99" x2="261.87" y2="855.99" gradientTransform="matrix(64.01, -0.01, 0.01, 69.48, -16753.1, -59457.61)" gradientUnits="userSpaceOnUse"><stop offset="0" stop-color="#008dc9"/><stop offset="0.65" stop-color="#6baa90"/><stop offset="1" stop-color="#a5cd39"/></linearGradient></defs><title>fibabank</title><g id="Layer_2" data-name="Layer 2"><g id="Layer_1-2" data-name="Layer 1"><g class="cls-2"><rect class="cls-3" x="10.94" y="3.5" width="18.51" height="18.49" transform="translate(-1.31 23.13) rotate(-58.03)"/></g><g class="cls-4"><rect class="cls-5" x="2.23" y="15.77" width="14.9" height="14.9" transform="matrix(0.37, -0.93, 0.93, 0.37, -15.48, 23.63)"/></g><g class="cls-6"><rect class="cls-7" x="11.39" y="14.46" width="17.62" height="17.53" transform="translate(-10.42 20.05) rotate(-43.07)"/></g><g class="cls-8"><rect class="cls-9" x="3.56" y="5.69" width="12.25" height="14.12" transform="translate(-0.73 0.59) rotate(-3.36)"/></g><path class="cls-10" d="M64.46,21.43c0-.88.34-1,1-1a6.44,6.44,0,0,1,1.83.27v1.79a6.31,6.31,0,0,1-2.39.13c-.5-.13-.46-.77-.44-1.19M70.13,18c0-2.54-1.38-4.09-4.23-4.09a10.39,10.39,0,0,0-1.8.16l-1,.2c-.32.06-.42.4-.34.74s.4,1.77.8,1.71l1.16-.18a7.64,7.64,0,0,1,1.14-.1c1,0,1.33.86,1.39,1.92a14,14,0,0,0-2.69-.28c-2.73,0-3,1.67-3,3.43,0,2.08.58,3.39,3,3.39,1.14,0,5.51-.1,5.51-1.77ZM75,22.22V17a6.1,6.1,0,0,1,2.18-.54c1,0,1,.43,1,1.35v3.13c0,.27,0,1.05-.38,1.28C77.1,22.61,75.64,22.36,75,22.22Zm3,2.72c3,0,3-1.91,3-4v-3c0-2.1,0-4-3-4a10.45,10.45,0,0,0-3,.6v-4c0-.32-.36-.52-.74-.52s-2.1,0-2.1.46V23.17a.9.9,0,0,0,.56.88C74.06,24.86,76.85,24.94,78,24.94Zm7.23-3.51c0-.88.34-1,1-1A6.33,6.33,0,0,1,88,20.7v1.79a6.26,6.26,0,0,1-2.38.13C85.16,22.49,85.2,21.85,85.22,21.43ZM90.89,18c0-2.54-1.38-4.09-4.23-4.09a10.51,10.51,0,0,0-1.81.16l-1,.2c-.32.06-.42.4-.34.74s.4,1.77.8,1.71l1.17-.18a7.64,7.64,0,0,1,1.14-.1c1,0,1.32.86,1.38,1.92a13.78,13.78,0,0,0-2.68-.28c-2.73,0-3,1.67-3,3.43,0,2.08.58,3.39,3,3.39,1.14,0,5.51-.1,5.51-1.77Zm-37,4.18V17a6,6,0,0,1,2.18-.54c1,0,1,.43,1,1.35v3.13c0,.27,0,1.05-.38,1.28C56.06,22.61,54.6,22.36,53.92,22.22Zm3,2.72c3,0,3-1.91,3-4v-3c0-2.1,0-4-3-4a10.32,10.32,0,0,0-3,.6v-4c0-.32-.36-.52-.75-.52s-2.1,0-2.1.46V23.17a.9.9,0,0,0,.56.88C53,24.86,55.81,24.94,57,24.94ZM38.8,18.39h4.5c.42,0,.44-1.51.44-2s-.2-.7-.5-.7H38.8v-3h5.66c.42,0,.45-1.5.45-2s-.21-.7-.51-.7H36.51c-.38,0-.74.2-.74.52V24.35c0,.44,1.76.56,2.29.56a.72.72,0,0,0,.74-.62Zm10.28,6,0-9.94c0-.32-.36-.52-.74-.52s-2.28,0-2.28.46l0,10.06c0,.44,1.76.47,2.28.47S49.08,24.72,49.08,24.4Zm-3-11.87c0,.44,1.58.46,2.1.46s.74-.2.74-.52v-2c0-.33-.36-.53-.74-.53s-2.1,0-2.1.47Zm52.67,5.06v6.87c0,.44,1.58.47,2.1.47s.74-.21.74-.53V17.94c0-2.07-.12-3.91-3-3.91-3.17,0-5.82,1.13-5.82,1.89v8.54c0,.45,1.59.47,2.11.47s.74-.2.74-.53V17a8.34,8.34,0,0,1,2.2-.54C98.35,16.46,98.79,16.65,98.79,17.59Zm8,1v-8c0-.32-.37-.52-.75-.52s-2.1,0-2.1.44v14c0,.44,1.58.46,2.1.46s.75-.2.75-.52v-5l3.18,4.93c.37.57,1.64.56,2,.56.88,0,1.28-.18,1.28-.5s0-.23-.48-.92l-3-4.6,2.25-3.64c.29-.46.53-.72.53-1s-.4-.48-1.3-.48c-.5,0-1.51,0-1.83.53Zm9.68,2.85c0-.88.34-1,1-1a6.36,6.36,0,0,1,1.83.27v1.79a6.27,6.27,0,0,1-2.38.13C116.38,22.49,116.42,21.85,116.44,21.43ZM122.11,18c0-2.54-1.38-4.09-4.23-4.09a10.39,10.39,0,0,0-1.8.16l-1,.2c-.32.06-.42.4-.34.74s.4,1.77.8,1.71l1.16-.18a7.64,7.64,0,0,1,1.14-.1c1,0,1.33.86,1.39,1.92a13.89,13.89,0,0,0-2.69-.28c-2.72,0-3,1.67-3,3.43,0,2.08.58,3.39,3,3.39,1.14,0,5.51-.1,5.51-1.77Z"/></g></g></svg>