<svg xmlns="http://www.w3.org/2000/svg" xmlns:xlink="http://www.w3.org/1999/xlink" viewBox="0 0 386.9 67.6"><defs><style>.a{fill:#004481;}.b{fill:#121212;}.c,.d,.e,.f,.g,.h,.i,.j{isolation:isolate;}.c{fill:url(#a);}.d{fill:url(#b);}.e{fill:url(#c);}.f{fill:url(#d);}.g{fill:url(#e);}.h{fill:url(#f);}.i{fill:url(#g);}.j{fill:url(#h);}</style><linearGradient id="a" x1="25.6" y1="18.27" x2="14.51" y2="4.06" gradientUnits="userSpaceOnUse"><stop offset="0.13" stop-color="#73ab2b"/><stop offset="0.71" stop-color="#007f43"/></linearGradient><linearGradient id="b" x1="21.48" y1="30.62" x2="3" y2="13.96" xlink:href="#a"/><linearGradient id="c" x1="21.62" y1="38.4" x2="1.75" y2="53.22" xlink:href="#a"/><linearGradient id="d" x1="25.02" y1="48.51" x2="14.8" y2="63.29" xlink:href="#a"/><linearGradient id="e" x1="31.08" y1="23.77" x2="36.82" y2="10.9" xlink:href="#a"/><linearGradient id="f" x1="31.28" y1="22.39" x2="44.19" y2="22.39" xlink:href="#a"/><linearGradient id="g" x1="33.71" y1="33.19" x2="44.73" y2="49.27" gradientUnits="userSpaceOnUse"><stop offset="0.05" stop-color="#73ab2b"/><stop offset="0.76" stop-color="#007f43"/></linearGradient><linearGradient id="h" x1="31.38" y1="38.89" x2="36.35" y2="54.52" gradientUnits="userSpaceOnUse"><stop offset="0" stop-color="#73ab2b"/><stop offset="0.71" stop-color="#007f43"/></linearGradient></defs><title>garanti900</title><path class="a" d="M305,32.5h-.3c2.7-1.4,4.3-4.3,4.3-7.9,0-6.1-4.7-10.2-11.5-10.2H278.2a.7.7,0,0,0-.7.7V52.8a.7.7,0,0,0,.7.7h18.5c9.2,0,14.1-3.9,14.1-11.7C310.8,37.3,308.6,33.9,305,32.5ZM284.7,20h11.5c4.1,0,6.3,1.1,6.3,4.5s-2.1,5.7-6.3,5.7H284.7a.8.8,0,0,1-.8-.7V20.7A.8.8,0,0,1,284.7,20Zm11.6,27.8H284.7a.8.8,0,0,1-.8-.7V36.7a.9.9,0,0,1,.8-.8h11.7c5.6.1,7.9,1.6,7.9,6S301.9,47.8,296.3,47.8Z"/><path class="a" d="M345.8,14.7,332.9,39.2a.7.7,0,0,1-1.3,0L318.7,14.7a.8.8,0,0,0-.7-.4h-6.2a.5.5,0,0,0-.5.8l20.3,38a.7.7,0,0,0,1.3,0l20.3-38a.5.5,0,0,0-.5-.8h-6.2A.7.7,0,0,0,345.8,14.7Z"/><path class="a" d="M264.4,32.5h-.3c2.7-1.4,4.3-4.3,4.3-7.9,0-6.1-4.7-10.2-11.5-10.2H237.6a.7.7,0,0,0-.7.7V52.8a.7.7,0,0,0,.7.7h18.5c9.2,0,14.1-3.9,14.1-11.7C270.2,37.3,268,33.9,264.4,32.5ZM244.1,20h11.5c4.1,0,6.4,1.1,6.4,4.5s-2.2,5.7-6.4,5.7H244.1a.7.7,0,0,1-.7-.7V20.7A.7.7,0,0,1,244.1,20Zm11.6,27.8H244.1a.8.8,0,0,1-.8-.7V36.7a.9.9,0,0,1,.8-.8h11.7c5.6.1,7.9,1.6,7.9,6S261.3,47.8,255.7,47.8Z"/><path class="a" d="M352.3,47.4l12.9-24.5a.7.7,0,0,1,1.3,0l12.9,24.5a.7.7,0,0,0,.7.4h6.2a.5.5,0,0,0,.5-.8L366.5,9a.8.8,0,0,0-1.4,0L344.8,47a.5.5,0,0,0,.5.8h6.3A.8.8,0,0,0,352.3,47.4Z"/><path class="b" d="M220.1,18.1a3.3,3.3,0,0,0-1.1-2.7,3.3,3.3,0,0,0-2.6-1.1,3.7,3.7,0,0,0-2.7,1.1,3.9,3.9,0,0,0-1,1.6,4.1,4.1,0,0,0-.1,1.1,3.6,3.6,0,0,0,1.1,2.6,3.3,3.3,0,0,0,2.7,1.1,3.3,3.3,0,0,0,2.6-1.1A3.3,3.3,0,0,0,220.1,18.1Z"/><path class="b" d="M220.4,53.6c-.4-.9-.5-3.8-.5-7.3V30.7c0-3.3.3-6.2-2.8-6.2a14.4,14.4,0,0,0-5.2,1.9c1.2.8,1.6,2.4,1.6,5.8V46.3c0,4.1,0,6.3-.5,7.3Z"/><path class="b" d="M202.4,54.2c-3,0-5.1-.9-6.4-2.7s-1.4-3.5-1.4-6.7V29h-4.4V25.5l4.4-.5.5-6.9,5.9-.5V25h7.2v4H201V45c0,3.1,1.2,4.6,3.7,4.6a9.6,9.6,0,0,0,4.7-1.3l.6,3.8A16.5,16.5,0,0,1,202.4,54.2Z"/><path class="b" d="M107.3,47.6a8.8,8.8,0,0,1-5.6,2.1c-2.9,0-4.7-1.2-4.7-4.2s4.2-7.5,10.3-5.9Zm6.9,6a32.2,32.2,0,0,1-.5-6.6V34.8c0-8-3.6-10.5-11.3-10.5a19.2,19.2,0,0,0-8.2,1.8l-.8,4a19.8,19.8,0,0,1,8.7-1.9c5.5,0,5.2,4.2,5.2,8.3-7.5-2.2-17,.6-16.8,9.8.1,5.1,3.9,7.9,8.7,8a11.4,11.4,0,0,0,8.2-3.5l.5,2.8Z"/><path class="b" d="M179.9,53.6a10.3,10.3,0,0,0,.3-3.5V34.6c0-3.8-1.2-5.6-4-5.6s-4.7,1.6-6.8,3.4V46.5c0,1.6.1,3.1.1,4.3s.2,2.2.3,2.8h-7a38,38,0,0,0,.3-6.9V32.1c0-3.6-.5-5-1.6-5.7,2.5-1.2,4-1.9,5.1-1.9s2.6,1.9,2.6,4.2c2.5-2.6,6-4.5,9.2-4.5s5.6,1.1,7,3.4a10.2,10.2,0,0,1,.8,2.1,21.5,21.5,0,0,1,.4,4.8V46.4c0,4.7.2,6.7.4,7.2Z"/><path class="b" d="M133.9,29.3h-1.6c-2,0-4.1,1.1-6,3.4V46.9c0,4.2.1,6.2.3,6.7h-7a7,7,0,0,0,.2-1.6c.1-1.4.1-3.1.1-5V32.1c0-3.2-.5-5-1.6-5.7,2-1,3.9-1.9,5.1-1.9s2.6,2,2.6,4.2q3-4.5,7.2-4.5l1.6.2Z"/><path class="b" d="M157.5,53.6A29.4,29.4,0,0,1,157,47V34.8c0-8-3.6-10.5-11.2-10.5a20.1,20.1,0,0,0-8.4,1.8l-.7,4.1a12,12,0,0,1,3.1-1.3,21,21,0,0,1,5.6-.7c5.5,0,5.2,4.2,5.2,8.4-7.5-2.3-17,.5-16.8,9.7.1,5.2,3.9,7.9,8.7,8a11,11,0,0,0,8.2-3.5,20.9,20.9,0,0,0,.5,2.8Zm-6.9-6a8.8,8.8,0,0,1-5.6,2.1c-2.9,0-4.7-1.2-4.7-4.2s4.2-7.5,10.3-5.9Z"/><path class="b" d="M84.2,18.7a26.2,26.2,0,0,0-10-1.9,14.2,14.2,0,0,0-10.7,4.5A16.9,16.9,0,0,0,59.2,33c0,5.1,1.3,9.2,3.9,12.2s6,4.5,10.6,4.5a17.6,17.6,0,0,0,6-.9v-12H74.3a27.1,27.1,0,0,0-.6-4.8l13.1.5c-.5,1.5-.5,3.4-.5,6.7v5.2a37.1,37.1,0,0,0,.5,7.3,37.3,37.3,0,0,1-13.7,2.8c-6.8,0-12-1.9-15.8-5.6s-5.9-8.7-5.9-15.2a21.3,21.3,0,0,1,6.5-15.8c4.1-4.1,9.6-6.1,16.3-6.1s7.9.7,11,1.8l-1,5.1"/><path class="c" d="M26.4,27.1s1.7-8.3-2.4-19c0,0-3.1-8.2-9.4-8.1,0,0-3.8-.7-5.9,5.8C8.7,5.8,21.1,13.6,26.4,27.1Z"/><path class="d" d="M6.6,8.1s12.2,5.8,18.3,21.5c0,0-3,1.7-8.6,1.3S.6,25.4,0,17.9,6.6,8.1,6.6,8.1Z"/><path class="e" d="M25.2,35.3s-6-2.9-18.2,4.8-4.7,16.8.1,18.4A50.7,50.7,0,0,0,25.2,35.3Z"/><path class="f" d="M9.2,61.2S20,54.1,26.6,37.8a38.2,38.2,0,0,1-5.1,26.1S14.2,73.7,9.2,61.2Z"/><path class="g" d="M30,29.4S28.2,9.1,36,5.9c0,0,4.2-.5,4.7,6C40.7,11.9,40.2,19.5,30,29.4Z"/><path class="h" d="M31.3,30.9s8.9-7.3,11.1-17.1c0,0,3.9,3.7.3,9.8S35.5,31.3,31.3,30.9Z"/><path class="i" d="M32.1,34.3s5.5-.2,10.5,5.9c0,0,4.1,5.1-.5,11.3C42.1,51.5,39.5,41.3,32.1,34.3Z"/><path class="j" d="M30.5,35.5s6.3,4.7,9.9,17.9c0,0-.3,4.6-4.1,4.3s-5.2-3.3-5.9-11.3C30.4,46.4,30.4,42.9,30.5,35.5Z"/></svg>