<svg xmlns="http://www.w3.org/2000/svg" viewBox="0 0 104.06 19.9"><defs><style>.cls-1,.cls-2{fill:#005696;}.cls-1{fill-rule:evenodd;}</style></defs><title>Halkbank</title><g id="Layer_2" data-name="Layer 2"><g id="Layer_1-2" data-name="Layer 1"><path class="cls-1" d="M27.83,10.09v1c0,.94,0,1.77,0,2.51s-.06,1.43-.1,2.13a4,4,0,0,1,.62,0h1.52a4.09,4.09,0,0,1,.63,0c0-.7-.08-1.41-.1-2.13s0-1.57,0-2.51V8.76c0-.94,0-1.77,0-2.49s.05-1.46.1-2.2l-.63.07-.76,0-.76,0-.62-.07c0,.74.07,1.46.1,2.18s0,1.54,0,2.47l-1.06,0h-3l-1,0c0-.93,0-1.76,0-2.47s.06-1.44.12-2.18l-.63.07-.76,0-.76,0-.62-.07c0,.74.07,1.47.1,2.2s0,1.55,0,2.49v2.29c0,.94,0,1.77,0,2.51s-.06,1.43-.1,2.13a4,4,0,0,1,.62,0H22.2a4.09,4.09,0,0,1,.63,0c0-.7-.08-1.41-.1-2.13s0-1.57,0-2.51v-1L24,10l1.28,0c.43,0,.86,0,1.29,0Z"/><path class="cls-1" d="M36.47,7.25c-.29.68-.57,1.35-.83,2s-.51,1.33-.76,2H38c-.25-.68-.49-1.35-.74-2S36.74,7.93,36.47,7.25Zm6,8.44a7,7,0,0,0-.78,0H40.24a5.53,5.53,0,0,0-.71,0c-.18-.56-.37-1.12-.56-1.69s-.39-1.15-.61-1.73l-1.08,0h-2l-.88,0c-.23.58-.43,1.15-.63,1.73s-.36,1.13-.52,1.69a1.84,1.84,0,0,0-.41,0h-.79a2.39,2.39,0,0,0-.44,0c.14-.3.32-.7.54-1.22s.48-1.11.75-1.76l.86-2.1q.47-1.12.93-2.28c.31-.76.62-1.52.91-2.26s.58-1.44.83-2.08l.32.07h.64L37.75,4c.36,1,.75,2,1.15,3.07s.84,2.17,1.25,3.23.83,2.05,1.22,3S42.13,15,42.45,15.69Z"/><path class="cls-1" d="M43.77,8.76v2.29c0,.94,0,1.77,0,2.51s-.06,1.43-.1,2.13l.32,0H49l1.14,0a.92.92,0,0,1,0-.26,2.43,2.43,0,0,1,0-.42,2.43,2.43,0,0,1,0-.42,2.33,2.33,0,0,1,0-.34c-.66.08-1.3.13-2,.17s-1.28.05-1.92.05c0-.44,0-1,0-1.56V8.76c0-.94,0-1.77,0-2.49s0-1.46.1-2.2l-.63.07-.76,0-.76,0-.62-.07c0,.74.07,1.47.1,2.2S43.77,7.82,43.77,8.76Z"/><path class="cls-1" d="M54.15,10.43h0c.58.88,1.14,1.76,1.69,2.65s1.12,1.75,1.69,2.61a6.06,6.06,0,0,1,.73,0h1.5c.26,0,.56,0,.88,0-.22-.27-.52-.67-.89-1.2s-.78-1.13-1.22-1.76l-1.3-2-1.2-1.83c.22-.27.54-.64.95-1.1s.82-1,1.26-1.45L59.54,5c.4-.43.69-.74.88-.93l-.54.07-.47,0-.48,0-.47-.07c-.15.22-.38.54-.71,1s-.69.88-1.1,1.38-.83,1-1.27,1.57L54.15,9.47V7.84c0-.82,0-1.57,0-2.25a14,14,0,0,1,.11-1.52l-.62.07-.76,0-.76,0-.63-.07c.05.74.08,1.47.1,2.2s0,1.55,0,2.49v2.29c0,.94,0,1.77,0,2.51s0,1.43-.1,2.13a4.09,4.09,0,0,1,.63,0h1.52a4,4,0,0,1,.62,0c-.06-.52-.1-1.22-.11-2.1S54.15,11.66,54.15,10.43Z"/><path class="cls-1" d="M67,12.47a2.88,2.88,0,0,1-.15,1,2.24,2.24,0,0,1-.41.73,1.69,1.69,0,0,1-.59.44,1.74,1.74,0,0,1-.71.15h-.49l-.44,0c0-.15,0-.33,0-.56v-.74c0-.27,0-.55,0-.83V10.89c0-.26,0-.51,0-.75h.32l.41,0a1.93,1.93,0,0,1,1.54.6A2.48,2.48,0,0,1,67,12.47ZM66.91,7a2.52,2.52,0,0,1-.17,1,2,2,0,0,1-.44.68,1.91,1.91,0,0,1-.62.39,1.89,1.89,0,0,1-.7.13h-.76c0-.29,0-.57,0-.84V7.44c0-.3,0-.66,0-1.08s0-.86,0-1.27a1.25,1.25,0,0,1,.31,0h.52a1.82,1.82,0,0,1,.85.17,1.47,1.47,0,0,1,.86,1A2.68,2.68,0,0,1,66.91,7ZM61.7,8.76v2.29c0,.94,0,1.77,0,2.51s-.06,1.43-.1,2.13a5.17,5.17,0,0,1,.76,0h1l1.21,0,1.27,0a7,7,0,0,0,1.47-.16A3.26,3.26,0,0,0,68.48,15a2.82,2.82,0,0,0,.88-1.05,3.25,3.25,0,0,0,.34-1.55,2.3,2.3,0,0,0-.34-1.29,2.92,2.92,0,0,0-.79-.88,3.44,3.44,0,0,0-1-.49,3.55,3.55,0,0,0-.91-.18v0a4.44,4.44,0,0,0,.86-.25,3.48,3.48,0,0,0,.9-.51,3,3,0,0,0,.71-.83,2.37,2.37,0,0,0,.28-1.2,2.54,2.54,0,0,0-.25-1.18,2,2,0,0,0-.69-.81,3.08,3.08,0,0,0-1.09-.47A5.34,5.34,0,0,0,66,4.07c-.49,0-1,0-1.52,0s-1,0-1.52,0l-.76,0-.63-.07c0,.74.08,1.47.1,2.2S61.7,7.82,61.7,8.76Z"/><path class="cls-1" d="M75.16,7.25c-.29.68-.57,1.35-.83,2s-.51,1.33-.76,2h3.09c-.24-.68-.49-1.35-.74-2S75.43,7.93,75.16,7.25Zm6,8.44a7,7,0,0,0-.77,0H78.93a5.63,5.63,0,0,0-.71,0c-.18-.56-.37-1.12-.56-1.69s-.39-1.15-.61-1.73l-1.08,0H74l-.88,0c-.22.58-.43,1.15-.62,1.73s-.37,1.13-.53,1.69a1.81,1.81,0,0,0-.4,0h-.8a2.39,2.39,0,0,0-.44,0c.14-.3.32-.7.54-1.22s.48-1.11.75-1.76l.86-2.1.93-2.28c.31-.76.62-1.52.91-2.26s.58-1.44.83-2.08l.32.07h.64L76.44,4c.37,1,.75,2,1.15,3.07s.84,2.17,1.25,3.23.83,2.05,1.22,3S80.82,15,81.14,15.69Z"/><path class="cls-1" d="M82.61,7.44c0,.85,0,1.75,0,2.68s0,1.79-.1,2.59-.07,1.46-.1,2-.06.88-.08,1a6.62,6.62,0,0,1,.77,0h.39a1.9,1.9,0,0,1,.41,0c0-.13,0-.29,0-.49s0-.49,0-.82,0-.72,0-1.2V8.5l0-1q3.9,4.11,7.39,8.17a4.33,4.33,0,0,1,.66,0,5.32,5.32,0,0,1,.69,0V11.38c0-.73,0-1.45,0-2.19s.05-1.51.08-2.33.08-1.76.14-2.79a4.34,4.34,0,0,1-.76.09,4.24,4.24,0,0,1-.76-.09,5.53,5.53,0,0,1,0,.66q0,.49,0,1.17c0,.45,0,.95,0,1.49s0,1.07,0,1.62v3.11c-1.27-1.36-2.5-2.71-3.7-4l-3.64-4a4.24,4.24,0,0,1-.76.09,4.34,4.34,0,0,1-.76-.09c0,.41,0,.88,0,1.41S82.61,6.66,82.61,7.44Z"/><path class="cls-1" d="M97.54,10.43h0c.58.88,1.14,1.76,1.69,2.65s1.12,1.75,1.69,2.61a6.06,6.06,0,0,1,.73,0h1.51c.25,0,.55,0,.87,0-.22-.27-.52-.67-.89-1.2s-.78-1.13-1.22-1.76l-1.3-2-1.2-1.83c.23-.27.54-.64,1-1.1s.82-1,1.26-1.45L102.93,5c.4-.43.69-.74.88-.93l-.54.07-.47,0-.48,0-.47-.07c-.15.22-.38.54-.71,1s-.69.88-1.1,1.38-.83,1-1.27,1.57L97.54,9.47V7.84c0-.82,0-1.57,0-2.25a11.48,11.48,0,0,1,.12-1.52l-.63.07-.76,0-.76,0-.63-.07c0,.74.08,1.47.1,2.2s0,1.55,0,2.49v2.29c0,.94,0,1.77,0,2.51s0,1.43-.1,2.13a4.09,4.09,0,0,1,.63,0h1.52a4.26,4.26,0,0,1,.63,0,18.05,18.05,0,0,1-.12-2.1C97.55,12.71,97.54,11.66,97.54,10.43Z"/><path class="cls-2" d="M2.89,1.7V18.18H2.31V1.7ZM1.76,3.42V16.47H1.18v-13ZM.58,5.12v9.66H0V5.12ZM12.64,19.9V10.25H4.05V19.9H3.47V0h.58V9.66h8.59V0h.58V19.9Zm1.16-1.7V1.72h.59V18.2Zm1.13-1.71V3.43h.59V16.49Zm1.18-1.7V5.12h.58v9.67ZM11.49,9.07H4.6V1.69h.58V8.48h6.31V1.69h.58V9.06h-.58Zm-.81-1.15H5.75V3.4h.59V7.33h4V3.4h.58V7.91h-.25ZM9.41,6.8H6.88V5.11h.58V6.22H9.19V5.11h.58V6.79H9.41Zm-4.24,4h6.9v7.37h-.58v-6.8H5.17v6.8H4.6V10.79h.57ZM6,11.93h4.93v4.51h-.58V12.51h-4v3.94H5.74V11.94H6Zm1.28,1.12H9.79v1.69H9.21V13.63H7.48v1.11H6.89V13.05Z"/></g></g></svg>