<svg xmlns="http://www.w3.org/2000/svg" viewBox="0 0 106.69 35.1"><defs><style>.cls-1{fill:#b2292e;fill-rule:evenodd;}.cls-2{fill:#161519;}.cls-3{fill:none;stroke:#b2292e;stroke-width:0px;}</style></defs><title>ICBC</title><g id="Layer_2" data-name="Layer 2"><g id="Layer_1-2" data-name="Layer 1"><path class="cls-1" d="M88.5,10.79V8.09H79.75v8.09h5.36v2.7H79.75V27H88.5V24.28H82.44v-2.7h5.39v-8.1H82.44V10.79ZM71.6,17.55A17.55,17.55,0,1,1,89.14,35.1,17.54,17.54,0,0,1,71.6,17.55m2.72,0A14.83,14.83,0,1,1,89.14,32.37,14.82,14.82,0,0,1,74.32,17.55m15.54,6.74V27h8.75v-8.1H93.23V16.2h5.38V8.1H89.86v2.7h6v2.69H90.52v8.1h5.39v2.7Z"/><path class="cls-2" d="M36.39,26.94a7.1,7.1,0,0,0,5.09-1.62,4.92,4.92,0,0,0,1.38-3.55,4.55,4.55,0,0,0-2.75-4.54l-.09,0,.08-.05c.83-.43,1.92-1.3,1.92-3.91a4.83,4.83,0,0,0-1.54-3.63A6.63,6.63,0,0,0,35.9,8.08H26V26.94ZM29.61,15.48V11.54h6c1,0,2.81,0,2.81,2.08a1.61,1.61,0,0,1-1,1.6,4.36,4.36,0,0,1-1.82.31h-6Zm0,3.51v0h6.54a3.94,3.94,0,0,1,2.15.55,2.3,2.3,0,0,1,.45,3.33,3.62,3.62,0,0,1-2.56.63h-6.6v0Z"/><rect class="cls-2" y="8.08" width="3.76" height="18.86"/><path class="cls-2" d="M6.82,17.35A10.13,10.13,0,0,0,7.77,22a8.25,8.25,0,0,0,2.36,2.81,11.07,11.07,0,0,0,7,2h5.15V23.22H17.46c-2.71,0-4.67-.67-5.84-2a5.56,5.56,0,0,1-1.26-3.76,5.35,5.35,0,0,1,1.4-3.95c1.17-1.18,3.09-1.78,5.7-1.78h4.86V8.21h-5a15.89,15.89,0,0,0-4.29.5A8,8,0,0,0,10,10.27a9,9,0,0,0-3.19,7.08"/><path class="cls-2" d="M45.13,17.35a11.34,11.34,0,0,0,.94,4.77,8.25,8.25,0,0,0,2.36,3C50,26.36,52.26,27,55.47,27h5.44V23.39H55.77c-2.71,0-4.68-.7-5.84-2.08a5.84,5.84,0,0,1-1.27-3.84,5.51,5.51,0,0,1,1.45-4.07c1.19-1.19,3.08-1.8,5.66-1.8h5.14V8.08H55.65a16,16,0,0,0-4.29.5,7.76,7.76,0,0,0-3,1.56,9.23,9.23,0,0,0-3.19,7.21"/><path class="cls-3" d="M88.5,10.79V8.09H79.75v8.09h5.36v2.7H79.75V27H88.5V24.28H82.44v-2.7h5.39v-8.1H82.44V10.79ZM71.6,17.55A17.55,17.55,0,1,1,89.14,35.1,17.54,17.54,0,0,1,71.6,17.55Zm2.72,0A14.83,14.83,0,1,1,89.14,32.37,14.82,14.82,0,0,1,74.32,17.55Zm15.54,6.74V27h8.75v-8.1H93.23V16.2h5.38V8.1H89.86v2.7h6v2.69H90.52v8.1h5.39v2.7Z"/></g></g></svg>