<svg xmlns="http://www.w3.org/2000/svg" viewBox="0 0 88 21.88"><defs><style>.cls-1{fill:#ff671d;}.cls-2{fill:#00205c;}</style></defs><title>ING</title><g id="Layer_2" data-name="Layer 2"><g id="Layer_1-2" data-name="Layer 1"><path class="cls-1" d="M63.31,7.91c-.11-.23-.41,0-.7-.12a.37.37,0,0,0,.17.36,1,1,0,0,1,.53-.24m.47-3.1c0-.11-.11-.23-.29-.35H62.07a.34.34,0,0,0,.36.35c0,.24.18.29.23.35a.29.29,0,0,0,.42,0c.17.12.23-.11.29,0a3.47,3.47,0,0,1-.06.81c-.06.41-.41.35-.7.53,0,.17-.18.47,0,.65a2.45,2.45,0,0,1,.59-.3c0-.18.17-.35.41-.47,0-.53.17-1,.17-1.57m2.66,3.4v-.3h-.58L65.8,8ZM63,2.81c-.06-.57-.71-.63-1-.86h-.23a1.12,1.12,0,0,0-.62,1c.16.53.5.18.74.53A6.62,6.62,0,0,1,63,2.81m1.3.65c-.12-.12-.48,0-.65.12A.47.47,0,0,0,63.2,4h.64a2,2,0,0,1,.42-.53m2.9,1.24s.12,0,0-.07l-1.25-.17c-.11.17-.41.17-.41.35h-.12a6.17,6.17,0,0,1,.12,1.51.52.52,0,0,1,.47.53,4.16,4.16,0,0,1,.7.35c.11,0,.16-.23.21-.41-.21-.29-.73-.12-.73-.65L65.8,6a4.21,4.21,0,0,0-.06-.92l.06,0s.06.11.17.23a1,1,0,0,0,.7-.12c.11-.06.11-.35.21-.35s.22,0,.28-.11M66.27,4c0-.18-.06-.18-.12-.18-.29,0-.29-.47-.53-.35s-.24-.12-.42,0c0,0,0,0,.12,0,.3,0,.18.42.42.48Zm2-.36a1.27,1.27,0,0,0-.12-1.1C68,2.3,67.69,2.18,67.4,2L67,2.18a.69.69,0,0,0-.32.63,2.37,2.37,0,0,1,1,1h.19c.17-.18.29,0,.41-.18M56.12,19.93c-.06,0-.24-.18-.41-.18-.17.36,0,.59,0,1a1.31,1.31,0,0,1-.06.36c-.11,0-.32-.24-.37-.47V19.7l.49-.64a.72.72,0,0,1,.35.87m1.51-.65a1.19,1.19,0,0,1-.17.65c-.06-.23-.23-.53-.51-.53a1.34,1.34,0,0,0-.07,1.35,1.61,1.61,0,0,1-.52.36,2.1,2.1,0,0,1-.13-.88,3.59,3.59,0,0,1,.19-1.17c.17-.18.29-.48.46-.61h.64c-.29,0-.29.25-.29.43.17.06.4.11.4.4m2.07.35c0,.48-.76,1.12-.76,1.12,0-.29.17-.64.17-1a.84.84,0,0,0-.48-.24c-.17.12-.17.24-.23.42A4.69,4.69,0,0,0,57.81,21a.06.06,0,0,1-.06-.06,3.59,3.59,0,0,1,.42-2,1.12,1.12,0,0,1,.88-.42l.3.06-.24.36c.24.12.59.34.59.69m1.61-.57-.16.57-.38-1.05c-.48-.42-1-.48-1.31-.72-.23-.05-.23.12-.35,0a.6.6,0,0,1,.18-.47h.35l.36.18c.17.18.59.18.59.53,0,.06-.06.12.12.35l.55.13Zm.88-.84-.41.36c-.13-.13,0-.42-.18-.6,0-.12.12-.17,0-.23s-.72-.36-.72-.36a8.56,8.56,0,0,1-.76-.58c-.23-.06-.41.05-.71.11v-.11c.12-.25.12-.54.48-.54.17,0,.41,0,.53.18.24,0,.35.23.52.3a3.12,3.12,0,0,0,.66.52.37.37,0,0,0,.19.36c.35,0,.23.35.35.59m.3-1.83c0,.17-.06.88-.06.88-.12-.41-.42-.82-.78-.82a1.67,1.67,0,0,1-.39-.54c-.16-.18-.33,0-.55-.18a1.21,1.21,0,0,0-.77.18v-.18l.41-.47c.42.06.91,0,1,.3A2,2,0,0,1,62,16v.17c.12.06.36.12.48.18m-.3-3-.24.86c-.3.23-.69.12-1,.12.43-.12.79-.63,1-1,.06-.06.12,0,.24,0m-.83-.71a1.24,1.24,0,0,1-.37.82c-.06.06-.22.18-.22.18,0-.35.16-.65.16-.94.17-.06.33-.18.43-.06m-.65-.89c-.3.29-.6.41-.71.77a1.13,1.13,0,0,0-.12-.48.84.84,0,0,1,.29-.41c.18.06.3.06.54.12M65,16.27a.75.75,0,0,1-.71.12l-.35-.48h.88Zm-1.19-2.69c-.17.36-.34.69-.7.81a2.05,2.05,0,0,1-.83,0c.18-.12.36-.18.59-.33l.47-.48Zm5.39,6.17-.18.18c-.17-.18-.06-.65-.35-.71s-.53-.28-.65-.34l.24-.12a.26.26,0,0,1,.23,0c.12.12.24.18.24.3s.29,0,.41.16a.86.86,0,0,1,.06.53m-4.32-5.69c-.06.33-.24.44-.53.85-.18.12-.54.18-.88.35.05-.17.23-.23.34-.41a3.34,3.34,0,0,0,.42-.64,1.12,1.12,0,0,1,.65-.15M62,12a1.93,1.93,0,0,1-.91-.74,1.87,1.87,0,0,1-.17-.71.5.5,0,0,1,.43.3v.05A2.19,2.19,0,0,1,62,12m4.55,4.22h-.12a1.61,1.61,0,0,1-.58-.3,1.24,1.24,0,0,1-.06-.35h.47Zm4.65,2.73a6.89,6.89,0,0,0-.23.69c-.12-.35-.24-.87-.65-.87a.68.68,0,0,0-.36-.48l-.45-.06c.06.23.39.23.17.54.22.18.4.18.52.46s0,.41.06.53l-.36.18c0-.3.06-.87-.33-1-.35.12-.41-.36-.65-.49s-.11-.29-.29-.17-.65,0-1,.17L68,18c.24-.17.47-.12.71-.17l.47-.06a3.9,3.9,0,0,1,1.34.41.57.57,0,0,1,.35.54c.12.06.35.06.35.24m-8.43-7.86-.17.73a3.43,3.43,0,0,1-.42-1.09Zm1.13,1.68c-.36-.36-.66-.66-.66-1a.83.83,0,0,1,.53.12c0,.29.13.53.13.89m6.71,5c-.23-.18-.59-.18-.71-.48a2.81,2.81,0,0,0-.68-.05,4,4,0,0,1-.77.05c-.06,0,0-.05-.12-.11a2,2,0,0,0-1.06.47l.3-.71a3.9,3.9,0,0,0,.53-.11,2.15,2.15,0,0,1,.59-.06v.06a2.37,2.37,0,0,1,1.87.46ZM67.1,14.39a1.16,1.16,0,0,1-.66.23,6,6,0,0,1-.94-1.1l.94.18a5.44,5.44,0,0,1,.66.69m-2-2.58c0,.41,0,.95-.47,1.12l-.12-.59a2.23,2.23,0,0,0,.59-.53m5.37,4.75c-.3,0-.54,0-.71-.29-.06,0-.16-.18-.22-.06-.29.24-.59-.17-.94-.12a1.16,1.16,0,0,1-.65.36v-.06a.58.58,0,0,1,.35-.48c.36.13.65-.65,1-.23a1.58,1.58,0,0,0,.45.05c.41.18.53.54.71.83m1.35,2.2h0c-.12-.18-.19-.31-.3-.31.18-.64-.18-1.18-.3-1.7v-.19c.18.3.65.6.6.89,0,.53,0,1,0,1.31m-5.42-6c-.29-.18-.82-.24-.7-.6a1.15,1.15,0,0,1,.41-.47,3.46,3.46,0,0,0,.29,1.07m-6-7.6-.3.35A12.18,12.18,0,0,1,59.94,7l-.3-1a2.39,2.39,0,0,1,.3-.74Zm8.76,8.9H69c-.65.21-1.17-.18-1.71-.54a3.32,3.32,0,0,1,1.06-.17l.18.35a3.51,3.51,0,0,1,.65.36m-3-4.76a1.74,1.74,0,0,1-.53,1.13.87.87,0,0,0-.24-.54c-.06,0,0,.18-.06.18a5,5,0,0,0-.12.59.64.64,0,0,1-.59.06v-.18a1.27,1.27,0,0,1-.06-.47L64.49,10c-.17.06-.17.17-.17.29s-.18.24-.18.42a.81.81,0,0,1-.53-.18V10c0-.12,0-.12-.06-.12l-.3.29A1.3,1.3,0,0,1,63,9.24a3.44,3.44,0,0,1,2.84-.06c.11.06.23.06.35.12m1.67,3.22c-.24.06-.66.18-.77-.12a1.36,1.36,0,0,1,0-1.38,7.94,7.94,0,0,1,.23,1c.06.23.41.35.54.53M60.29,4.34l-.41.12.06-.3a2.54,2.54,0,0,1,.35-.53Zm9.86,9.07a1.48,1.48,0,0,1-.86-.18,2.18,2.18,0,0,1-.65-.47,2.21,2.21,0,0,1,.65-.24,4,4,0,0,0,.86.89m-1.63-1.66c-.29.06-.53-.23-.83-.35a5.7,5.7,0,0,0-.23-.86c.23.18.77.18.65.71,0,.15.23.27.41.5m4.83,4.16c0,.36-.23.65-.29,1a1.15,1.15,0,0,0-.29-.88c0-.13.16-.13,0-.31,0,0-.33-.17-.33-.41s.22-.41.33-.59.24.12.24.48a.87.87,0,0,1-.06.35c-.07.17.35.17.35.35m1.36.65c0,.3-.36.66-.47.89.11-.29.11-.89,0-.89s-.36,0-.36-.11.06-.41.06-.54-.18-.35-.18-.47c0-.35.42-.41.54-.64a3.54,3.54,0,0,1,0,.76c0,.12.18.48,0,.77,0,.18.36.06.36.23m-4.8-5.48c-.33,0-.74.17-.92-.19.12-.05.24-.23.36-.35Zm1.66,1.32-.3.12A1.71,1.71,0,0,1,70,12.1a1.05,1.05,0,0,0,.54-.29,2.24,2.24,0,0,0,1,.59m-2.4-3.69A5.65,5.65,0,0,0,66.83,8a.86.86,0,0,1,0,.41A7.45,7.45,0,0,1,68.7,9.54v.53a4.62,4.62,0,0,0-2-1.36c0,.12-.28.24-.33.47A3.2,3.2,0,0,0,65,8.54c-.18,0-.3-.63-.3-.63a1,1,0,0,0,.59-.59h.24c.18,0,.18-.12.18-.29,0-.36-.77-.36-1.13-.36a1.49,1.49,0,0,0-.94.18c-.12,0-.06.18-.06.3s.17.17.17.17.24-.12.36-.12c-.06.36.06.54.41.71l-.06.57A4,4,0,0,0,62.78,9a1.65,1.65,0,0,1-.41-.46,8.53,8.53,0,0,0-1.9,1.18V9.3a7.14,7.14,0,0,1,1.72-1V7.91c-.24-.12-.47,0-.7,0a3,3,0,0,0-1.38.57,2,2,0,0,0-.06-.39,3.64,3.64,0,0,1,2.2-.53V7.32c-.06-.12-.06-.29-.18-.29a2.31,2.31,0,0,1-.71-1.24l.24-.12c-.11-.33-.24-1.21,0-1.51a1.87,1.87,0,0,1-.78-.7,4.32,4.32,0,0,1-.29-.81c.18-.35.29-.47.46-.82a.36.36,0,0,0,.32-.18c.29-.06.47-.35.82-.17a2,2,0,0,1,.65.17.33.33,0,0,0,.12.3c.35,0,.35.35.54.64a1.38,1.38,0,0,0,.47.06c.35.12.64.12.76.27a2.31,2.31,0,0,1,1.48-.27,5.07,5.07,0,0,0,.24-.7c0,.17,0,0,.17,0,.22-.18.49-.47.9-.36.23.18.65.06.88.36s.3.58.48.86c-.18.35,0,.82-.36,1l-.35.35c-.12,0-.12.12-.29.12a1.92,1.92,0,0,1-.13,1.39c.13,0,.3,0,.3-.21.06,0,0,.17,0,.21v.18a1.2,1.2,0,0,1-.41.82c-.12.36-.42.83-.8.89v.12a5.16,5.16,0,0,1,2.39.64Zm4.54,5.68c0,.11-.18.23-.24.23a1.34,1.34,0,0,1-.35-.56,1.22,1.22,0,0,1,.17-.65c.06,0,.12.11.18.11s0,.24.06.42.29.33.18.45m4.74,4.06s-.11.13-.11.13a1.55,1.55,0,0,0-.8-.19c0-.23-.17-.53-.29-.53-.35,0-.3.24-.59.24l.53-.53c.06-.12.06-.12.18-.12s.23.18.41.18a.83.83,0,0,1-.06.35c.18.12.29-.06.4.12s.33.12.33.35m-5.52-5.34c0,.18-.11.24-.22.35a1.25,1.25,0,0,1-.22-.41,1.43,1.43,0,0,1,.06-.53c.16.18.38.41.38.59m2.31,1.74c0,.36-.06.77-.06,1.19-.17,0-.17-.13-.17-.36a6.44,6.44,0,0,0-.3-1,9.84,9.84,0,0,0-.65-1.38c-.06-.24-.35-.36-.59-.53a1.1,1.1,0,0,1,.83.23c0,.12,0,.18.23.36.42,0,.3.53.65.77-.17.15-.23.27-.35.38.18.12.35.17.41.35m-3-3.33a.83.83,0,0,1-1-.06l.48-.21a2,2,0,0,0,.53.27m-1.3-1.34c-.06.25-.3,0-.35,0H70c-.06-.11-.12-.17-.12-.29.24-.06.42-.17.6-.06s.23.35.41.35m5.15,4.62c0,.23-.12.41-.06.64-.12-.35-.36-.71-.48-1,0-.06,0-.06.07-.12s.29,0,.29.06a1.05,1.05,0,0,1,.18.47m3,2.42a2.2,2.2,0,0,1-.12.59c-.4-.06-.4-.54-.46-.59-.28-.36-.67-.06-1-.06-.12-.35.05-.35.05-.6.18,0,.36-.11.53,0,.27-.11.44.19.72.19.06.11.19.41.24.47m1.19,1.66a.81.81,0,0,0-.18.34c0-.28-.36-.46-.6-.94l.24-.42a.75.75,0,0,1,.41.59.37.37,0,0,0,0,.25c0,.06.13.06.13.18m-9.71-10a.74.74,0,0,1-.71-.51,2.69,2.69,0,0,1,0-.7c.11.23.11.35.23.47.24-.12.24.17.3.23a1.55,1.55,0,0,1,.18.51m5,4.34a6,6,0,0,1-1.29-1.36c.47,0,.59.47.94.53a1.72,1.72,0,0,1,.35.36Zm3.68,3.33c-.42,0-.18-.83-1-.83-.16,0-.27.31-.51.36,0-.05.06-.41.06-.41a.53.53,0,0,1,.29-.47c.44,0,.33.17.67.29a1.38,1.38,0,0,0,.53.18Zm1.42.77a1.13,1.13,0,0,1-.18.77l-.36-.53c.13-.18.13-.41.3-.71.06,0,.24.41.24.47M69.29,6.08c0,.06-.12.59-.12.59l-.47.12L69,5.51a2.45,2.45,0,0,1,.3.57m10.22,9.18c-.18,0-.6-.11-.6-.29s-.12-.3-.4-.3a2.12,2.12,0,0,0-.73.18,1.51,1.51,0,0,1-.24-.46,2.78,2.78,0,0,1,.8-.18c.39,0,.81,0,.81.18s.36.28.36.87M80,14c-.42,0-.83-.12-.89-.3s0-.35-.3-.35c-.12,0-.29.17-.29.17s-.44-.17-.44,0-.22.42-.52.42a.74.74,0,0,1-.35-.06v-.59c.76,0,.71-.24,1-.24s.39.12.56.12.13-.12.42-.12.41.24.59.3c0,.17.18.41.18.65m-.18-1.3a3.44,3.44,0,0,0-1.57-.48,2.64,2.64,0,0,0-1.16.54L77,12.22c.36-.06.36-.35.59-.35s.41-.06.57-.06.28-.12.34-.12c.28,0,.17.3.34.3s.3-.12.42-.12c.29,0,.53.47.59.83m-1.35-1.3c-.34,0-.39-.05-.61-.05a1,1,0,0,0-.83.4.49.49,0,0,1,0-.5,1.3,1.3,0,0,1,.71-.41.7.7,0,0,1,.73.56m0-.86a3.48,3.48,0,0,0-1-.29,1.56,1.56,0,0,0-.7.29c-.18-.24.11-.71.35-.82a.43.43,0,0,1,.47,0c0,.35.4.17.62.29a1.35,1.35,0,0,1,.22.53M80,3.81h-.65c-.12-.18-.3,0-.42,0s-.18,0-.4-.18a2,2,0,0,0,.82-.29,2.77,2.77,0,0,1,.65.47m1.77,1.24a.63.63,0,0,0-.54-.35c-.17-.24-.41-.54-.64-.54.18,0,.41-.17.71-.17.11.29.35.47.41.71ZM66.33,19.87c-.06,0,.06.12-.53-.47-.13,0-.3.35-.3.47a5,5,0,0,0,.3,1.59h.47c0-.53.06-1.12.06-1.59m1.25.06c0-.23-.18-.3-.42-.3s-.38.18-.38.3-.11,1.53-.11,1.53h.38a10.09,10.09,0,0,0,.53-1.53m7.72-.71-.59.06a.52.52,0,0,1,.24.47.74.74,0,0,1-.24.48c-.12-.12-.12-.3-.24-.48-.12,0-.17.3-.17.42a2.77,2.77,0,0,0,.41,1.29h.53a10,10,0,0,1-.18-1.41,2.73,2.73,0,0,1,.24-.83M88,13.88a10,10,0,0,0-3-7c-.82-.83-1.72-1.22-2.43-2a4.32,4.32,0,0,1-.86-1.18A3,3,0,0,0,80.92,3l.18.53H81a1.44,1.44,0,0,1-.82-.35l.23-.24c-.06-.11-.23-.11-.36-.11a7.65,7.65,0,0,0-2.72.53v.12c.59.17.7.88,1,1.24h.34c.12,0,.3.11.42.11A1.23,1.23,0,0,0,79,4.46a.22.22,0,0,1,.36,0c.29.17.7-.12,1,.35a1.87,1.87,0,0,0-1,.18c0,.06.17.17.12.29-.3-.12-.66,0-.78-.23l0,0A3.21,3.21,0,0,0,80.09,6c.77.12,1.42-.23,2.17,0a8.45,8.45,0,0,1,4.55,7.38c0,4.34-2.47,6-4,6a1.68,1.68,0,0,1-.92-.34,8.48,8.48,0,0,0,.28-2.38,10.18,10.18,0,0,0-2.35-6.61,3.25,3.25,0,0,0-2.08-1.18,1.09,1.09,0,0,0-.94.29,1.18,1.18,0,0,0-.42,1,3.27,3.27,0,0,1-1.83.54,3.59,3.59,0,0,1-2.2-.83V9c-.17-.05-.76-.41-.47-.68a.93.93,0,0,1,.36.22,2.3,2.3,0,0,0-.36-1.22.78.78,0,0,1-.47-.12A1,1,0,0,1,71,6.5c.17.29.47.17.65.35a14.06,14.06,0,0,0-.71-2c-.12-.53-.65-.82-1-1.18-.17-.12-.23-.29-.45-.29s-.23-.36-.23-.53a1.78,1.78,0,0,1,.35.17A4.28,4.28,0,0,0,68.29.82l-.18.12h-1a4.21,4.21,0,0,1,.53-.29.71.71,0,0,0-.64-.23c-.17,0-.38.23-.61.23h0c0-.18-.06-.41.28-.53a3.08,3.08,0,0,0-1,0c-.06.3-.24.47-.24.7-.18.12-.24.3-.41.48A6.47,6.47,0,0,1,65.2.24c-.23,0-.53.23-.65.23A4.52,4.52,0,0,0,63.25,0c.36.24.19.65.24.94L63.25.82c0-.23-.35-.4-.41-.7a1.61,1.61,0,0,0-.89.3v0a.82.82,0,0,1,.54.35c-.42,0-.71-.17-1.13-.17,0,0,0-.06,0-.06a1.33,1.33,0,0,0-.43.35A2.51,2.51,0,0,0,60,2.12c.11,0,.29,0,.35.06-.24.06-.35.35-.59.41v.87a1.66,1.66,0,0,0-.53.7,10.73,10.73,0,0,0-.36,3.16.47.47,0,0,1-.29.36v.91a6.29,6.29,0,0,1,.53-.44v.74c-.24,0-.41.29-.41.47s0,.47,0,.71a.35.35,0,0,0,.06.23c0-.12.13-.23.3-.29a.51.51,0,0,1,.35-.12,2.52,2.52,0,0,0-.35.65l-.17.18a.57.57,0,0,0-.07.17,17.77,17.77,0,0,0,1.07,3.44A14.63,14.63,0,0,0,58.58,18a1.48,1.48,0,0,0-1.06-.35,1.32,1.32,0,0,0-.93.53.94.94,0,0,0-1.05.12,1.06,1.06,0,0,0-.49,1,1.22,1.22,0,0,0-.36.83,2.19,2.19,0,0,0,.36,1.35h8.86a1.83,1.83,0,0,0-.3-.53,2.76,2.76,0,0,1-.06-1.18,6.47,6.47,0,0,1,.59-1c.06-.18,0-.18.06-.24l.41-.07c.24,0,.42-.17.71-.17.18.24.18-.18.48-.3a1.55,1.55,0,0,1,1.6.47c0,.07.06.07.06.13h-.3A1.46,1.46,0,0,0,66,18.45c0,.13-.06.13-.06.31v.3c.24,0,.42.22.64.34a.92.92,0,0,1,.67-.34.65.65,0,0,1,.71.64v.64a2,2,0,0,0,.83.41.44.44,0,0,1-.48.24h-.47c-.05-.06-.18-.06-.18-.24a4.77,4.77,0,0,0-.41.71h6.84c-.12-.23-.24-.41-.3-.53a4.26,4.26,0,0,1-.11-1.18l.64-.87c.36,0,.66-.12,1.3-.18.12-.18,0-.25.54-.25a2,2,0,0,1,.82.13c.06.12.06.12,0,.24s-.35-.12-.53-.06.06.18.06.3-.53-.12-.53-.12-.12.34-.18.46l.36.35c.11.18-.18.36-.18.53-.12-.05-.36-.23-.36-.17a8.71,8.71,0,0,0-.05,1.35h.64l.06-1c.06-.59.77-1.64,1.19-1.64a1,1,0,0,1,.58.24c.1.22.38.34.38.45s-.16.19-.44.19c-.11,0-.11-.19-.29-.3l-.35.35s.41.36.41.59a.68.68,0,0,1-.24.59l-.35-.7c-.18,0-.47.35-.47.52s-.12.36-.12.71h3.62a2.2,2.2,0,0,0,1.17-.35h.71a4.79,4.79,0,0,0,3.65-1.48A8.15,8.15,0,0,0,88,13.88M65.32,21.46A3.9,3.9,0,0,1,65,19.93a2,2,0,0,1,.17-1l-.65.12c-.17.22-.23.34-.23.45l.29-.11c.06,0,.12.11.18.23-.06.3-.41.3-.53.42-.18.59.35.94.41,1.41Z"/><path class="cls-2" d="M49,15.91v4.2a15,15,0,0,1-6.79,1.77c-6.14,0-9.83-3.6-9.83-8.18a9.3,9.3,0,0,1,9.6-9,10.41,10.41,0,0,1,3.39.58,6.86,6.86,0,0,0,1.69.51c.42,0,.53-.69.59-1.09h.58l.54,5.66h-.71a5.37,5.37,0,0,0-1.53-2.68A6,6,0,0,0,42.17,6c-3.69,0-5.85,2.92-5.85,7.32s2.63,7.29,6.14,7.29a7.24,7.24,0,0,0,3.14-.77V15.5c0-1.38-.22-1.92-2.22-1.92v-.65h7.41v.65c-1.84,0-1.78.59-1.78,2.33"/><path class="cls-2" d="M28.59,9V21.59h-1L15,8.59a5.71,5.71,0,0,1,.06,1v7.91c0,2.42,0,3.3,2.21,3.3v.65H11.4v-.65c2.24,0,2.24-1.06,2.24-3.3v-9c0-1.33,0-2.81-2.36-2.81V5.05h5.58L27.2,15.68a3.83,3.83,0,0,1-.06-.88V9c0-2.33.06-3.33-2.16-3.33V5.05h5.91v.62c-2.19,0-2.3.94-2.3,3.33"/><path class="cls-2" d="M0,21.46v-.65c1.42,0,2.42-.12,2.42-2.17V7.85c0-2.12-.77-2.18-2.42-2.18V5.05H8.32v.62c-1.71,0-2.42.06-2.42,2.18V18.64c0,2.05.89,2.17,2.42,2.17v.65Z"/></g></g></svg>