<svg xmlns="http://www.w3.org/2000/svg" viewBox="0 0 114.12 30.15"><defs><style>.cls-1{fill:#00428a;}</style></defs><title>is-bank</title><g id="Layer_2" data-name="Layer 2"><g id="Layer_1-2" data-name="Layer 1"><polygon class="cls-1" points="0 11.8 0 13.33 2.37 13.33 2.37 19.1 4.13 19.1 4.13 13.32 6.57 13.32 6.57 11.8 0 11.8"/><path class="cls-1" d="M10.62,10.43a.94.94,0,1,1-.94-.94A.94.94,0,0,1,10.62,10.43Z"/><path class="cls-1" d="M13.21,10.43a.94.94,0,1,1-.94-.94A.94.94,0,0,1,13.21,10.43Z"/><polygon class="cls-1" points="23.87 11.8 23.87 19.11 25.54 19.11 25.54 16.92 26.87 15.6 29.15 19.11 31.15 19.11 28.09 14.32 30.52 11.8 28.49 11.8 25.54 14.94 25.54 11.8 23.87 11.8"/><rect class="cls-1" x="32.06" y="11.82" width="1.72" height="7.28"/><path class="cls-1" d="M33.86,10.45a.94.94,0,1,1-.94-.94A.94.94,0,0,1,33.86,10.45Z"/><path class="cls-1" d="M54.94,4.16v.41s1.1,0,1.1,1v6.82L58.83,14V5.57a1,1,0,0,1,1.07-1V4.16Z"/><path class="cls-1" d="M59.16,6.59v.66a4.73,4.73,0,0,1,2.7,4.06h.43V6.6h-.38a1,1,0,0,1-.93.64A5.24,5.24,0,0,1,59.16,6.59Z"/><path class="cls-1" d="M55.71,6.34v.57s-2.54.39-2.54,2.67c0,0-.2,1.8,2.87,3.36L59.83,15s2.74,1.24,3.58,3.45A5.15,5.15,0,0,1,60.92,25a7,7,0,0,1-2.51.69,1.78,1.78,0,0,1,.92,1.57c0,1.12-1.25,2.86-1.8,2.87h-.31s0-.06.11-.25.94-1.11.75-1.64a2.54,2.54,0,0,1-.89.2,1.44,1.44,0,0,1-.26-2.81,9.24,9.24,0,0,1-1.79-.53c-1.35-.49-2.41-1-3.09.21h-.37v-5h.44a6.12,6.12,0,0,0,5.94,4.76,3.53,3.53,0,0,0,3.83-3.36c0-.52,0-2.1-2.55-3.55s-5-2.78-5-2.78a5.18,5.18,0,0,1-2.85-4.47A4.66,4.66,0,0,1,55.71,6.34Z"/><path class="cls-1" d="M56,16.77l2.79,1.58v3.23a1,1,0,0,0,1.08,1V23h-5v-.47s1.1,0,1.1-1Z"/><polygon class="cls-1" points="34.45 11.81 36.45 11.81 38.48 14.88 40.58 11.82 42.52 11.82 39.3 16.2 39.3 19.11 37.64 19.11 37.64 16.2 34.45 11.81"/><polygon class="cls-1" points="43.08 11.79 48.93 11.79 48.93 13.27 44.77 13.27 44.77 14.54 47.15 14.54 47.15 15.93 44.77 15.93 44.77 17.66 49.1 17.66 49.1 19.11 43.07 19.11 43.08 11.79"/><path class="cls-1" d="M59,1.55A1.55,1.55,0,1,0,57.42,3.1,1.55,1.55,0,0,0,59,1.55Z"/><path class="cls-1" d="M71.57,15.17a1.57,1.57,0,0,0,.94-1.51c0-1.21-1.14-1.84-2.58-1.84H66V19.1h4.07s2.73,0,2.73-2.34A1.58,1.58,0,0,0,71.57,15.17Zm-3.92-2H70.1c.79,0,.73.67.73.67a.68.68,0,0,1-.69.69H67.65Zm2.48,4.53H67.66V15.83H70.1s1,.07,1,1A.93.93,0,0,1,70.13,17.71Z"/><path class="cls-1" d="M77.92,11.81H76.25l-3.2,7.28h1.79l.67-1.6h3l.68,1.62H81.1Zm-1.87,4.27,1-2.48,1,2.48Z"/><polygon class="cls-1" points="81.78 11.8 81.78 19.13 83.44 19.13 83.44 14.42 87.06 19.12 88.58 19.12 88.58 11.81 86.87 11.81 86.87 16.46 83.35 11.8 81.78 11.8"/><path class="cls-1" d="M101.53,11.8H99.91L97,18.41l-2.65-4.06,2.52-2.54H94.8l-3,3.19V11.8h-1.7v7.3h1.7V17l1.32-1.35,2.28,3.48h3.06l.66-1.61h3.07l.64,1.61h1.87ZM99.7,16.14l1-2.49,1,2.49Z"/><path class="cls-1" d="M109.74,13.91,111,12.85a4.63,4.63,0,0,0-3-1.16c-1.81,0-3,.91-3,2.19s1,1.8,2.65,2.13,2,.64,1.85,1.2-1.29.62-1.64.59a2.68,2.68,0,0,1-1.92-.85l-1.24,1a4.57,4.57,0,0,0,3.22,1.29c2.05,0,3.29-.79,3.32-2.31S110,15,108.66,14.7l-1.36-.28s-.6-.15-.6-.63.49-.66,1.28-.66A2.47,2.47,0,0,1,109.74,13.91Z"/><rect class="cls-1" x="112.44" y="11.82" width="1.67" height="7.29"/><path class="cls-1" d="M7.55,11.81h1.7v4.32a1.69,1.69,0,0,0,1.68,1.68,1.77,1.77,0,0,0,1.74-1.69V11.81h1.69v4.13A3.13,3.13,0,0,1,11,19.21a3.1,3.1,0,0,1-3.46-3.27Z"/><path class="cls-1" d="M21,16.29a2.16,2.16,0,0,0,1.58-2.11A2.37,2.37,0,0,0,20,11.81H15.82v7.3h1.65V16.49h1.7l1.52,2.61h1.92ZM19.9,15.15H17.47V13.21h2.39a1,1,0,0,1,1,.95A1,1,0,0,1,19.9,15.15Z"/></g></g></svg>