<svg xmlns="http://www.w3.org/2000/svg" viewBox="0 0 123.12 21.6"><defs><style>.cls-1{fill:#231f20;}.cls-1,.cls-2{fill-rule:evenodd;}.cls-2{fill:#f04e23;}</style></defs><title>kocfinans</title><g id="Layer_2" data-name="Layer 2"><g id="Layer_1-2" data-name="Layer 1"><path class="cls-1" d="M59,8.47c0-.5-.17-1-.72-1s-.72.45-.72,1V15c0,.5.18,1,.72,1s.72-.45.72-1V8.47Zm3.44,6.35c0,2.52-2,3.61-4.16,3.61s-4.15-1.09-4.15-3.61V8.66c0-2.52,2-3.61,4.15-3.61s4.15,1.09,4.15,3.61v6.16Zm6.36-6.51c0-.5-.18-1-.77-1s-.77.45-.77,1v6.84c0,.5.19,1,.77,1s.77-.45.77-1V12.9h3.36v2c0,2.57-1.78,3.54-4.27,3.54s-4.21-1.16-4.21-3.78V8.82c0-2.23,1.55-3.8,4.21-3.8,2.27,0,4.27.9,4.27,3.82v1H68.82Zm-4,13.29h6.27V19.16H64.8Z"/><path class="cls-2" d="M35.71,14.23a4.32,4.32,0,0,1-4.57.87,3.1,3.1,0,0,1-1.7-2,3.58,3.58,0,0,0,5.42-.29s1.89-1.75.82-5a5.29,5.29,0,0,0-4.19-3.15,6.33,6.33,0,0,0-6.42,2.71c-1.91,2.93-2.15,6.2-3.54,9.47a1.21,1.21,0,0,1-1.21.75h0a1.24,1.24,0,0,1-1.22-.75c-1.38-3.27-1.62-6.54-3.53-9.47A6.34,6.34,0,0,0,9.14,4.67,5.31,5.31,0,0,0,5,7.82c-1.07,3.28.82,5,.82,5a3.59,3.59,0,0,0,5.43.29,3.16,3.16,0,0,1-1.7,2,4.34,4.34,0,0,1-4.58-.87A6.31,6.31,0,0,1,3.44,7.45a7,7,0,0,1,6.07-4.4,8.8,8.8,0,0,1,7.87,4.2c.33.65,1.06,2.32,1.06,2.32H22.2s.72-1.67,1.07-2.32a8.76,8.76,0,0,1,7.87-4.2,7,7,0,0,1,6.06,4.4,6.31,6.31,0,0,1-1.49,6.78m4.45-7.54C38,.37,31.64,0,31,0a11.63,11.63,0,0,0-8.32,3.24,14.8,14.8,0,0,0-2.36,2.92h0A15.12,15.12,0,0,0,18,3.24,11.67,11.67,0,0,0,9.64,0C9,0,2.68.37.48,6.69A9.53,9.53,0,0,0,1.05,14a7.41,7.41,0,0,0,6.87,4.31,6,6,0,0,0,5.31-3.58,5.19,5.19,0,0,0-1.16-5.69,2.1,2.1,0,0,1-.37,1.56,2.32,2.32,0,0,1-2.82.76A1.86,1.86,0,0,1,7.66,9.34,2.16,2.16,0,0,1,9,7.65a3.11,3.11,0,0,1,3.62.83c1.89,2.11,2.12,5.31,3,7.73.63,2,1.64,3.74,3.85,4.24a3.22,3.22,0,0,0,.82.08h0a3.22,3.22,0,0,0,.82-.08c2.21-.5,3.22-2.24,3.86-4.24.9-2.42,1.11-5.62,3-7.73a3.11,3.11,0,0,1,3.62-.83A2.16,2.16,0,0,1,33,9.34a1.84,1.84,0,0,1-1.22,2.05,2.32,2.32,0,0,1-2.82-.76,2.09,2.09,0,0,1-.36-1.56,5.16,5.16,0,0,0-1.16,5.69,6,6,0,0,0,5.3,3.58A7.41,7.41,0,0,0,39.59,14a9.53,9.53,0,0,0,.57-7.34"/><path class="cls-1" d="M78.21,7.94v9.92H74.88V7.94H73.77V5.36h1.11V3a2,2,0,0,1,2.23-2h2.21V3c-.85,0-1,.52-1,1V5.36H79.4V7.94Zm2.7,9.92h3.33V5.1H80.91Zm0-14.18h3.33V1H80.91ZM91,17.86l0-8.65C91,8.63,90.92,8,90.22,8s-.72.64-.72,1.22v8.65H86V5.1H89.5v1a3.35,3.35,0,0,1,2.37-1.3,2.51,2.51,0,0,1,2.62,2.84V17.86Zm9.68-6.42c-.81.52-1.39.78-1.39,1.85v1.56c0,.75.21,1,.7,1s.69-.29.69-1V11.44Zm.18,6.42-.15-.63a3,3,0,0,1-2.52.95,2.5,2.5,0,0,1-2.35-2.78l0-2.17c.06-3.53,4.87-2.46,4.87-5.09,0-.55,0-1-.66-1s-.79.46-.79,1V9.21H95.82V8.14c0-2.29,2-3.36,4.21-3.36,2.84,0,4.14,1.59,4.14,3.33v9.75Zm9.48,0,0-8.65c0-.58-.06-1.22-.76-1.22s-.73.64-.73,1.22v8.65H105.3V5.1h3.54v1a3.39,3.39,0,0,1,2.38-1.3,2.51,2.51,0,0,1,2.62,2.84V17.86Zm8.33.32c-2.18,0-3.86-1.24-3.86-3.68V13.4H118l0,1.16c0,.7.35,1.28.9,1.3s.84-.43.84-1c0-2.31-5-3.15-5-6.34,0-2.45,1.74-3.67,3.94-3.67,2.59,0,4.24,1.71,4.24,3.53v1h-3.16l0-1.05a.86.86,0,0,0-.9-1c-.52,0-.75.35-.75.9,0,1.44,5,2.78,5,6.33,0,2.67-1.6,3.65-4.5,3.65M50.26,8.08,53.71,1H50L47.52,6.23V1H43.74V17.89h3.78v-5l.55-.93,2.16,5.93H54Z"/></g></g></svg>