<svg xmlns="http://www.w3.org/2000/svg" viewBox="0 0 96.78 22.39"><defs><style>.cls-1{fill:#00684b;}.cls-2{fill:#c99c00;}</style></defs><title>kuveytturk</title><g id="Layer_2" data-name="Layer 2"><g id="Layer_1-2" data-name="Layer 1"><path class="cls-1" d="M0,11.19a11.2,11.2,0,1,1,11.19,11.2A11.19,11.19,0,0,1,0,11.19"/><path class="cls-1" d="M43.4,8.52v2.86a2.94,2.94,0,0,0,.88,2.28l.28.29.29-.29a3,3,0,0,0,.86-2.28V8.52h1.88v2.86a5.23,5.23,0,0,1-2,4.18H43.51a5.23,5.23,0,0,1-2-4.18V8.52Z"/><path class="cls-1" d="M26.13,6.89H28v3.46h.52l2-3.46h2.17l-2,3.53c1.67.2,1.88.93,1.88,2.33v2.81H30.67V12.79c0-.8-.45-.81-1.23-.81H28v3.58H26.13Z"/><polygon class="cls-1" points="67.92 10.15 66.12 10.15 66.12 15.56 64.24 15.56 64.24 10.15 62.44 10.15 62.44 8.52 67.92 8.52 67.92 10.15"/><polygon class="cls-1" points="38.19 8.52 40.06 8.52 40.06 15.56 34 15.56 34 8.52 35.88 8.52 35.88 14.02 38.19 14.02 38.19 8.52"/><polygon class="cls-1" points="54.11 10.06 50.91 10.06 50.91 11.26 53.91 11.26 53.91 12.8 50.91 12.8 50.91 14.02 54.18 14.02 54.18 15.56 49.03 15.56 49.03 8.52 54.11 8.52 54.11 10.06"/><path class="cls-1" d="M59.48,10.33V8.52h1.87v1.93c0,1.59-.63,2.21-2.09,2.36v2.75H57.38V12.81c-1.87-.18-2.09-.91-2.09-2.36V8.52h1.88v1.89c0,.8.45.81,1.24.81s1.07-.07,1.07-.89"/><path class="cls-1" d="M79.43,13.09V8.52h1.88v4.69c0,1.88-.89,2.41-3,2.41-2.81,0-3.11-.72-3.11-2.41V8.52h1.87v4.66c0,.79.45.8,1.24.8s1.07-.06,1.07-.89"/><path class="cls-1" d="M79.43,13.09V8.52h1.88v4.69c0,1.88-.89,2.41-3,2.41-2.81,0-3.11-.72-3.11-2.41V8.52h1.87v4.66c0,.79.45.8,1.24.8s1.07-.06,1.07-.89"/><path class="cls-1" d="M90.26,8.52h1.87v2.65h.56l1.9-2.65h2.19l-2,2.72c1.64.21,1.84.94,1.84,2.33v2H94.79v-2c0-.8-.45-.81-1.23-.81H92.13v2.76H90.26Z"/><path class="cls-1" d="M86.9,15.56l-1.48-2.07h-.78v2.07H82.76v-7h6v5H87.61l1.48,2.07Zm0-5.41H84.64v1.71h2.29Z"/><polygon class="cls-1" points="74.77 8.52 72.52 8.52 72.52 15.56 70.64 15.56 70.64 8.52 68.39 8.52 68.39 6.89 74.77 6.89 74.77 8.52"/><rect class="cls-1" x="78.73" y="6.19" width="1.39" height="1.39" transform="translate(18.38 58.17) rotate(-44.98)"/><rect class="cls-1" x="76.43" y="6.19" width="1.39" height="1.39" transform="translate(17.71 56.55) rotate(-44.99)"/><path class="cls-2" d="M10,22.32l3.64-2.15-.7,2.09a11.82,11.82,0,0,1-1.7.13c-.42,0-.83,0-1.24-.07m.76-11L5.49,8a3.61,3.61,0,0,0-1.95-.66H1.78L5.28,5.2a1.68,1.68,0,0,1,2.35.55ZM.6,11.84l1.13-1.4C2.65,9.3,3.49,8.21,6,9.51l4.52,2.33Zm11-.5,3.12-5.59A1.68,1.68,0,0,1,17.1,5.2l3.51,2.11H18.85a3.61,3.61,0,0,0-2,.66Zm10.15.5H11.85l4.53-2.33c2.52-1.3,3.36-.21,4.28.93ZM11.2,11.22S9.32,5.82,9,4.73A1.15,1.15,0,0,1,9,3.55L11.2.72l2.15,2.83a1.15,1.15,0,0,1,.07,1.18c-.36,1.09-2.22,6.49-2.22,6.49m.61,8,1.85-1.14L12.94,20ZM10,12.54h2.32l-1.1.87Zm.11,2,3.48-2.1L13,14.24l-1.7,1Zm-1.31-.13,3.5,2-1.16.78-1.74-1Zm1.36,3.92,3.43-2.07-.55,1.66-1.79,1.21Zm-1.36-.12,3.47,2.1L11.26,21l-1.8-1Zm3-2.69,1.85-1.15-.72,1.89Zm-3-3.12,1.89,1.14-1.11.8Zm0,3.88,1.81,1.12-1.07.73Zm1.8,4.95-1.12.7-.75-1.8Z"/></g></g></svg>