<svg xmlns="http://www.w3.org/2000/svg" viewBox="0 0 1098.1 362.3"><defs><style>.a{fill:#0075eb;}.b{fill:#181c1f;}</style></defs><title>Asset 1</title><path class="a" d="M291.7,362.3a42.4,42.4,0,0,1-31.5-14.1L126.3,197.9,81.7,319.1A42.1,42.1,0,0,1,2.6,290L71.5,102.9a42.2,42.2,0,0,1,71-13.5L251,211.2l2.2-169.6a42.2,42.2,0,0,1,84.3,1.1l-3.7,278a42.3,42.3,0,0,1-42.1,41.6Z"/><path class="b" d="M399.7,119.4a17.7,17.7,0,0,1,4.9-12.7c3.3-3.5,7.7-5.2,13.2-5.2a18.9,18.9,0,0,1,13,4.7c3.5,3.2,5.2,7.6,5.2,13.2v52.4l59.6-63.5a24.1,24.1,0,0,1,5.5-4.5,15.5,15.5,0,0,1,8.6-2.3,18.2,18.2,0,0,1,12.4,4.8,16.1,16.1,0,0,1,5.5,12.6,15.9,15.9,0,0,1-2.9,9.1,71.8,71.8,0,0,1-9,10.3l-45.8,45.1,56,58.4a59.7,59.7,0,0,1,7.2,8.6,16.5,16.5,0,0,1,3,9.8q0,8.4-5.7,12.6a22.2,22.2,0,0,1-13.2,4.1,15.9,15.9,0,0,1-9.4-2.9,66.5,66.5,0,0,1-9.1-8.5L436,197.7v61.8a16.9,16.9,0,0,1-5,12.2c-3.3,3.5-7.7,5.2-13.2,5.2a18.6,18.6,0,0,1-12.9-4.7c-3.5-3.2-5.2-7.4-5.2-12.7Z"/><path class="b" d="M614.6,278.4a81.4,81.4,0,0,1-33.8-7,78.5,78.5,0,0,1-26.4-18.8,83.4,83.4,0,0,1-17.1-28.3,98.1,98.1,0,0,1-6.1-35.1,98.1,98.1,0,0,1,6.1-35.1,83,83,0,0,1,17.1-28.2A80,80,0,0,1,580.6,107a81.7,81.7,0,0,1,34-6.9,80.1,80.1,0,0,1,59.9,26.1,86.8,86.8,0,0,1,17.2,28.4,96.6,96.6,0,0,1,6.2,34.6,98.1,98.1,0,0,1-6.1,35.1,86.3,86.3,0,0,1-16.9,28.3,79.1,79.1,0,0,1-26.3,18.8A82.4,82.4,0,0,1,614.6,278.4Zm0-33.5c7.7,0,14.4-1.5,20.1-4.6a42.4,42.4,0,0,0,14.1-12.2,51.9,51.9,0,0,0,8.5-17.7,79.9,79.9,0,0,0-.1-42.3,53.6,53.6,0,0,0-8.6-17.8,42.9,42.9,0,0,0-14.2-12.2c-5.6-3.1-12.3-4.6-19.8-4.6s-14.3,1.5-19.9,4.6a42.9,42.9,0,0,0-14.2,12.2,53.6,53.6,0,0,0-8.6,17.8,79.9,79.9,0,0,0-.1,42.3,53.8,53.8,0,0,0,8.5,17.7,42.4,42.4,0,0,0,14.1,12.2C600.1,243.4,606.8,244.9,614.6,244.9Z"/><path class="b" d="M712.3,120.4c0-6.1,1.7-10.8,5.2-14.1a18.2,18.2,0,0,1,12.9-4.8,18.5,18.5,0,0,1,13,4.8c3.5,3.3,5.2,8,5.2,14.1V242h43.1a17.8,17.8,0,0,1,8,1.6,14.5,14.5,0,0,1,5.5,4.1,20.2,20.2,0,0,1,3,5.6,21.7,21.7,0,0,1,1,6.2,18.8,18.8,0,0,1-5,11c-3,3.3-7.1,4.9-12.5,4.9H731.2c-6,0-10.7-1.7-14-5.3s-4.9-8.4-4.9-14.5Z"/><path class="b" d="M873.8,120.2a33.6,33.6,0,0,1,9.9-14.3,23.9,23.9,0,0,1,16-5.8,24.4,24.4,0,0,1,16.3,5.6,34.4,34.4,0,0,1,9.7,14.5L973.1,252a21,21,0,0,1,1.6,5.3c.2,1.6.4,2.8.4,3.6a14.8,14.8,0,0,1-5,11.5,16.8,16.8,0,0,1-11.7,4.5c-5.2,0-9.1-1.2-11.8-3.5a21.2,21.2,0,0,1-5.9-9.1l-7.3-22.8H866.1l-7.3,22.6a23.2,23.2,0,0,1-5.9,9.2c-2.7,2.4-6.5,3.6-11.6,3.6a18.4,18.4,0,0,1-12.6-4.8,16,16,0,0,1-5.3-12.2,17.3,17.3,0,0,1,.6-4.9,18.1,18.1,0,0,1,1.1-3Zm2.7,87.9h46L900,137.8h-.5Z"/><path class="b" d="M1012.6,194.5l-45.8-64.4a19,19,0,0,1-3.4-10.9,17.9,17.9,0,0,1,4.9-12.5c3.2-3.5,7.4-5.2,12.6-5.2s11.6,2.4,15,7.3l34.9,50.6,34.9-50.6c3.4-4.9,8.4-7.3,15-7.3s9.4,1.7,12.6,5.2a17.8,17.8,0,0,1,4.8,12.5,18.3,18.3,0,0,1-3.4,10.9L1049,194.5v64.7a19.5,19.5,0,0,1-4.3,12.2c-2.8,3.7-7.4,5.5-13.9,5.5s-11.1-1.8-13.9-5.5a19,19,0,0,1-4.3-12.2Z"/></svg>