<?xml version="1.0" encoding="UTF-8"?>
<!-- Generator: Adobe Illustrator 25.4.1, SVG Export Plug-In . SVG Version: 6.00 Build 0)  -->
<svg version="1.1" id="katman_1" xmlns="http://www.w3.org/2000/svg" xmlns:xlink="http://www.w3.org/1999/xlink" x="0px" y="0px" viewBox="0 0 300 140" style="enable-background:new 0 0 300 140;" xml:space="preserve">
<style type="text/css">
	.st0{fill:#00FF00;}
	.st1{fill:#0107DE;}
</style>
<g>
	<g>
		<path class="st0" d="M188.7,3H7.2C4.3,3,2,5.3,2,8.2v85.6c0,2.9,2.3,5.2,5.2,5.2h181.5c2.9,0,5.2-2.3,5.2-5.2V8.2    C193.9,5.3,191.6,3,188.7,3z"/>
		<path class="st1" d="M236.6,5.3l27.9,41.9c0.8,1.2,2.6,0.6,2.6-0.8V8.2c0-2.9,2.3-5.2,5.2-5.2h21.6c2.9,0,5.2,2.3,5.2,5.2v85.6    c0,2.9-2.3,5.2-5.2,5.2h-24c-1.7,0-3.3-0.8-4.3-2.3l-27.9-41.8c-0.8-1.2-2.6-0.6-2.6,0.8v38.2c0,2.9-2.3,5.2-5.2,5.2h-21.6    c-2.9,0-5.2-2.3-5.2-5.2V8.2c0-2.9,2.3-5.2,5.2-5.2h24C234.1,3,235.7,3.8,236.6,5.3z"/>
		<path class="st1" d="M97.9,8.2v85.6c0,2.9,2.3,5.2,5.2,5.2h85.6c2.9,0,5.2-2.3,5.2-5.2V8.2c0-2.9-2.3-5.2-5.2-5.2h-85.6    C100.3,3,97.9,5.3,97.9,8.2z M156.7,67H135c-2.9,0-5.2-2.3-5.2-5.2V40.1c0-2.9,2.3-5.2,5.2-5.2h21.7c2.9,0,5.2,2.3,5.2,5.2v21.7    C161.9,64.7,159.6,67,156.7,67z"/>
	</g>
	<g>
		<path class="st1" d="M15.6,120.7c0,3.8-3.1,6.8-7,6.8s-7-3-7-6.8c0-3.8,3.1-6.7,7-6.7S15.6,116.9,15.6,120.7z M3.1,120.7    c0,2.9,2.5,5.3,5.5,5.3s5.4-2.4,5.4-5.3s-2.4-5.3-5.4-5.3C5.6,115.4,3.1,117.7,3.1,120.7z"/>
		<path class="st1" d="M28,127.4l-8.1-10.8v10.8h-1.5v-13.5H20l8.1,10.8v-10.8h1.5v13.5H28L28,127.4z"/>
		<path class="st1" d="M49,122.3c0,3-1.9,5.1-4.8,5.1c-1.8,0-3.2-0.8-3.9-2.2v2.2h-1.5v-14.2h1.5v6.3c0.8-1.4,2.2-2.2,3.9-2.2    C47,117.2,49,119.3,49,122.3z M47.5,122.3c0-2.2-1.5-3.8-3.6-3.8c-2.2,0-3.6,1.6-3.6,3.8c0,2.2,1.5,3.8,3.6,3.8    C46,126,47.5,124.5,47.5,122.3z"/>
		<path class="st1" d="M53.4,114.4c0,0.6-0.4,1-1,1s-1-0.4-1-1c0-0.6,0.4-1,1-1S53.4,113.8,53.4,114.4z M51.6,127.4v-10.1h1.5v10.1    H51.6z"/>
		<path class="st1" d="M58.2,119.5c0.7-1.5,1.9-2.3,3.6-2.3v1.5c-2.2,0-3.5,1.2-3.6,3.3v5.4h-1.5v-10.1h1.5V119.5z"/>
		<path class="st1" d="M75,113.9c2.7,0,4.3,1.2,4.3,3.3c0,1.6-0.9,2.7-2.5,3.1c1.9,0.3,3.1,1.5,3.1,3.4c0,2.3-1.8,3.6-4.8,3.6h-5.8    v-13.5L75,113.9L75,113.9z M70.9,119.8h4c1.8,0,2.9-0.8,2.9-2.2c0-1.4-1-2.2-2.9-2.2h-4V119.8z M70.9,125.9h4    c2.2,0,3.4-0.8,3.4-2.4c0-1.5-1.2-2.3-3.4-2.3h-4V125.9z"/>
		<path class="st1" d="M91.6,127.4h-1.5V125c-0.7,1.6-2,2.3-3.8,2.4c-2.4,0-3.8-1.5-3.8-3.9v-6.3H84v5.9c0,1.8,1,2.9,2.8,2.9    c2.1,0,3.3-1.5,3.3-3.7v-4.9h1.5V127.4L91.6,127.4z"/>
		<path class="st1" d="M96.8,119.5c0.7-1.5,1.9-2.3,3.6-2.3v1.5c-2.2,0-3.5,1.2-3.6,3.3v5.4h-1.5v-10.1h1.5V119.5z"/>
		<path class="st1" d="M111.2,126.3c0,2.9-2,4.8-5.1,4.8c-1.6,0-2.9-0.5-4.1-1.5l0.7-1.1c1,0.8,2,1.2,3.4,1.2c2.2,0,3.6-1.3,3.6-3.5    v-1.5c-0.7,1.3-2,2.1-3.7,2.1c-2.7,0-4.6-2-4.6-4.9c0-2.8,1.9-4.8,4.6-4.8c1.7,0,3.1,0.8,3.8,2.1v-2.1h1.5L111.2,126.3    L111.2,126.3L111.2,126.3z M109.7,122.1c0-2.1-1.5-3.6-3.5-3.6c-2,0-3.5,1.5-3.5,3.6c0,2.1,1.5,3.6,3.5,3.6    C108.3,125.7,109.7,124.1,109.7,122.1z"/>
		<path class="st1" d="M120.9,125.8c-0.8,1.1-2.1,1.6-3.7,1.6c-2.1,0-3.4-1.3-3.4-3.1c0-1.7,1.4-2.9,3.8-2.9h3.3v-0.6    c0-1.5-0.9-2.4-2.7-2.4c-1.1,0-2.2,0.4-3.2,1.1l-0.6-1.1c1.3-0.8,2.4-1.4,4.1-1.4c2.5,0,3.9,1.3,3.9,3.5v6.7h-1.5L120.9,125.8    L120.9,125.8z M120.9,123.9v-1.2h-3.1c-1.7,0-2.6,0.5-2.6,1.6c0,1.1,0.9,1.8,2.3,1.8C119.2,126.2,120.5,125.3,120.9,123.9z"/>
		<path class="st1" d="M134.9,121.2v6.3h-1.5v-5.9c0-1.8-1-2.9-2.9-2.9c-2,0-3.2,1.3-3.4,3.2v5.4h-1.5v-10.1h1.5v2.2    c0.7-1.5,2.1-2.2,3.9-2.3C133.5,117.2,134.9,118.7,134.9,121.2z"/>
		<path class="st1" d="M149.3,113.9c2.7,0,4.3,1.2,4.3,3.3c0,1.6-0.9,2.7-2.4,3.1c1.9,0.3,3.1,1.5,3.1,3.4c0,2.3-1.8,3.6-4.8,3.6    h-5.8v-13.5L149.3,113.9L149.3,113.9z M145.2,119.8h4c1.8,0,2.9-0.8,2.9-2.2c0-1.4-1-2.2-2.9-2.2h-4V119.8z M145.2,125.9h4    c2.2,0,3.5-0.8,3.5-2.4c0-1.5-1.2-2.3-3.4-2.3h-4L145.2,125.9L145.2,125.9z"/>
		<path class="st1" d="M163.5,125.8c-0.8,1.1-2.1,1.6-3.7,1.6c-2.1,0-3.4-1.3-3.4-3.1c0-1.7,1.4-2.9,3.8-2.9h3.3v-0.6    c0-1.5-0.9-2.4-2.7-2.4c-1.1,0-2.2,0.4-3.2,1.1l-0.6-1.1c1.3-0.8,2.4-1.4,4.1-1.4c2.5,0,3.9,1.3,3.9,3.5v6.7h-1.5V125.8    L163.5,125.8z M163.5,123.9v-1.2h-3.1c-1.7,0-2.6,0.5-2.6,1.6c0,1.1,0.9,1.8,2.3,1.8C161.8,126.2,163.1,125.3,163.5,123.9z"/>
		<path class="st1" d="M177.5,121.2v6.3H176v-5.9c0-1.8-1-2.9-2.9-2.9c-2,0-3.2,1.3-3.4,3.2v5.4h-1.5v-10.1h1.5v2.2    c0.7-1.5,2.1-2.2,3.9-2.3C176.1,117.2,177.5,118.7,177.5,121.2z"/>
		<path class="st1" d="M182.5,124.5v2.9H181v-14.2h1.5v9.3l5.2-5.2h1.7l-3.8,3.9l4.2,6.2H188l-3.5-5.1L182.5,124.5z"/>
		<path class="st1" d="M213.8,121.2v6.3h-1.5v-5.9c0-1.8-1-2.9-2.8-2.9c-2.1,0.1-3.3,1.5-3.3,3.7v4.9h-1.5v-5.9c0-1.8-1-2.9-2.8-2.9    c-2.1,0.1-3.3,1.5-3.3,3.7v4.9h-1.5v-10.1h1.5v2.3c0.7-1.6,2-2.3,3.8-2.4c1.9,0,3.2,1,3.6,2.6c0.6-1.8,2.1-2.6,4-2.6    C212.4,117.2,213.8,118.7,213.8,121.2z"/>
		<path class="st1" d="M223.4,125.8c-0.8,1.1-2.1,1.6-3.7,1.6c-2.1,0-3.4-1.3-3.4-3.1c0-1.7,1.4-2.9,3.8-2.9h3.3v-0.6    c0-1.5-0.9-2.4-2.7-2.4c-1.1,0-2.2,0.4-3.2,1.1l-0.6-1.1c1.3-0.8,2.4-1.4,4.1-1.4c2.5,0,3.9,1.3,3.9,3.5v6.7h-1.5L223.4,125.8    L223.4,125.8z M223.3,123.9v-1.2h-3.1c-1.7,0-2.6,0.5-2.6,1.6c0,1.1,0.9,1.8,2.3,1.8C221.7,126.2,223,125.3,223.3,123.9z"/>
		<path class="st1" d="M229.7,119.5c0.7-1.5,1.9-2.3,3.6-2.3v1.5c-2.2,0-3.5,1.2-3.6,3.3v5.4h-1.5v-10.1h1.5V119.5z"/>
		<path class="st1" d="M236.9,124.5v2.9h-1.5v-14.2h1.5v9.3l5.2-5.2h1.7l-3.8,3.9l4.2,6.2h-1.8l-3.5-5.1L236.9,124.5z"/>
		<path class="st1" d="M252,125.8c-0.8,1.1-2.1,1.6-3.7,1.6c-2.1,0-3.4-1.3-3.4-3.1c0-1.7,1.4-2.9,3.8-2.9h3.3v-0.6    c0-1.5-0.9-2.4-2.7-2.4c-1.1,0-2.2,0.4-3.2,1.1l-0.6-1.1c1.3-0.8,2.4-1.4,4.1-1.4c2.5,0,3.9,1.3,3.9,3.5v6.7H252L252,125.8    L252,125.8z M252,123.9v-1.2h-3.1c-1.7,0-2.6,0.5-2.6,1.6c0,1.1,0.9,1.8,2.3,1.8C250.3,126.2,251.6,125.3,252,123.9z"/>
		<path class="st1" d="M262.7,118.2l-0.5,1.2c-0.8-0.5-1.8-0.8-2.7-0.8c-1.1,0-2,0.4-2,1.3c0,2.2,5.6,1.1,5.6,4.7    c0,2-1.7,2.9-3.7,2.9c-1.5,0-2.9-0.5-3.9-1.4l0.5-1.1c0.8,0.8,2.2,1.2,3.3,1.2c1.2,0,2.2-0.4,2.2-1.5c0.1-2.4-5.6-1.2-5.6-4.8    c0-1.9,1.7-2.7,3.5-2.7C260.7,117.2,261.9,117.5,262.7,118.2z"/>
		<path class="st1" d="M265.5,127.4v-10.1h1.5v10.1H265.5z"/>
		<path class="st1" d="M279.9,127.4h-1.5v-2.2c-0.8,1.4-2.2,2.2-3.9,2.2c-2.9,0-4.9-2.2-4.9-5.2c0-3.1,2-5.2,4.9-5.2    c1.8,0,3.2,0.8,4,2.2V113h1.5L279.9,127.4L279.9,127.4L279.9,127.4z M278.4,122.3c0-2.2-1.5-3.8-3.6-3.8c-2.2,0-3.7,1.6-3.7,3.8    c0,2.2,1.5,3.8,3.7,3.8C276.9,126.1,278.4,124.5,278.4,122.3z"/>
		<path class="st1" d="M283.7,127.4v-10.1h1.5v10.1H283.7z"/>
		<path class="st1" d="M290.3,119.5c0.7-1.5,1.9-2.3,3.6-2.3v1.5c-2.2,0-3.5,1.2-3.6,3.3v5.4h-1.5v-10.1h1.5V119.5z"/>
		<path class="st1" d="M296.9,126.5c0,0.5-0.4,1-0.9,1c-0.5,0-1-0.4-1-1c0-0.5,0.4-1,1-1C296.5,125.5,296.9,126,296.9,126.5z"/>
	</g>
</g>
</svg>