<svg xmlns="http://www.w3.org/2000/svg" xmlns:xlink="http://www.w3.org/1999/xlink" viewBox="0 0 78.47 23.58"><defs><style>.cls-1{fill:none;clip-rule:evenodd;}.cls-2{fill:#868685;}.cls-11,.cls-2{fill-rule:evenodd;}.cls-3{clip-path:url(#clip-path);}.cls-4{fill:url(#linear-gradient);}.cls-5{clip-path:url(#clip-path-2);}.cls-6{fill:url(#linear-gradient-2);}.cls-7{clip-path:url(#clip-path-3);}.cls-8{fill:url(#linear-gradient-3);}.cls-9{clip-path:url(#clip-path-4);}.cls-10{fill:url(#linear-gradient-4);}.cls-11{fill:#00193e;}</style><clipPath id="clip-path"><path class="cls-1" d="M.45,11.76a7.52,7.52,0,0,1,.09-1.15H5.91L1.79,6.48A10.18,10.18,0,0,1,3.16,4.43l6.26,6.26a1.49,1.49,0,0,1,.44,1.07,1.47,1.47,0,0,1-.44,1.06L3.16,19.09A10.52,10.52,0,0,1,1.79,17L5.91,12.9H.54a7.49,7.49,0,0,1-.09-1.14"/></clipPath><linearGradient id="linear-gradient" x1="0.45" y1="11.76" x2="9.86" y2="11.76" gradientUnits="userSpaceOnUse"><stop offset="0" stop-color="#003a73"/><stop offset="0.35" stop-color="#003a73"/><stop offset="0.73" stop-color="#0062ae"/><stop offset="1" stop-color="#0062ae"/></linearGradient><clipPath id="clip-path-2"><path class="cls-1" d="M11.76.45A7.49,7.49,0,0,1,12.9.54V5.91L17,1.79a10.52,10.52,0,0,1,2.06,1.37L12.82,9.42a1.47,1.47,0,0,1-1.06.44,1.49,1.49,0,0,1-1.07-.44L4.43,3.16A10.18,10.18,0,0,1,6.48,1.79l4.13,4.12V.54A7.52,7.52,0,0,1,11.76.45"/></clipPath><linearGradient id="linear-gradient-2" x1="4.43" y1="5.15" x2="19.09" y2="5.15" gradientUnits="userSpaceOnUse"><stop offset="0" stop-color="#aa004c"/><stop offset="0.35" stop-color="#aa004c"/><stop offset="0.61" stop-color="#760030"/><stop offset="1" stop-color="#1a1a18"/></linearGradient><clipPath id="clip-path-3"><path class="cls-1" d="M23.07,11.76A6.43,6.43,0,0,1,23,12.9H17.6L21.73,17a11.5,11.5,0,0,1-1.37,2.06l-6.27-6.27a1.51,1.51,0,0,1-.44-1.06,1.53,1.53,0,0,1,.44-1.07l6.27-6.26a11.1,11.1,0,0,1,1.37,2.05L17.6,10.61H23a6.46,6.46,0,0,1,.1,1.15"/></clipPath><linearGradient id="linear-gradient-3" x1="13.65" y1="11.76" x2="23.07" y2="11.76" gradientUnits="userSpaceOnUse"><stop offset="0" stop-color="#0062ae"/><stop offset="0.27" stop-color="#0062ae"/><stop offset="0.65" stop-color="#003a73"/><stop offset="1" stop-color="#003a73"/></linearGradient><clipPath id="clip-path-4"><path class="cls-1" d="M11.76,23.07a6.46,6.46,0,0,1-1.15-.1V17.6L6.48,21.73a11.1,11.1,0,0,1-2.05-1.37l6.26-6.27a1.53,1.53,0,0,1,1.07-.44,1.51,1.51,0,0,1,1.06.44l6.27,6.27A11.5,11.5,0,0,1,17,21.73L12.9,17.6V23a6.43,6.43,0,0,1-1.14.1"/></clipPath><linearGradient id="linear-gradient-4" x1="11.76" y1="23.07" x2="11.76" y2="13.65" xlink:href="#linear-gradient"/></defs><title>QNB</title><g id="Layer_2" data-name="Layer 2"><g id="Layer_1-2" data-name="Layer 1"><path class="cls-2" d="M10.16,18.68,6.58,22.27l-.29-.14A10.58,10.58,0,0,1,4.14,20.7l-.38-.31,6.62-6.62a2,2,0,0,1,1.38-.57,2,2,0,0,1,1.38.57l6.61,6.62-.38.31a10.52,10.52,0,0,1-2.14,1.43l-.29.14-3.59-3.59v4.67l-.37.06a7.17,7.17,0,0,1-1.22.1,7.09,7.09,0,0,1-1.22-.1l-.38-.06Zm8.52-5.33,3.59,3.59-.14.29a10.52,10.52,0,0,1-1.43,2.14l-.31.38-6.62-6.61a2,2,0,0,1-.57-1.38,2,2,0,0,1,.57-1.38l6.62-6.62.31.38a10.58,10.58,0,0,1,1.43,2.15l.14.29-3.59,3.58h4.67l.06.38a7.09,7.09,0,0,1,.1,1.22,7.17,7.17,0,0,1-.1,1.22l-.06.37ZM13.35,4.83l3.59-3.58.29.13a11.41,11.41,0,0,1,2.14,1.43l.38.31L13.14,9.74a2,2,0,0,1-1.38.57,1.92,1.92,0,0,1-1.38-.57L3.76,3.12l.38-.31A11.48,11.48,0,0,1,6.29,1.38l.29-.13,3.58,3.58V.17L10.54.1A7.09,7.09,0,0,1,11.76,0,7.17,7.17,0,0,1,13,.1l.37.07ZM4.83,10.16,1.25,6.58l.13-.29A11.48,11.48,0,0,1,2.81,4.14l.31-.38,6.62,6.62a1.92,1.92,0,0,1,.57,1.38,2,2,0,0,1-.57,1.38L3.12,19.75l-.31-.38a11.41,11.41,0,0,1-1.43-2.14l-.13-.29,3.58-3.59H.17L.1,13A7.17,7.17,0,0,1,0,11.76a7.09,7.09,0,0,1,.1-1.22l.07-.38Z"/><g class="cls-3"><rect class="cls-4" x="0.45" y="4.43" width="9.41" height="14.66"/></g><g class="cls-5"><rect class="cls-6" x="4.43" y="0.45" width="14.66" height="9.41"/></g><g class="cls-7"><rect class="cls-8" x="13.65" y="4.43" width="9.41" height="14.66"/></g><g class="cls-9"><rect class="cls-10" x="4.43" y="13.65" width="14.66" height="9.41"/></g><path class="cls-11" d="M56.55,2.74h4.57a1.55,1.55,0,0,1,1.56,1.55v.14A1.7,1.7,0,0,1,61,6.12H57.27c0,1.09.52,1.81,1.36,1.81h2.52c.91,0,2.11.65,2.11,1.55v.14a1.7,1.7,0,0,1-1.7,1.7h-5V2.74ZM41.62,1h1.25a2.13,2.13,0,0,1,1.43.64l6.19,8.07V1h2V13.12H51.22a1.28,1.28,0,0,1-1.07-.59L43.6,4.11v9h-2Zm-8.4,8,2.26,2.3a4,4,0,0,1-1.82.42c-2.43,0-4.1-2-4.1-4.66s1.64-4.67,4.1-4.67,4.1,2,4.1,4.67a5.22,5.22,0,0,1-.88,3l-1-1A1.93,1.93,0,0,0,33.22,9ZM33.66.71a6.12,6.12,0,0,1,6.27,6.38,6.43,6.43,0,0,1-1.66,4.42l1.6,1.62a2.25,2.25,0,0,1-1.35.53,1.91,1.91,0,0,1-1.26-.51l-.46-.47a6.52,6.52,0,0,1-3.14.78,6.15,6.15,0,0,1-6.27-6.37A6.13,6.13,0,0,1,33.66.71Zm26,16.88h-3v5.79h3.15c1.94,0,2.48-2.39.92-2.9-.12,0-.28,0-.08-.12A1.17,1.17,0,0,0,61.1,20,1.55,1.55,0,0,0,59.69,17.59Zm-24.64,0h.57a1.28,1.28,0,0,1,1,.36L39,21.65V17.59h1v5.79h-.62a.66.66,0,0,1-.53-.28l-2.72-4v4.31H35.05Zm11.3,0h.57a1.28,1.28,0,0,1,1,.36l2.39,3.7V17.59h1v5.79h-.62a.66.66,0,0,1-.53-.28l-2.71-4v4.31H46.35Zm21.31,0h.57a1.28,1.28,0,0,1,1,.36l2.39,3.7V17.59h1v5.79H72a.66.66,0,0,1-.53-.28l-2.71-4v4.31H67.66ZM27.87,15.83h6.37v.3a.79.79,0,0,1-.87.83H29.19v2.09h3.13v1.12H29.19v3.21H27.87Zm6.37,1.76v5.79h-.17a.89.89,0,0,1-.88-.71V17.59Zm9.54,0,.84,2.12,1.4,3.7h-.74a.66.66,0,0,1-.54-.35l-.47-1.24h-2.2l-.6,1.59H40.41l1.41-3.7.83-2.12Zm-.6,1.34-.76,2h1.49ZM65,17.59l.84,2.12,1.4,3.7h-.74a.66.66,0,0,1-.54-.35l-.47-1.24h-2.2l-.6,1.59H61.67l1.4-3.7.84-2.12Zm-.6,1.34-.76,2h1.49ZM52.38,22l-.65.76a3.05,3.05,0,0,0,2.22.85c1.47,0,2.32-.86,2.31-1.8,0-2.18-3.13-1.42-3.12-2.7,0-.79,1.06-.74,1.06-.74a2.18,2.18,0,0,1,1.62.63c.86-1.23-1.14-1.57-1.67-1.54-1.47,0-2.18.71-2.18,1.65s.52,1.44,1.87,1.8c0,0,1.27.21,1.27,1s-1.17.75-1.17.75A2.21,2.21,0,0,1,52.38,22Zm21-4.38h1.09v2.66l2.44-2.66h1.34l-2,2.16,2.21,3.63a1.34,1.34,0,0,1-1.32-.09L75.5,20.58l-1,1.14v1.66H73.36Zm-15.67.83h2a.74.74,0,0,1,.74.74v.07a.81.81,0,0,1-.8.81H58c0,.52.25.86.65.86h1c.43,0,1,.31,1,.74v.07a.81.81,0,0,1-.81.81H57.69v-4.1ZM61.16,1H54.49V13.12h7c4.08,0,5.22-5,1.94-6.07-.27-.09-.59-.09-.17-.26a2.13,2.13,0,0,0,.81-.67C65.89,4,64.07,1,61.16,1Z"/></g></g></svg>