<svg xmlns="http://www.w3.org/2000/svg" viewBox="0 0 115.5 21.47"><defs><style>.cls-1,.cls-2{fill:#106a36;}.cls-2{fill-rule:evenodd;}</style></defs><title>sekerbank</title><g id="Layer_2" data-name="Layer 2"><g id="Layer_1-2" data-name="Layer 1"><path class="cls-1" d="M96.83,9.39h18.59a9.94,9.94,0,0,1,.08,1.34,10.72,10.72,0,0,1-10.73,10.73,9.94,9.94,0,0,1-1.34-.08V16.1h-8a10.5,10.5,0,0,1-1.1-2.68h11.73v5.25a8.06,8.06,0,0,0,6.6-6.6H94.12A11.76,11.76,0,0,1,94,10.73,10.73,10.73,0,0,1,104.77,0a11.76,11.76,0,0,1,1.34.08V5.37h8a10.88,10.88,0,0,1,1.1,2.68H103.43V2.79A8.08,8.08,0,0,0,96.83,9.39Z"/><path class="cls-2" d="M37.15,9.3a2.19,2.19,0,0,0-.47-1.56,1.71,1.71,0,0,0-1.39-.58,1.88,1.88,0,0,0-1.42.58A2.6,2.6,0,0,0,33.2,9.3Zm2.74.62a10.39,10.39,0,0,1-.08,1.26H33.16c0,2,1,3,3,3a7.48,7.48,0,0,0,3.13-.66l.25,2.13a10.33,10.33,0,0,1-3.84.69c-3.54,0-5.31-1.82-5.31-5.48a6.13,6.13,0,0,1,1.34-4.1,4.54,4.54,0,0,1,3.69-1.6,4.25,4.25,0,0,1,3.43,1.4A5.07,5.07,0,0,1,39.89,9.92Z"/><path class="cls-2" d="M55.05,10.46c0-2-.62-3-1.84-3a1.93,1.93,0,0,0-1.68,1,4.46,4.46,0,0,0-.63,2.41v3a4.63,4.63,0,0,0,1.45.19Q55.05,14.11,55.05,10.46Zm2.89-.28a6.33,6.33,0,0,1-1.51,4.43,5.58,5.58,0,0,1-4.3,1.7,14.63,14.63,0,0,1-4-.52V.34H50.9V5a11.7,11.7,0,0,1-.17,2.09h0A3.26,3.26,0,0,1,54,5.15a3.46,3.46,0,0,1,2.93,1.32A5.93,5.93,0,0,1,57.94,10.18Z"/><path class="cls-2" d="M64.87,11.61v-.26c-2.38,0-3.56.57-3.56,1.7,0,.77.42,1.15,1.27,1.15a2.07,2.07,0,0,0,1.66-.82A2.7,2.7,0,0,0,64.87,11.61ZM67.7,16.1H65.08a12.53,12.53,0,0,1,.11-1.82l0,0a3.12,3.12,0,0,1-1.32,1.49,3.94,3.94,0,0,1-2.11.56,3.24,3.24,0,0,1-2.27-.75,2.74,2.74,0,0,1-.8-2.07,3.28,3.28,0,0,1,1.73-2.94,8.71,8.71,0,0,1,4.47-1V9c0-1.13-.7-1.7-2.1-1.7a6.29,6.29,0,0,0-3.17.84L59.36,5.8a11.18,11.18,0,0,1,3.85-.67,5,5,0,0,1,3.51,1,3.63,3.63,0,0,1,.91,2.75v4.46C67.63,14.28,67.65,15.2,67.7,16.1Z"/><path class="cls-2" d="M47.21,5.13l-.13,2.72a4.16,4.16,0,0,0-.67-.06q-2.31,0-2.31,3.92V16.1H41.34V5.37H44a13,13,0,0,1-.19,2.16h0A3.18,3.18,0,0,1,47.21,5.13Z"/><path class="cls-2" d="M79.11,16.1H76.37V9.23c0-1.19-.44-1.79-1.31-1.79a2.14,2.14,0,0,0-1.77,1,4,4,0,0,0-.74,2.44V16.1H69.79V5.37H72.4a10.22,10.22,0,0,1-.15,1.9l0,0a3.79,3.79,0,0,1,3.65-2.16c2.13,0,3.19,1.15,3.19,3.43Z"/><polygon class="cls-2" points="90.79 16.1 87.34 16.1 84.02 10.79 84.02 16.1 81.25 16.1 81.25 0.34 84.02 0.34 84.02 9.84 87.14 5.37 90.51 5.37 86.76 10.27 90.79 16.1"/><path class="cls-2" d="M16.8,9.3a2.24,2.24,0,0,0-.48-1.56,1.71,1.71,0,0,0-1.38-.58,1.86,1.86,0,0,0-1.42.58,2.55,2.55,0,0,0-.67,1.56Zm2.74.62a8.69,8.69,0,0,1-.09,1.26H12.8c0,2,1,3,3,3a7.44,7.44,0,0,0,3.13-.66l.26,2.13a10.41,10.41,0,0,1-3.84.69c-3.54,0-5.31-1.82-5.31-5.48a6.08,6.08,0,0,1,1.34-4.1A4.54,4.54,0,0,1,15,5.13a4.26,4.26,0,0,1,3.43,1.4A5.07,5.07,0,0,1,19.54,9.92Z"/><path class="cls-2" d="M5.83,17.2a3.15,3.15,0,0,1,.41,1.46c0,1.16-.84,2.09-2.52,2.81l-1.3-1.06a2.38,2.38,0,0,0,1.25-1.94A2.58,2.58,0,0,0,3.3,17.2Z"/><path class="cls-2" d="M9.11,11.58A4.27,4.27,0,0,1,7.58,15a6.35,6.35,0,0,1-4.23,1.34,11.74,11.74,0,0,1-3-.34l.17-2.61a9.46,9.46,0,0,0,3,.51c1.69,0,2.53-.64,2.53-1.92,0-.73-.53-1.34-1.58-1.81C2.69,9.35,1.71,8.91,1.58,8.82A3.61,3.61,0,0,1,0,5.67,3.89,3.89,0,0,1,1.47,2.5,6.26,6.26,0,0,1,5.55,1.29a14.83,14.83,0,0,1,2.63.26L8,4a9.28,9.28,0,0,0-2.61-.39,2.84,2.84,0,0,0-1.82.5A1.52,1.52,0,0,0,3,5.39c0,.69.53,1.27,1.6,1.75,1.81.83,2.79,1.3,2.93,1.4A3.48,3.48,0,0,1,9.11,11.58Z"/><polygon class="cls-2" points="30.52 16.1 27.07 16.1 23.75 10.79 23.75 16.1 20.98 16.1 20.98 0.34 23.75 0.34 23.75 9.84 26.88 5.37 30.24 5.37 26.49 10.27 30.52 16.1"/></g></g></svg>