<svg xmlns="http://www.w3.org/2000/svg" viewBox="0 0 109.83 25.13"><defs><style>.cls-1{fill:#00c4b3;}.cls-2{fill:#231f20;}</style></defs><title>turkiye-finans</title><g id="Layer_2" data-name="Layer 2"><g id="Layer_1-2" data-name="Layer 1"><path class="cls-1" d="M94.41,17.41l-.1.08-.09.08-.08.09-.08.09a2.06,2.06,0,0,0-.38,1,3.16,3.16,0,0,0,.08,1.17,5,5,0,0,0,.49,1.23,5.86,5.86,0,0,0,.86,1.19l2.58,2.81,1.94-1.46a1.79,1.79,0,0,0,.62-.9,2.76,2.76,0,0,0,.07-1.26,4.76,4.76,0,0,0-.5-1.44,6,6,0,0,0-1-1.42l-.15-.15-.15-.14a1.07,1.07,0,0,0-.16-.14l-.15-.13-1.56,1.65-2.2-2.33"/><path class="cls-1" d="M92.64,0,91,4.16a5.27,5.27,0,0,0-.34,1.64,6.05,6.05,0,0,0,.18,1.68,6.43,6.43,0,0,0,.6,1.58,5.88,5.88,0,0,0,1,1.37l.14.14.14.13.14.12.15.11,1.38-2.47L96.92,11l.13-.12.12-.14a.76.76,0,0,0,.11-.14l.12-.15A4.11,4.11,0,0,0,98,8.86a5.94,5.94,0,0,0,0-1.93,6.63,6.63,0,0,0-.64-2A5.68,5.68,0,0,0,96.18,3.3L92.64,0"/><path class="cls-1" d="M89.49,10.31a1.45,1.45,0,0,0-.47.08,1.25,1.25,0,0,0-.4.2,1.44,1.44,0,0,0-.33.32,2.09,2.09,0,0,0-.25.44l-.91,2.26,2.25,2.46a5.55,5.55,0,0,0,.5.48,4.28,4.28,0,0,0,.52.38,4.2,4.2,0,0,0,.52.26,2.69,2.69,0,0,0,.52.14,1.89,1.89,0,0,0,.47,0,1.64,1.64,0,0,0,.44-.09,1.87,1.87,0,0,0,.39-.22,1.84,1.84,0,0,0,.33-.35l.07-.11.06-.11a.54.54,0,0,0,0-.11.61.61,0,0,0,0-.12L91.22,14l1.1-2-.11-.16a.86.86,0,0,0-.13-.14L92,11.62l-.13-.14a5.7,5.7,0,0,0-.6-.53,4,4,0,0,0-.61-.37,2.91,2.91,0,0,0-.58-.21,1.78,1.78,0,0,0-.55-.06"/><path class="cls-1" d="M101.57,10.34a4.14,4.14,0,0,0-.87.11,3.6,3.6,0,0,0-.78.27,3.25,3.25,0,0,0-.68.43,3,3,0,0,0-.56.57l-.11.15a1.4,1.4,0,0,0-.1.16l-.09.16-.09.17L101,15.07l-2,2.07.13.17a2.09,2.09,0,0,0,.14.17l.14.16.15.16a6.1,6.1,0,0,0,.73.63,6.52,6.52,0,0,0,.78.51,7.68,7.68,0,0,0,.84.37,5.17,5.17,0,0,0,.86.22,4.76,4.76,0,0,0,.83.08,4.38,4.38,0,0,0,.82-.08,3.61,3.61,0,0,0,.79-.24,3.47,3.47,0,0,0,.72-.42L109.83,16l-4.34-4a5.73,5.73,0,0,0-.94-.72,5.47,5.47,0,0,0-1-.51,5.71,5.71,0,0,0-1-.29,5.5,5.5,0,0,0-1-.09"/><path class="cls-2" d="M7.09,11.27H4.59L3.14,18.64H1l1.45-7.37H0L.38,9.33H7.47Z"/><path class="cls-2" d="M5.92,16.86A5.55,5.55,0,0,1,6,15.92l.71-3.42H8.82l-.61,3.1a3.36,3.36,0,0,0-.07.58.8.8,0,0,0,.86.91c.67,0,1.23-.49,1.44-1.62l.58-3h2.06l-1.22,6.14h-2l.19-1h0a2.27,2.27,0,0,1-2,1.19A1.86,1.86,0,0,1,5.92,16.86Zm2.3-7.39H9.9l-.36,1.79H7.86Zm2.55,0h1.67l-.36,1.79H10.4Z"/><path class="cls-2" d="M14.41,12.5h2l-.26,1.24h0a2.19,2.19,0,0,1,2.19-1.43,1.37,1.37,0,0,1,.28,0l-.4,2.11H17.9c-1.25,0-1.94.49-2.22,1.94l-.45,2.26h-2Z"/><path class="cls-2" d="M22.77,15.45l2.11,3.19H22.35l-1.59-2.8-.55,2.8h-2L20,9.33h2L21,14.91l2.29-2.41h2.69Z"/><path class="cls-2" d="M26.27,12.5h2l-1.22,6.14h-2Zm2.33-1.13H26.4l.41-2H29Z"/><path class="cls-2" d="M36.08,12.5l-5.67,8.81h-2.2l2.24-3.38L28.79,12.5H31l.81,3.36,2.08-3.36Z"/><path class="cls-2" d="M41.92,16.05H37.44c.1.72.52,1.1,1.4,1.1a3.83,3.83,0,0,0,1.92-.54l.63,1.57a5.78,5.78,0,0,1-2.69.66c-2,0-3.25-1.11-3.25-2.95a3.47,3.47,0,0,1,3.71-3.58c1.77,0,3,.89,3,2.48A4.43,4.43,0,0,1,41.92,16.05Zm-1.81-1.42c0-.56-.41-.89-1-.89a1.56,1.56,0,0,0-1.52,1.13h2.54A.93.93,0,0,0,40.11,14.63Z"/><path class="cls-2" d="M49.6,11.27l-.38,1.89h3.41L52.27,15H48.85l-.72,3.6H46l1.84-9.31h6.05l-.37,1.94Z"/><path class="cls-2" d="M54.31,12.5h2l-1.21,6.14h-2Zm2.33-1.13H54.45l.4-2H57Z"/><path class="cls-2" d="M57.65,12.5h2l-.19.93h0a2.59,2.59,0,0,1,2.15-1.13,1.8,1.8,0,0,1,2,2,7,7,0,0,1-.12,1.2l-.65,3.15h-2l.58-3a3,3,0,0,0,.1-.71c0-.68-.37-.95-1-.95s-1.2.35-1.43,1.58l-.61,3.08h-2Z"/><path class="cls-2" d="M63.93,16a3.34,3.34,0,0,1,3.31-3.66,2.26,2.26,0,0,1,2.19,1.26h0l.21-1.06h2l-1.22,6.14h-2l.16-.82h0A2.61,2.61,0,0,1,63.93,16ZM69,15.44a1.29,1.29,0,0,0-1.41-1.31,1.52,1.52,0,0,0-1.55,1.59A1.27,1.27,0,0,0,67.47,17,1.52,1.52,0,0,0,69,15.44Z"/><path class="cls-2" d="M72.72,12.5h2l-.19.93h0a2.58,2.58,0,0,1,2.15-1.13,1.81,1.81,0,0,1,2,2,7,7,0,0,1-.12,1.2l-.65,3.15h-2l.58-3a3,3,0,0,0,.1-.71c0-.68-.37-.95-1-.95s-1.21.35-1.44,1.58l-.6,3.08h-2Z"/><path class="cls-2" d="M81.65,17.21c.3,0,.42-.11.42-.27s-.1-.22-.37-.38l-.86-.48a1.94,1.94,0,0,1-1.21-1.8c0-1.2.86-2,2.4-2a6.43,6.43,0,0,1,2.72.66L84,14.45a4.45,4.45,0,0,0-1.86-.54c-.33,0-.45.08-.45.24s.12.24.43.41L83,15a1.81,1.81,0,0,1,1.21,1.76c0,1.37-1,2.07-2.55,2.07a4.94,4.94,0,0,1-3-1l1-1.47A4.23,4.23,0,0,0,81.65,17.21Z"/></g></g></svg>