<svg xmlns="http://www.w3.org/2000/svg" xmlns:xlink="http://www.w3.org/1999/xlink" version="1.1" id="Layer_1" x="0px" y="0px" viewBox="0 0 91 31" style="enable-background:new 0 0 91 31;" xml:space="preserve">
<style type="text/css">
	.st0{fill:#FAC34F;}
	.st1{fill:#010101;}
</style>
<path class="st0" d="M17.3,13.1c0.2-1.1-0.8-2.7-3.7-2.7h-7c-1.9,0-3.1,1.3-3.4,2.7l-1.4,7.5c1.3,0,9.5,0,9.5,0h0.5  c3,0,4.7-0.7,5-2.8c0.2-1.5-1.1-2.4-2.1-2.6C15.8,14.9,17.1,14.6,17.3,13.1z M10.7,13.5c-0.7,0.9-3.3,4.1-3.9,4.7  c-1.2,1.3-3.6,1.1-3.6,1.1c0,0,0.9-4.1,1.2-5.3c0.8-3.2,3.5-2.4,3.5-2.4s-0.7,0.1-1.2,0.7c-0.5,0.7-1.1,3.8-1.4,5.3  c1.5-1.8,3.7-4.1,4-4.6c1.5-1.9,3.9-1.6,3.9-1.6S12.2,11.6,10.7,13.5z"/>
<path id="XMLID_18_" class="st1" d="M26.3,20.5l5.6-10.2h-2l-4.1,8l-1-8h-2.2l1.9,10.2H26.3L26.3,20.5z M34.9,16.5l-0.6,3.2  c-0.4,0-0.6,0-1.2,0c-1,0-1.8-0.4-1.6-1.4C31.7,17,33,16.7,34.9,16.5 M37,15.6c0.4-1.9-1.1-2.6-2.9-2.6c-1.2,0-1.8,0.1-2.5,0.4  L31,14.6c0.9-0.4,1.8-0.5,2.5-0.5c1,0,1.8,0.3,1.6,1.3l-0.1,0.4c-2.9,0.2-5.2,0.8-5.5,2.6c-0.2,1.3,1.2,2.3,3.5,2.3  c1.2,0,2.2,0,3-0.1L37,15.6z M42.2,16.5l3.7-3.4h-2.1l-3.5,3.4l1.2-6.2h-2l-1.9,10.2h2l0.7-3.8l2.3,3.8h2.3L42.2,16.5z M47.5,20.5  l1.4-7.3h-1.8l-1.4,7.3H47.5z M56,10.6c0.2-0.2,0.6-0.3,0.6-0.3c-2.3-0.5-4.8,0.2-5.1,2l-0.2,0.9H50l-0.2,1h1.3l-1.2,6.3h1.9  l1.2-6.3h1.5l0.2-1h-1.5l0.1-0.5c0.2-0.9,0.5-1.8,2.4-1.5C55.7,11.1,55.7,10.9,56,10.6 M61.9,13c-0.2,1-1,1.7-3.2,1.6  c-0.6,0-0.8,0-0.8,0l0.6-3.2c0.4-0.1,0.8-0.2,1.3-0.2C61.3,11.1,62.1,11.8,61.9,13 M57.8,15.6l0.6,0c2.4-0.1,3.1,0.9,2.9,2.2  c-0.3,1.2-1.3,1.8-2.8,1.8c-0.6,0-0.9,0-1.4,0L57.8,15.6z M63.9,12.9c0.2-1.2-0.9-2.8-3.9-2.8c-1.5,0-3.4,0.3-3.6,1.5l-1.7,8.9  c1,0.1,2,0.1,3.5,0.1c3,0,4.8-0.7,5.1-2.9c0.2-1.5-1.1-2.5-2.2-2.7C62.4,14.9,63.7,14.5,63.9,12.9 M69.4,16.5l-0.6,3.2  c-0.4,0-0.6,0-1.2,0c-1,0-1.8-0.4-1.6-1.4C66.1,17,67.4,16.7,69.4,16.5 M71.4,15.6c0.4-1.9-1.1-2.6-2.9-2.6c-1.2,0-1.8,0.1-2.5,0.4  l-0.6,1.1c0.9-0.4,1.8-0.5,2.5-0.5c1,0,1.8,0.3,1.6,1.3l-0.1,0.4c-2.9,0.2-5.2,0.8-5.5,2.6c-0.2,1.3,1.2,2.3,3.5,2.3  c1.2,0,2.2,0,3-0.1L71.4,15.6z M79.9,15.3c0.2-1.2-0.5-2.2-3.1-2.2c-1.5,0-2.6,0.2-3.5,0.6l-1.3,6.9h2l1.1-6.1  c0.4-0.1,0.8-0.3,1.5-0.3c1.3,0,1.6,0.6,1.5,1.2l-1,5.2h1.9L79.9,15.3z M83.1,16.5L83.1,16.5l1.1-6.2h-2l-1.9,10.2h2l0.7-3.7h0  l2.3,3.7h2.3l-2.7-4l3.7-3.4h-2.1L83.1,16.5z"/>
</svg>