<svg xmlns="http://www.w3.org/2000/svg" viewBox="0 0 114.76 20.06"><defs><style>.cls-1{fill:#064a76;}.cls-2{fill:#b9b9ba;}</style></defs><title>YKB</title><g id="Layer_2" data-name="Layer 2"><g id="Layer_1-2" data-name="Layer 1"><rect class="cls-1" x="111.49" y="0.45" width="3.27" height="2.65"/><path class="cls-1" d="M54.09,17,54,16.41a2.9,2.9,0,0,1-2.48.94,2.46,2.46,0,0,1-2.31-2.73l0-2.14C49.25,9,54,10.06,54,7.47c0-.54,0-1-.66-1s-.77.46-.77,1v1H49.19v-1c0-2.25,1.94-3.3,4.13-3.3,2.8,0,4.08,1.56,4.08,3.27V17Zm-.17-6.32c-.8.51-1.37.77-1.37,1.82v1.54c0,.74.21,1,.69,1s.68-.28.68-1Z"/><path class="cls-1" d="M67.24,13.66c0,2-.34,3.67-2.56,3.67a2.59,2.59,0,0,1-2.42-1.14v3.87H59V4.45h3.28l0,1.28a2.57,2.57,0,0,1,2.62-1.54c1.79,0,2.39,1.71,2.39,3.34v6.13Zm-3.5-5.88c0-.57-.31-.88-.74-.88s-.77.34-.77.94v5.95c0,.57.31.88.74.88s.77-.31.77-.91Z"/><rect class="cls-1" x="68.81" y="4.48" width="3.27" height="12.56"/><polygon class="cls-1" points="80.11 17.02 77.97 11.21 77.47 12.12 77.47 17.02 73.77 17.02 73.77 0.44 77.47 0.44 77.47 5.6 79.83 0.44 83.5 0.44 80.11 7.42 83.79 17.02 80.11 17.02"/><path class="cls-1" d="M91,7.9c-.82-.32-3-.34-3,1.68V17H84.69V4.48h3l0,1.34A3.46,3.46,0,0,1,91,4.16V7.9Z"/><path class="cls-1" d="M100.2,13.88c0,2.5-1.74,3.47-4.1,3.47-2.17,0-4.1-1.05-4.1-3.53V8c0-2.39,1.45-3.73,4.1-3.73,2.16,0,4.1.89,4.1,3.76v3.31H95.39v3c0,.52.22.81.71.81s.71-.29.71-.81V12.46h3.39v1.42ZM96.75,7.27c0-.51-.22-.8-.68-.8s-.71.29-.71.8V9h1.42Z"/><path class="cls-1" d="M106.65,17V15.76a2.36,2.36,0,0,1-2.56,1.54c-2,0-2.42-1.71-2.42-3.31V7.9c0-2,.48-3.73,2.5-3.73a2.93,2.93,0,0,1,2.48,1.13V.46h3.27V17Zm0-9.34c0-.57-.31-.89-.77-.86a.77.77,0,0,0-.77.88l0,6c0,.57.31.88.74.88s.77-.34.77-.91Z"/><rect class="cls-1" x="111.49" y="4.5" width="3.27" height="12.56"/><polygon class="cls-1" points="46.82 9.86 46.82 17.04 43.11 17.04 43.11 9.86 39.87 0.46 43.8 0.46 44.97 5.08 46.16 0.46 50.09 0.46 46.82 9.86"/><path class="cls-2" d="M34.33,13.71a4.15,4.15,0,0,1-4.4.85,3.05,3.05,0,0,1-1.64-1.89,3.45,3.45,0,0,0,5.22-.29,4.62,4.62,0,0,0,.79-4.85,5.13,5.13,0,0,0-4-3,6.11,6.11,0,0,0-6.18,2.61c-1.83,2.83-2.06,6-3.39,9.13a1.17,1.17,0,0,1-1.17.73h0a1.19,1.19,0,0,1-1.17-.73C17,13.1,16.81,9.94,15,7.11A6.09,6.09,0,0,0,8.79,4.5a5.13,5.13,0,0,0-4,3c-1,3.17.78,4.85.78,4.85a3.45,3.45,0,0,0,5.22.29,3,3,0,0,1-1.63,1.89,4.15,4.15,0,0,1-4.4-.85A6.07,6.07,0,0,1,3.31,7.18,6.7,6.7,0,0,1,9.14,2.94,8.41,8.41,0,0,1,16.7,7c.33.63,1,2.24,1,2.24h3.62S22,7.62,22.37,7a8.41,8.41,0,0,1,7.56-4.05,6.7,6.7,0,0,1,5.83,4.24,6.09,6.09,0,0,1-1.43,6.53m4.28-7.26A9.73,9.73,0,0,0,29.79,0a11.14,11.14,0,0,0-8,3.13,13.77,13.77,0,0,0-2.27,2.81h0a13.73,13.73,0,0,0-2.26-2.81A11.16,11.16,0,0,0,9.27,0,9.73,9.73,0,0,0,.46,6.45,9.24,9.24,0,0,0,1,13.53a7.07,7.07,0,0,0,6.6,4.14,5.75,5.75,0,0,0,5.1-3.44A5,5,0,0,0,11.6,8.74a2,2,0,0,1-.35,1.51A2.22,2.22,0,0,1,8.54,11,1.78,1.78,0,0,1,7.36,9a2.07,2.07,0,0,1,1.3-1.62,3,3,0,0,1,3.48.79c1.82,2,2,5.12,2.9,7.46.61,1.93,1.58,3.6,3.7,4.08a3.55,3.55,0,0,0,.79.09h0a3.48,3.48,0,0,0,.79-.09c2.13-.48,3.1-2.15,3.71-4.08.86-2.34,1.08-5.42,2.9-7.46a3,3,0,0,1,3.47-.79A2.08,2.08,0,0,1,31.71,9a1.8,1.8,0,0,1-1.18,2,2.22,2.22,0,0,1-2.71-.73,2,2,0,0,1-.35-1.51,5,5,0,0,0-1.12,5.49,5.77,5.77,0,0,0,5.11,3.44,7.08,7.08,0,0,0,6.6-4.14,9.28,9.28,0,0,0,.55-7.08M19.54,0h0"/></g></g></svg>