<svg xmlns="http://www.w3.org/2000/svg" viewBox="0 0 108.24 23.03"><defs><style>.cls-1{fill:#ec1c24;fill-rule:evenodd;}.cls-2{fill:#231f20;}</style></defs><title>ziraat</title><g id="Layer_2" data-name="Layer 2"><g id="Layer_1-2" data-name="Layer 1"><path class="cls-1" d="M8.64,5.1,7,6.42,5.86,7.3v4l.57-.44v1.86l-.57.44v4l.57-.46v1.86L5.86,19v4L7,22.16l1.67-1.32,2.23-1.74V12.38a1,1,0,0,0-.43-.72,1.07,1.07,0,0,0,.43-.92V3.36Zm1.44,10.21c0,.35-.14.51-.45.75l-1,.77L7.22,18V16.1L8.64,15l.86-.66c.29-.23.58-.17.58.14Zm0-5.87c0,.36-.14.51-.45.76l-1,.77L7.22,12.09V10.23L8.64,9.11l.86-.66c.29-.23.58-.18.58.14Z"/><polygon class="cls-1" points="8.08 4.37 8.08 2.94 6.97 3.82 6.65 4.08 6.65 2.58 6.97 2.32 8.08 1.43 8.08 0 6.97 0.89 5.86 1.78 5.86 6.15 6.97 5.26 8.08 4.37"/><polygon class="cls-1" points="2.79 0 2.79 1.43 3.5 2.01 3.5 3.58 3.23 3.35 3.23 4.79 3.89 5.33 4.57 5.88 4.57 4.45 4.29 4.22 4.29 2.64 5 3.22 5 1.78 3.89 0.89 2.79 0"/><polygon class="cls-1" points="0 3.36 0 7.37 3.89 10.44 4.36 10.8 3.89 11.27 3.32 11.83 0 9.23 0 13.24 1.06 14.06 0 15.1 0 19.1 3.89 22.16 5 23.03 5 19.03 3.89 18.15 0.65 15.6 1.7 14.56 3.89 16.29 5 17.17 5 13.16 3.96 12.33 5 11.3 5 7.3 3.89 6.42 0 3.36"/><polygon class="cls-2" points="17.21 5.32 16.64 7.38 21.7 7.38 16.16 16.44 16.16 18.41 23.91 18.41 24.7 16.44 19.16 16.44 24.72 7.35 24.72 5.32 17.21 5.32"/><path class="cls-2" d="M26.71,8.13a1.28,1.28,0,1,0-1.28-1.28,1.28,1.28,0,0,0,1.28,1.28"/><rect class="cls-2" x="25.71" y="8.86" width="2.05" height="9.54"/><rect class="cls-2" x="106.71" y="8.86" width="1.53" height="9.54"/><path class="cls-2" d="M29.59,18.38V8.9h1.7V10a3.26,3.26,0,0,1,1.41-.86,3.47,3.47,0,0,1,1.54,0v1.83H32.9c-.55,0-1.54.74-1.54,1.45v6Z"/><path class="cls-2" d="M39,16c0,.37-.53,1-1.67,1a1.38,1.38,0,0,1-1.53-1.33,1.73,1.73,0,0,1,1.64-1.72H39Zm2.19,2.44V11.86c0-2.56-1.66-3.26-2.91-3.26a12.26,12.26,0,0,0-2.56.33l-.47,1.92a12.13,12.13,0,0,1,2.52-.45,1.2,1.2,0,0,1,1.28,1.11v.92a10.41,10.41,0,0,0-2.88.3A3.11,3.11,0,0,0,33.78,16c0,2.14,1.89,2.54,3.07,2.54a3.35,3.35,0,0,0,2-.63h.36v.45Z"/><path class="cls-2" d="M47.08,16c0,.37-.53,1-1.67,1a1.38,1.38,0,0,1-1.53-1.33,1.73,1.73,0,0,1,1.64-1.72h1.56Zm2.19,2.44V11.86c0-2.56-1.66-3.26-2.91-3.26a12.26,12.26,0,0,0-2.56.33l-.47,1.92a12.13,12.13,0,0,1,2.52-.45,1.2,1.2,0,0,1,1.28,1.11v.92a10.41,10.41,0,0,0-2.88.3A3.11,3.11,0,0,0,41.83,16c0,2.14,1.88,2.54,3.07,2.54a3.35,3.35,0,0,0,2-.63h.36v.45Z"/><path class="cls-2" d="M50.93,6.37h2V8.93H55.2l-.52,1.47H52.94v5.47c0,.71.13,1.12.81,1.12h1.18v1.39H52.82a1.91,1.91,0,0,1-2-1.85V10.36h-1V8.9h1Z"/><path class="cls-2" d="M64.82,8.84a2,2,0,0,1-2,2H60.15v-4h2.48a2.05,2.05,0,0,1,2.19,2M60.1,12.36h3.27a2.24,2.24,0,0,1,2.05,2.47A2.17,2.17,0,0,1,63,16.9H60.1Zm6.34-4c0-1.85-1.93-3-3.92-3h-4.1v13H64A3.68,3.68,0,0,0,67,14.67a3.39,3.39,0,0,0-2.35-3.24,4.2,4.2,0,0,0,1.78-3.07"/><path class="cls-2" d="M73,15a2.2,2.2,0,0,1-2.25,2.48c-1.74,0-1.79-1.1-1.79-1.93a2.16,2.16,0,0,1,2.48-2.1H73Zm1.57,3.59V11.43a2.81,2.81,0,0,0-2.9-2.79,8.51,8.51,0,0,0-3,.71l-.17,1.44a8.57,8.57,0,0,1,2.36-.8c1.41-.26,2.16.55,2.16,1.18v1.26h-2.2a3.18,3.18,0,0,0-3.32,3.31c0,2.33,2.14,2.81,3.34,2.81a4.72,4.72,0,0,0,2.3-.74v.74Z"/><path class="cls-2" d="M96.65,15a2.2,2.2,0,0,1-2.26,2.48c-1.73,0-1.78-1.1-1.78-1.93a2.16,2.16,0,0,1,2.47-2.1h1.57Zm1.57,3.59V11.43a2.82,2.82,0,0,0-2.9-2.79,8.52,8.52,0,0,0-3,.71l-.16,1.44a8.41,8.41,0,0,1,2.35-.8c1.41-.26,2.16.55,2.16,1.18v1.26h-2.2a3.18,3.18,0,0,0-3.31,3.31c0,2.33,2.14,2.81,3.34,2.81a4.66,4.66,0,0,0,2.29-.74v.74Z"/><path class="cls-2" d="M75.53,18.44h1.63V11.91c0-.6,1.11-1.54,2.36-1.54s1.29.82,1.29,1.28v6.79h1.71V11.05A2.83,2.83,0,0,0,79.81,8.6a3.63,3.63,0,0,0-2.74,1.23V8.57l-1.54.32Z"/><polygon class="cls-2" points="83.58 5.38 85.4 5.38 85.4 12.39 85.77 12.39 88.91 8.4 91.22 8.4 87.14 12.89 91.64 18.32 89.15 18.32 85.77 13.36 85.37 13.36 85.37 18.41 83.57 18.41 83.58 5.38"/><path class="cls-2" d="M104.91,10.56l.34-1.15a6.37,6.37,0,0,0-2.72-.68,2.79,2.79,0,0,0-3,2.55c0,1.61,1,2.59,2.71,3s2,.93,2,1.43-.5,1.4-2,1.4a5.08,5.08,0,0,1-2.56-.75l-.48,1.27a6.86,6.86,0,0,0,3.23.83,3.3,3.3,0,0,0,3.31-3c0-1.4-1.52-2.38-2.81-2.64s-1.85-.8-1.85-1.59.93-1.16,1.78-1.16a6.33,6.33,0,0,1,2,.47"/></g></g></svg>