<?xml version="1.0" encoding="utf-8"?>
<!-- Generator: Adobe Illustrator 26.3.1, SVG Export Plug-In . SVG Version: 6.00 Build 0)  -->
<svg version="1.1" id="Layer_1" xmlns="http://www.w3.org/2000/svg" xmlns:xlink="http://www.w3.org/1999/xlink" x="0px" y="0px"
	 viewBox="0 0 282.9 60.5" style="enable-background:new 0 0 282.9 60.5;" xml:space="preserve">
<style type="text/css">
	.st0{fill:#E52629;}
	.st1{fill:#010202;}
</style>
<g id="LOGOLAR">
	<path class="st0" d="M13.2,28c0.3-0.4,5.8-6.9,4.1-13.3c-0.4-1.9-1.4-3.6-2.9-4.8c-0.3-0.3-11.8-9-11.8-9c-1.3-1-2.3-0.8-2.3,0.4
		v8.6c0.2,1.6,1,3,2.3,3.9l6,4.6c6.3,4.9,3.8,8.8,3.6,9.1c-0.7,0.7-1.5,1.2-2.4,1.5l-8.9-6.6c-0.4-0.3-0.7-0.1-0.6,0.5v1.4
		c0.1,0.7,0.5,1.4,1.1,1.8l5.5,4c-0.9,0.5-1.7,1.2-2.4,2c-0.4,0.4-5.8,6.9-4.1,13.3c0.5,2.2,1.6,4.1,3.2,5.6
		c0.3,0.3,0.7,0.6,1.1,0.9l0.3,0.2l10.2,7c1.3,1,2.3,0.8,2.3-0.4v-8.4c-0.2-1.5-1-2.9-2.3-3.9l-6-4.6c-6.4-4.9-3.8-8.8-3.6-9.1
		c0.8-0.7,1.7-1.3,2.7-1.6l8.1,6c0.4,0.3,0.7,0.1,0.6-0.5L16.8,35c-0.2-0.8-0.6-1.5-1.3-1.9l-4.4-3.2C11.9,29.3,12.6,28.7,13.2,28z"
		/>
	<path class="st0" d="M34.2,28.3c1.3-1.3,2.1-3.1,2.2-4.9c0.1-0.4,0.4-21.3,0.4-21.3c0-1.6-0.7-2.2-1.7-1.5l-6.3,5
		c-1.2,1.1-2,2.6-2.1,4.3l0.1,13.5c-0.2,6.1-2.6,8.4-4.1,8.8h-0.1V10.8c0-0.5-0.3-0.6-0.8-0.2l-1.1,0.9c-0.5,0.5-0.8,0.6-0.8,1.5v47
		c0,0.5,0.3,0.6,0.8,0.2l1.1-0.8c0.4-0.5,0.8-0.6,0.8-1.5V33.5l0,0c1.5,0.4,3.7,1.5,3.9,7.6V43l-0.2,10.8c0,1.6,0.6,2.2,1.6,1.5
		l6.4-4.9c1.2-1,2-2.4,2.1-4l0.1-2.7c0-0.7,0-1.2-0.1-1.3c-0.3-2.5-1-4.1-2.1-5.2c-2-2.4-5.2-3.7-7.8-4.3
		C29.5,32.2,32.2,30.6,34.2,28.3z"/>
	<path class="st1" d="M80.1,12.3c-2.1,0-3.8,1.7-3.8,3.8s1.7,3.8,3.8,3.8c2.1,0,3.8-1.7,3.8-3.8C83.9,14,82.2,12.3,80.1,12.3z"/>
	<polygon class="st1" points="74.6,17 74.6,12.3 53.2,12.3 51.9,17.3 67.4,17.3 51.3,43.6 51.3,48.5 73.3,48.5 75,43.4 58.8,43.4
		"/>
	<path class="st1" d="M101.2,23c-3.1-0.9-6.4,0.4-8,3.2V22l-6,1v25.5h6V30.9c0,0,1.8-4.4,6.8-2.5L101.2,23z"/>
	<polygon class="st1" points="77.1,48.5 83.2,48.5 83.2,21.9 77.1,23 	"/>
	<path class="st1" d="M104.5,23.4l-0.9,5.7l0.5-0.3c2-1.4,4.3-2.3,6.7-2.6c5.3,0,3.7,6.3,3.7,6.3c-11.5-0.6-13.8,3.7-14.2,8.6
		c0,0.2,0,0.4,0,0.6V42c0,0.2,0,0.4,0.1,0.6c0.2,2,1.5,6.4,7.9,6.4l0,0c2.2,0,4.3-0.6,6.2-1.7v1.2h5.7V28.3
		C119.4,17.9,104.5,23.4,104.5,23.4z M114.1,42.1c-0.9,1.6-2.6,2.5-4.4,2.6c-2.9-0.1-3.3-3.1-3.2-4c0.1-0.9,0.2-4.8,6.9-4.5l0.6,0.1
		C114.1,36.3,114.1,42.1,114.1,42.1z"/>
	<path class="st1" d="M126.3,23.4l-0.9,5.7l0.5-0.3c2-1.4,4.3-2.3,6.7-2.6c5.3,0,3.8,6.3,3.8,6.3c-11.5-0.6-13.8,3.7-14.2,8.6
		c0,0.2,0,0.4,0,0.6v0.3c0,0,0,0.1,0,0.1c0,0.2,0,0.4,0,0.6c0.2,2,1.5,6.4,7.9,6.4l0,0c2.2,0,4.3-0.6,6.2-1.7v1.2h5.7V28.3
		C141.2,17.9,126.3,23.4,126.3,23.4z M136,42.1c-0.9,1.6-2.6,2.5-4.4,2.6c-2.9-0.1-3.3-3.1-3.2-4c0.1-0.9,0.2-4.8,6.9-4.5l0.6,0.1
		L136,42.1L136,42.1z"/>
	<path class="st1" d="M152.6,42.2v-16h4.5l1.5-4.2h-6v-7l-6,1.1V22h-2.8v4.2h2.8v16c0,0-0.5,7,6.6,6.8c1.9,0,3.8-0.4,5.5-1.2l-1-3.5
		C157.7,44.3,152.2,46.3,152.6,42.2z"/>
	<polygon class="st1" points="243.2,48.5 247.6,48.5 247.6,21.9 243.2,22.7 	"/>
	<polygon class="st1" points="227.4,48.5 231.8,48.5 231.8,21.9 227.4,22.7 	"/>
	<path class="st1" d="M276.7,22c-3.4,0.1-6.5,1.8-8.4,4.6c0,0-1.2-4.6-5.4-4.6c-3.1,0-6.2,2.4-7.6,3.6v-3.4l-4.4,0.8v25.5h4.4V29.2
		c1.4-1.5,3.2-2.6,5.1-3.2c3.6-1.2,4.3,2.7,4.3,3.9v18.6h4V29.8c1.5-1.5,3.2-2.8,5.2-3.8c2.9-1.4,4.9,1,4.8,3.5v19h4.2V27.6
		C282.9,27.6,282.3,22,276.7,22z"/>
	<path class="st1" d="M239.1,44.2V12.3l-4.4,0.8v31.1c0,0-0.2,4.6,4,4.6c1.1,0,2.1-0.3,3-0.8l-0.7-2.3c-0.7,0.3-1.5,0-1.8-0.7
		C239.1,44.7,239,44.5,239.1,44.2z"/>
	<rect x="167.1" y="12.3" class="st1" width="4.4" height="36.2"/>
	<polygon class="st1" points="190.8,12.3 185.7,12.3 171.8,29.3 185.6,48.5 190.8,48.5 176.8,29.1 	"/>
	<path class="st1" d="M223.2,25.8l1.3-3.3h-6.4v-7.1l-4.1,1v6h-3.4v3.1h3.3v18.2c0,0,0.1,4.2,3.4,4.8c2.3,0.4,4.7,0.1,6.9-0.8
		l-0.1-0.3l-0.5-2.2c-0.9,0.3-1.9,0.5-2.8,0.5c-1.7,0-3-0.8-3-2.9v-17H223.2z"/>
	<path class="st1" d="M202.4,22c-5.4,0-8.5,2-8.5,2l-0.8,4.6c2.4-2,5.5-3,8.6-3c5,0.2,3.8,6.9,3.8,6.9c-11.8-0.6-15.2,4-15.2,9.1
		c0,5.1,3.8,7.2,8.2,7.2c2.5,0,5-0.9,6.9-2.6v2.1h4.2c0,0,0.1-19.1-0.1-20.9C209.3,25.6,207.8,22,202.4,22z M205.2,42.1
		c-2.2,3.8-9.7,6.1-10.2-0.9c-0.5-6.9,10.2-5.8,10.2-5.8V42.1z"/>
</g>
</svg>
